<svg width="1500" height="800" xmlns="http://www.w3.org/2000/svg">
 <!-- Created with Method Draw - http://github.com/duopixel/Method-Draw/ -->

 <g>
  <title>background</title>
  <rect fill="#4caf50" id="canvas_background" height="802" width="1502" y="-1" x="-1"/>
  <g display="none" overflow="visible" y="0" x="0" height="100%" width="100%" id="canvasGrid">
   <rect fill="url(#gridpattern)" stroke-width="0" y="0" x="0" height="100%" width="100%"/>
  </g>
 </g>
 <g>
  <title>Layer 1</title>
  <g stroke="null" id="svg_46">
   <g transform="rotate(-51.25349807739258 -1520.7110595703123,498.90795898437517) matrix(0.3749565396347747,0,0,0.35696000605684536,-129.06148047355236,-1363.35975807879) " opacity="0.52" stroke="null" id="svg_32">
    <g transform="matrix(0.3380723292124364,-0.16217122690465907,0.1543876050128887,0.32184610195322755,-821.7282579007809,-1114.1334445764207) " opacity="0.52" stroke="null" id="svg_33">
     <g stroke="null" id="svg_30">
      <g stroke="null" id="svg_34">
       <path stroke="null" id="svg_35" class="active-path" fill="#F5F5F5" d="m-9096.33278,12965.477097c1.77,22.9 -14.34,43.23 -35.97,45.4c-16.56,1.66 -31.54,-7.81 -38.46,-22.6l-19.63,1.73l-14.82,7.15c-3.39,1.63 -5.67,4.87 -6.19,8.59c-1.4,10.03 -3.94,19.69 -7.47,28.87c-1.2,3.11 -0.99,6.58 0.64,9.48l5.28,9.44l14.68,9.85c7.74,-2.96 16.75,-2.25 24.16,2.72c12.56,8.43 15.57,25.78 6.23,37.99c-8.04,10.52 -22.99,13.41 -34.37,6.65c-7.25,-4.3 -11.63,-11.44 -12.7,-19.07l-16.27,-10.91l-10.24,-1.25c-3.52,-0.43 -7.02,0.78 -9.58,3.23c-8.64,8.23 -18.4,15.3 -29.01,20.96c-3.57,1.9 -5.86,5.55 -6.11,9.58l-1.3,20.74l6.44,25.55c10.96,3.06 20.02,11.75 23,23.57c4.5,17.87 -6.6,36 -24.7,40.03c-16.33,3.64 -33.08,-5.88 -38.27,-21.79c-4.04,-12.42 -0.33,-25.26 8.21,-33.65l-6.47,-25.7l-9.99,-16.06c-2.68,-4.31 -7.42,-6.86 -12.5,-6.85c-0.03,0 -0.05,0 -0.08,0c-8.75,0 -17.31,-0.87 -25.59,-2.5c-4.93,-0.98 -10.02,0.58 -13.48,4.23l-13.2,13.93l-14.78,30.66c3.46,7.03 3.77,15.52 0.11,23.13c-6.58,13.64 -23.36,19.06 -36.77,11.52c-11.48,-6.47 -16.45,-20.75 -11.45,-32.95c3.41,-8.32 10.48,-13.88 18.48,-15.74l14.87,-30.86l2.92,-20.71c0.53,-3.82 -0.93,-7.67 -3.93,-10.09c-11.83,-9.6 -21.97,-21.19 -29.9,-34.27c-1.97,-3.25 -5.51,-5.22 -9.31,-5.25l-20.68,-0.2l-22.64,7.12c-1.59,14.08 -11.23,26.59 -25.61,31.11c-19.32,6.08 -39.9,-4.54 -46.17,-23.74c-6.27,-19.19 4.32,-40.18 23.49,-46.52c13.42,-4.44 27.52,-0.75 37.06,8.32l24.03,-7.56l17.55,-12.51c2.61,-1.85 4,-4.95 3.74,-8.13c-0.29,-3.53 -0.44,-7.09 -0.44,-10.69c0,-19.56 4.3,-38.13 11.98,-54.83c1.12,-2.45 1.09,-5.27 -0.09,-7.69l-5.2,-10.63l-14.11,-10.65c-7.9,2.53 -16.85,1.32 -23.97,-4.05c-12.08,-9.12 -14.12,-26.61 -4.12,-38.28c8.61,-10.05 23.7,-12.11 34.69,-4.73c7,4.7 10.98,12.06 11.62,19.74l15.64,11.8l15.76,2.81c11.47,-10.65 24.84,-19.28 39.53,-25.33l3.7,-22.48l-4.67,-23.22c-13.82,-3.56 -25.04,-14.15 -28.06,-28.27c-4.26,-19.95 9.45,-39.38 30.63,-43.39c21.17,-4.01 41.79,8.9 46.05,28.85c3.19,14.93 -3.68,29.56 -16.22,37.66l4.41,21.9l10.83,17.28c0.71,1.13 1.95,1.81 3.28,1.81l0.02,0c24.8,0 48.02,6.9 67.85,18.88c1.09,0.65 2.43,0.74 3.58,0.2l16.96,-7.86l19.8,-21.42c-1.19,-7.68 1,-15.82 6.69,-21.97c10.28,-11.11 27.88,-11.39 38.5,-0.28c9.31,9.75 9.67,25.3 0.83,35.48c-5.72,6.59 -13.93,9.63 -21.95,9.03l-19.8,21.42l-6.43,17.3c-0.45,1.2 -0.25,2.54 0.5,3.58c7.81,10.72 14.04,22.66 18.34,35.48c1.19,3.52 3.99,6.26 7.57,7.27l16.1,4.51l20.92,-1.85c5.13,-14.79 17.94,-25.98 33.67,-27.56c21.63,-2.17 40.6,14.64 42.36,37.54z"/>
      </g>
     </g>
     <g stroke="null" id="svg_29">
      <g stroke="null" id="svg_36">
       <circle stroke="null" id="svg_37" r="97.519997" fill="#D7D5D5" cy="12987.427097" cx="-9341.82278"/>
      </g>
     </g>
     <path stroke="null" id="svg_38" fill="#E5E5E5" d="m-9409.61878,12987.427097c0,-48.807 35.852,-89.238 82.658,-96.395c-4.846,-0.741 -9.809,-1.125 -14.862,-1.125c-53.86,0 -97.52,43.66 -97.52,97.52s43.66,97.52 97.52,97.52c5.053,0 10.016,-0.384 14.862,-1.125c-46.805,-7.158 -82.658,-47.589 -82.658,-96.395z"/>
     <g stroke="null" id="svg_39" fill="#eb5569">
      <circle stroke="null" id="svg_40" fill="#F5F5F5" class="active-path" r="27.771002" cy="12782.365097" cx="-9505.90578"/>
      <circle stroke="null" id="svg_41" fill="#F5F5F5" class="active-path" r="18.343" cy="13148.430097" cx="-9513.49678"/>
      <circle stroke="null" id="svg_42" fill="#F5F5F5" class="active-path" r="27.018" cy="13178.562097" cx="-9176.70778"/>
      <circle stroke="null" id="svg_43" fill="#F5F5F5" class="active-path" r="25.189001" cy="12960.533097" cx="-9371.75678"/>
      <circle stroke="null" id="svg_44" fill="#F5F5F5" class="active-path" r="17.145" cy="13038.772097" cx="-9351.53678"/>
      <circle stroke="null" id="svg_45" fill="#F5F5F5" class="active-path" r="14.397" cy="12987.427097" cx="-9297.70078"/>
     </g>
    </g>
   </g>
  </g>
  <g stroke="null" opacity="0.15" transform="rotate(-16.544567108154297 1238.5014648437498,249.00013732910185) " id="svg_69">
   <g stroke="null" transform="matrix(1.2185655636089603,0,0,1.2003686033364496,-6491.465963225496,-138.99898280877863) " id="svg_55">
    <g stroke="null" id="svg_56">
     <g stroke="null" id="svg_53">
      <g stroke="null" id="svg_57">
       <path stroke="null" id="svg_58" class="active-path" fill="#F5F5F5" d="m6585.644016,302.986368c1.77,22.9 -14.34,43.23 -35.97,45.4c-16.56,1.66 -31.54,-7.81 -38.46,-22.6l-19.63,1.73l-14.82,7.15c-3.39,1.63 -5.67,4.87 -6.19,8.59c-1.4,10.03 -3.94,19.69 -7.47,28.87c-1.2,3.11 -0.99,6.58 0.64,9.48l5.28,9.44l14.68,9.85c7.74,-2.96 16.75,-2.25 24.16,2.72c12.56,8.43 15.57,25.78 6.23,37.99c-8.04,10.52 -22.99,13.41 -34.37,6.65c-7.25,-4.3 -11.63,-11.44 -12.7,-19.07l-16.27,-10.91l-10.24,-1.25c-3.52,-0.43 -7.02,0.78 -9.58,3.23c-8.64,8.23 -18.4,15.3 -29.01,20.96c-3.57,1.9 -5.86,5.55 -6.11,9.58l-1.3,20.74l6.44,25.55c10.96,3.06 20.02,11.75 23,23.57c4.5,17.87 -6.6,36 -24.7,40.03c-16.33,3.64 -33.08,-5.88 -38.27,-21.79c-4.04,-12.42 -0.33,-25.26 8.21,-33.65l-6.47,-25.7l-9.99,-16.06c-2.68,-4.31 -7.42,-6.86 -12.5,-6.85c-0.03,0 -0.05,0 -0.08,0c-8.75,0 -17.31,-0.87 -25.59,-2.5c-4.93,-0.98 -10.02,0.58 -13.48,4.23l-13.2,13.93l-14.78,30.66c3.46,7.03 3.77,15.52 0.11,23.13c-6.58,13.64 -23.36,19.06 -36.77,11.52c-11.48,-6.47 -16.45,-20.75 -11.45,-32.95c3.41,-8.32 10.48,-13.88 18.48,-15.74l14.87,-30.86l2.92,-20.71c0.53,-3.82 -0.93,-7.67 -3.93,-10.09c-11.83,-9.6 -21.97,-21.19 -29.9,-34.27c-1.97,-3.25 -5.51,-5.22 -9.31,-5.25l-20.68,-0.2l-22.64,7.12c-1.59,14.08 -11.23,26.59 -25.61,31.11c-19.32,6.08 -39.9,-4.54 -46.17,-23.74c-6.27,-19.19 4.32,-40.18 23.49,-46.52c13.42,-4.44 27.52,-0.75 37.06,8.32l24.03,-7.56l17.55,-12.51c2.61,-1.85 4,-4.95 3.74,-8.13c-0.29,-3.53 -0.44,-7.09 -0.44,-10.69c0,-19.56 4.3,-38.13 11.98,-54.83c1.12,-2.45 1.09,-5.27 -0.09,-7.69l-5.2,-10.63l-14.11,-10.65c-7.9,2.53 -16.85,1.32 -23.97,-4.05c-12.08,-9.12 -14.12,-26.61 -4.12,-38.28c8.61,-10.05 23.7,-12.11 34.69,-4.73c7,4.7 10.98,12.06 11.62,19.74l15.64,11.8l15.76,2.81c11.47,-10.65 24.84,-19.28 39.53,-25.33l3.7,-22.48l-4.67,-23.22c-13.82,-3.56 -25.04,-14.15 -28.06,-28.27c-4.26,-19.95 9.45,-39.38 30.63,-43.39c21.17,-4.01 41.79,8.9 46.05,28.85c3.19,14.93 -3.68,29.56 -16.22,37.66l4.41,21.9l10.83,17.28c0.71,1.13 1.95,1.81 3.28,1.81l0.02,0c24.8,0 48.02,6.9 67.85,18.88c1.09,0.65 2.43,0.74 3.58,0.2l16.96,-7.86l19.8,-21.42c-1.19,-7.68 1,-15.82 6.69,-21.97c10.28,-11.11 27.88,-11.39 38.5,-0.28c9.31,9.75 9.67,25.3 0.83,35.48c-5.72,6.59 -13.93,9.63 -21.95,9.03l-19.8,21.42l-6.43,17.3c-0.45,1.2 -0.25,2.54 0.5,3.58c7.81,10.72 14.04,22.66 18.34,35.48c1.19,3.52 3.99,6.26 7.57,7.27l16.1,4.51l20.92,-1.85c5.13,-14.79 17.94,-25.98 33.67,-27.56c21.63,-2.17 40.6,14.64 42.36,37.54z"/>
      </g>
     </g>
     <g stroke="null" id="svg_52">
      <g stroke="null" id="svg_59">
       <circle stroke="null" id="svg_60" r="97.519989" fill="#D7D5D5" cy="324.936368" cx="6340.154016"/>
      </g>
     </g>
     <path stroke="null" id="svg_61" fill="#E5E5E5" d="m6272.358016,324.936368c0,-48.807 35.852,-89.238 82.658,-96.395c-4.846,-0.741 -9.809,-1.125 -14.862,-1.125c-53.86,0 -97.52,43.66 -97.52,97.52s43.66,97.52 97.52,97.52c5.053,0 10.016,-0.384 14.862,-1.125c-46.805,-7.158 -82.658,-47.589 -82.658,-96.395z"/>
     <g stroke="null" id="svg_62" fill="#eb5569">
      <circle stroke="null" id="svg_63" fill="#F5F5F5" class="active-path" r="27.770996" cy="119.874368" cx="6176.071016"/>
      <circle stroke="null" id="svg_64" fill="#F5F5F5" class="active-path" r="18.342987" cy="485.939368" cx="6168.480016"/>
      <circle stroke="null" id="svg_65" fill="#F5F5F5" class="active-path" r="27.018005" cy="516.071368" cx="6505.269016"/>
      <circle stroke="null" id="svg_66" fill="#F5F5F5" class="active-path" r="25.188965" cy="298.042368" cx="6310.220016"/>
      <circle stroke="null" id="svg_67" fill="#F5F5F5" class="active-path" r="17.145004" cy="376.281368" cx="6330.440016"/>
      <circle stroke="null" id="svg_68" fill="#F5F5F5" class="active-path" r="14.396973" cy="324.936368" cx="6384.276016"/>
     </g>
    </g>
   </g>
  </g>
  <g stroke="null" opacity="0.15" transform="rotate(-36.236080169677734 137.5001525878906,108.5000839233398) " id="svg_92">
   <g stroke="null" transform="matrix(0.7258767431782297,0,0,0.7367182711076385,-514.5169810155528,-70.54488254068502) " id="svg_78">
    <g stroke="null" id="svg_79">
     <g stroke="null" id="svg_76">
      <g stroke="null" id="svg_80">
       <path stroke="null" id="svg_81" class="active-path" fill="#F5F5F5" d="m1140.394239,222.783492c1.77,22.9 -14.34,43.23 -35.97,45.4c-16.56,1.66 -31.54,-7.81 -38.46,-22.6l-19.63,1.73l-14.82,7.15c-3.39,1.63 -5.67,4.87 -6.19,8.59c-1.4,10.03 -3.94,19.69 -7.47,28.87c-1.2,3.11 -0.99,6.58 0.64,9.48l5.28,9.44l14.68,9.85c7.74,-2.96 16.75,-2.25 24.16,2.72c12.56,8.43 15.57,25.78 6.23,37.99c-8.04,10.52 -22.99,13.41 -34.37,6.65c-7.25,-4.3 -11.63,-11.44 -12.7,-19.07l-16.27,-10.91l-10.24,-1.25c-3.52,-0.43 -7.02,0.78 -9.58,3.23c-8.64,8.23 -18.4,15.3 -29.01,20.96c-3.57,1.9 -5.86,5.55 -6.11,9.58l-1.3,20.74l6.44,25.55c10.96,3.06 20.02,11.75 23,23.57c4.5,17.87 -6.6,36 -24.7,40.03c-16.33,3.64 -33.08,-5.88 -38.27,-21.79c-4.04,-12.42 -0.33,-25.26 8.21,-33.65l-6.47,-25.7l-9.99,-16.06c-2.68,-4.31 -7.42,-6.86 -12.5,-6.85c-0.03,0 -0.05,0 -0.08,0c-8.75,0 -17.31,-0.87 -25.59,-2.5c-4.93,-0.98 -10.02,0.58 -13.48,4.23l-13.2,13.93l-14.78,30.66c3.46,7.03 3.77,15.52 0.11,23.13c-6.58,13.64 -23.36,19.06 -36.77,11.52c-11.48,-6.47 -16.45,-20.75 -11.45,-32.95c3.41,-8.32 10.48,-13.88 18.48,-15.74l14.87,-30.86l2.92,-20.71c0.53,-3.82 -0.93,-7.67 -3.93,-10.09c-11.83,-9.6 -21.97,-21.19 -29.9,-34.27c-1.97,-3.25 -5.51,-5.22 -9.31,-5.25l-20.68,-0.2l-22.64,7.12c-1.59,14.08 -11.23,26.59 -25.61,31.11c-19.32,6.08 -39.9,-4.54 -46.17,-23.74c-6.27,-19.19 4.32,-40.18 23.49,-46.52c13.42,-4.44 27.52,-0.75 37.06,8.32l24.03,-7.56l17.55,-12.51c2.61,-1.85 4,-4.95 3.74,-8.13c-0.29,-3.53 -0.44,-7.09 -0.44,-10.69c0,-19.56 4.3,-38.13 11.98,-54.83c1.12,-2.45 1.09,-5.27 -0.09,-7.69l-5.2,-10.63l-14.11,-10.65c-7.9,2.53 -16.85,1.32 -23.97,-4.05c-12.08,-9.12 -14.12,-26.61 -4.12,-38.28c8.61,-10.05 23.7,-12.11 34.69,-4.73c7,4.7 10.98,12.06 11.62,19.74l15.64,11.8l15.76,2.81c11.47,-10.65 24.84,-19.28 39.53,-25.33l3.7,-22.48l-4.67,-23.22c-13.82,-3.56 -25.04,-14.15 -28.06,-28.27c-4.26,-19.95 9.45,-39.38 30.63,-43.39c21.17,-4.01 41.79,8.9 46.05,28.85c3.19,14.93 -3.68,29.56 -16.22,37.66l4.41,21.9l10.83,17.28c0.71,1.13 1.95,1.81 3.28,1.81l0.02,0c24.8,0 48.02,6.9 67.85,18.88c1.09,0.65 2.43,0.74 3.58,0.2l16.96,-7.86l19.8,-21.42c-1.19,-7.68 1,-15.82 6.69,-21.97c10.28,-11.11 27.88,-11.39 38.5,-0.28c9.31,9.75 9.67,25.3 0.83,35.48c-5.72,6.59 -13.93,9.63 -21.95,9.03l-19.8,21.42l-6.43,17.3c-0.45,1.2 -0.25,2.54 0.5,3.58c7.81,10.72 14.04,22.66 18.34,35.48c1.19,3.52 3.99,6.26 7.57,7.27l16.1,4.51l20.92,-1.85c5.13,-14.79 17.94,-25.98 33.67,-27.56c21.63,-2.17 40.6,14.64 42.36,37.54z"/>
      </g>
     </g>
     <g stroke="null" id="svg_75">
      <g stroke="null" id="svg_82">
       <circle stroke="null" id="svg_83" r="97.519989" fill="#D7D5D5" cy="244.733492" cx="894.904239"/>
      </g>
     </g>
     <path stroke="null" id="svg_84" fill="#E5E5E5" d="m827.108239,244.733492c0,-48.807 35.852,-89.238 82.658,-96.395c-4.846,-0.741 -9.809,-1.125 -14.862,-1.125c-53.86,0 -97.52,43.66 -97.52,97.52s43.66,97.52 97.52,97.52c5.053,0 10.016,-0.384 14.862,-1.125c-46.805,-7.158 -82.658,-47.589 -82.658,-96.395z"/>
     <g stroke="null" id="svg_85" fill="#eb5569">
      <circle stroke="null" id="svg_86" fill="#F5F5F5" class="active-path" r="27.770996" cy="39.671492" cx="730.821239"/>
      <circle stroke="null" id="svg_87" fill="#F5F5F5" class="active-path" r="18.342987" cy="405.736492" cx="723.230239"/>
      <circle stroke="null" id="svg_88" fill="#F5F5F5" class="active-path" r="27.018005" cy="435.868492" cx="1060.019239"/>
      <circle stroke="null" id="svg_89" fill="#F5F5F5" class="active-path" r="25.188995" cy="217.839492" cx="864.970239"/>
      <circle stroke="null" id="svg_90" fill="#F5F5F5" class="active-path" r="17.144989" cy="296.078492" cx="885.190239"/>
      <circle stroke="null" id="svg_91" fill="#F5F5F5" class="active-path" r="14.397003" cy="244.733492" cx="939.026239"/>
     </g>
    </g>
   </g>
  </g>
  <g stroke="null" opacity="0.35" id="svg_115">
   <g opacity="0.35" stroke="null" transform="rotate(5.960558891296387 930.5008544921848,715.500610351562) matrix(0.4479698465389348,0,0,0.4476863553419748,-1848.4203961673452,-1853.6423982953556) " id="svg_101">
    <g stroke="null" id="svg_102">
     <g stroke="null" id="svg_99">
      <g stroke="null" id="svg_103">
       <path stroke="null" id="svg_104" class="active-path" fill="#F5F5F5" d="m6445.513346,5718.464875c1.77,22.9 -14.34,43.23 -35.97,45.4c-16.56,1.66 -31.54,-7.81 -38.46,-22.6l-19.63,1.73l-14.82,7.15c-3.39,1.63 -5.67,4.87 -6.19,8.59c-1.4,10.03 -3.94,19.69 -7.47,28.87c-1.2,3.11 -0.99,6.58 0.64,9.48l5.28,9.44l14.68,9.85c7.74,-2.96 16.75,-2.25 24.16,2.72c12.56,8.43 15.57,25.78 6.23,37.99c-8.04,10.52 -22.99,13.41 -34.37,6.65c-7.25,-4.3 -11.63,-11.44 -12.7,-19.07l-16.27,-10.91l-10.24,-1.25c-3.52,-0.43 -7.02,0.78 -9.58,3.23c-8.64,8.23 -18.4,15.3 -29.01,20.96c-3.57,1.9 -5.86,5.55 -6.11,9.58l-1.3,20.74l6.44,25.55c10.96,3.06 20.02,11.75 23,23.57c4.5,17.87 -6.6,36 -24.7,40.03c-16.33,3.64 -33.08,-5.88 -38.27,-21.79c-4.04,-12.42 -0.33,-25.26 8.21,-33.65l-6.47,-25.7l-9.99,-16.06c-2.68,-4.31 -7.42,-6.86 -12.5,-6.85c-0.03,0 -0.05,0 -0.08,0c-8.75,0 -17.31,-0.87 -25.59,-2.5c-4.93,-0.98 -10.02,0.58 -13.48,4.23l-13.2,13.93l-14.78,30.66c3.46,7.03 3.77,15.52 0.11,23.13c-6.58,13.64 -23.36,19.06 -36.77,11.52c-11.48,-6.47 -16.45,-20.75 -11.45,-32.95c3.41,-8.32 10.48,-13.88 18.48,-15.74l14.87,-30.86l2.92,-20.71c0.53,-3.82 -0.93,-7.67 -3.93,-10.09c-11.83,-9.6 -21.97,-21.19 -29.9,-34.27c-1.97,-3.25 -5.51,-5.22 -9.31,-5.25l-20.68,-0.2l-22.64,7.12c-1.59,14.08 -11.23,26.59 -25.61,31.11c-19.32,6.08 -39.9,-4.54 -46.17,-23.74c-6.27,-19.19 4.32,-40.18 23.49,-46.52c13.42,-4.44 27.52,-0.75 37.06,8.32l24.03,-7.56l17.55,-12.51c2.61,-1.85 4,-4.95 3.74,-8.13c-0.29,-3.53 -0.44,-7.09 -0.44,-10.69c0,-19.56 4.3,-38.13 11.98,-54.83c1.12,-2.45 1.09,-5.27 -0.09,-7.69l-5.2,-10.63l-14.11,-10.65c-7.9,2.53 -16.85,1.32 -23.97,-4.05c-12.08,-9.12 -14.12,-26.61 -4.12,-38.28c8.61,-10.05 23.7,-12.11 34.69,-4.73c7,4.7 10.98,12.06 11.62,19.74l15.64,11.8l15.76,2.81c11.47,-10.65 24.84,-19.28 39.53,-25.33l3.7,-22.48l-4.67,-23.22c-13.82,-3.56 -25.04,-14.15 -28.06,-28.27c-4.26,-19.95 9.45,-39.38 30.63,-43.39c21.17,-4.01 41.79,8.9 46.05,28.85c3.19,14.93 -3.68,29.56 -16.22,37.66l4.41,21.9l10.83,17.28c0.71,1.13 1.95,1.81 3.28,1.81l0.02,0c24.8,0 48.02,6.9 67.85,18.88c1.09,0.65 2.43,0.74 3.58,0.2l16.96,-7.86l19.8,-21.42c-1.19,-7.68 1,-15.82 6.69,-21.97c10.28,-11.11 27.88,-11.39 38.5,-0.28c9.31,9.75 9.67,25.3 0.83,35.48c-5.72,6.59 -13.93,9.63 -21.95,9.03l-19.8,21.42l-6.43,17.3c-0.45,1.2 -0.25,2.54 0.5,3.58c7.81,10.72 14.04,22.66 18.34,35.48c1.19,3.52 3.99,6.26 7.57,7.27l16.1,4.51l20.92,-1.85c5.13,-14.79 17.94,-25.98 33.67,-27.56c21.63,-2.17 40.6,14.64 42.36,37.54z"/>
      </g>
     </g>
     <g stroke="null" id="svg_98">
      <g stroke="null" id="svg_105">
       <circle stroke="null" id="svg_106" r="97.52002" fill="#D7D5D5" cy="5740.414875" cx="6200.023346"/>
      </g>
     </g>
     <path stroke="null" id="svg_107" fill="#E5E5E5" d="m6132.227346,5740.414875c0,-48.807 35.852,-89.238 82.658,-96.395c-4.846,-0.741 -9.809,-1.125 -14.862,-1.125c-53.86,0 -97.52,43.66 -97.52,97.52s43.66,97.52 97.52,97.52c5.053,0 10.016,-0.384 14.862,-1.125c-46.805,-7.158 -82.658,-47.589 -82.658,-96.395z"/>
     <g stroke="null" id="svg_108" fill="#eb5569">
      <circle stroke="null" id="svg_109" fill="#F5F5F5" class="active-path" r="27.770996" cy="5535.352875" cx="6035.940346"/>
      <circle stroke="null" id="svg_110" fill="#F5F5F5" class="active-path" r="18.343018" cy="5901.417875" cx="6028.349346"/>
      <circle stroke="null" id="svg_111" fill="#F5F5F5" class="active-path" r="27.018066" cy="5931.549875" cx="6365.138346"/>
      <circle stroke="null" id="svg_112" fill="#F5F5F5" class="active-path" r="25.188965" cy="5713.520875" cx="6170.089346"/>
      <circle stroke="null" id="svg_113" fill="#F5F5F5" class="active-path" r="17.14502" cy="5791.759875" cx="6190.309346"/>
      <circle stroke="null" id="svg_114" fill="#F5F5F5" class="active-path" r="14.396973" cy="5740.414875" cx="6244.145346"/>
     </g>
    </g>
   </g>
  </g>
  <g opacity="0.15" stroke="null" id="svg_139">
   <g stroke="null" transform="matrix(0.6700707179816469,0,0,0.6549957601796618,-5669.5062356905755,-3015.0531536883836) " id="svg_125">
    <g stroke="null" id="svg_126">
     <g stroke="null" id="svg_123">
      <g stroke="null" id="svg_127">
       <path stroke="null" id="svg_128" class="active-path" fill="#F5F5F5" d="m9016.601813,5556.969937c1.77,22.9 -14.34,43.23 -35.97,45.4c-16.56,1.66 -31.54,-7.81 -38.46,-22.6l-19.63,1.73l-14.82,7.15c-3.39,1.63 -5.67,4.87 -6.19,8.59c-1.4,10.03 -3.94,19.69 -7.47,28.87c-1.2,3.11 -0.99,6.58 0.64,9.48l5.28,9.44l14.68,9.85c7.74,-2.96 16.75,-2.25 24.16,2.72c12.56,8.43 15.57,25.78 6.23,37.99c-8.04,10.52 -22.99,13.41 -34.37,6.65c-7.25,-4.3 -11.63,-11.44 -12.7,-19.07l-16.27,-10.91l-10.24,-1.25c-3.52,-0.43 -7.02,0.78 -9.58,3.23c-8.64,8.23 -18.4,15.3 -29.01,20.96c-3.57,1.9 -5.86,5.55 -6.11,9.58l-1.3,20.74l6.44,25.55c10.96,3.06 20.02,11.75 23,23.57c4.5,17.87 -6.6,36 -24.7,40.03c-16.33,3.64 -33.08,-5.88 -38.27,-21.79c-4.04,-12.42 -0.33,-25.26 8.21,-33.65l-6.47,-25.7l-9.99,-16.06c-2.68,-4.31 -7.42,-6.86 -12.5,-6.85c-0.03,0 -0.05,0 -0.08,0c-8.75,0 -17.31,-0.87 -25.59,-2.5c-4.93,-0.98 -10.02,0.58 -13.48,4.23l-13.2,13.93l-14.78,30.66c3.46,7.03 3.77,15.52 0.11,23.13c-6.58,13.64 -23.36,19.06 -36.77,11.52c-11.48,-6.47 -16.45,-20.75 -11.45,-32.95c3.41,-8.32 10.48,-13.88 18.48,-15.74l14.87,-30.86l2.92,-20.71c0.53,-3.82 -0.93,-7.67 -3.93,-10.09c-11.83,-9.6 -21.97,-21.19 -29.9,-34.27c-1.97,-3.25 -5.51,-5.22 -9.31,-5.25l-20.68,-0.2l-22.64,7.12c-1.59,14.08 -11.23,26.59 -25.61,31.11c-19.32,6.08 -39.9,-4.54 -46.17,-23.74c-6.27,-19.19 4.32,-40.18 23.49,-46.52c13.42,-4.44 27.52,-0.75 37.06,8.32l24.03,-7.56l17.55,-12.51c2.61,-1.85 4,-4.95 3.74,-8.13c-0.29,-3.53 -0.44,-7.09 -0.44,-10.69c0,-19.56 4.3,-38.13 11.98,-54.83c1.12,-2.45 1.09,-5.27 -0.09,-7.69l-5.2,-10.63l-14.11,-10.65c-7.9,2.53 -16.85,1.32 -23.97,-4.05c-12.08,-9.12 -14.12,-26.61 -4.12,-38.28c8.61,-10.05 23.7,-12.11 34.69,-4.73c7,4.7 10.98,12.06 11.62,19.74l15.64,11.8l15.76,2.81c11.47,-10.65 24.84,-19.28 39.53,-25.33l3.7,-22.48l-4.67,-23.22c-13.82,-3.56 -25.04,-14.15 -28.06,-28.27c-4.26,-19.95 9.45,-39.38 30.63,-43.39c21.17,-4.01 41.79,8.9 46.05,28.85c3.19,14.93 -3.68,29.56 -16.22,37.66l4.41,21.9l10.83,17.28c0.71,1.13 1.95,1.81 3.28,1.81l0.02,0c24.8,0 48.02,6.9 67.85,18.88c1.09,0.65 2.43,0.74 3.58,0.2l16.96,-7.86l19.8,-21.42c-1.19,-7.68 1,-15.82 6.69,-21.97c10.28,-11.11 27.88,-11.39 38.5,-0.28c9.31,9.75 9.67,25.3 0.83,35.48c-5.72,6.59 -13.93,9.63 -21.95,9.03l-19.8,21.42l-6.43,17.3c-0.45,1.2 -0.25,2.54 0.5,3.58c7.81,10.72 14.04,22.66 18.34,35.48c1.19,3.52 3.99,6.26 7.57,7.27l16.1,4.51l20.92,-1.85c5.13,-14.79 17.94,-25.98 33.67,-27.56c21.63,-2.17 40.6,14.64 42.36,37.54z"/>
      </g>
     </g>
     <g stroke="null" id="svg_122">
      <g stroke="null" id="svg_129">
       <circle stroke="null" id="svg_130" r="97.519997" fill="#D7D5D5" cy="5578.919937" cx="8771.111813"/>
      </g>
     </g>
     <path stroke="null" id="svg_131" fill="#E5E5E5" d="m8703.315813,5578.919937c0,-48.807 35.852,-89.238 82.658,-96.395c-4.846,-0.741 -9.809,-1.125 -14.862,-1.125c-53.86,0 -97.52,43.66 -97.52,97.52s43.66,97.52 97.52,97.52c5.053,0 10.016,-0.384 14.862,-1.125c-46.805,-7.158 -82.658,-47.589 -82.658,-96.395z"/>
     <g stroke="null" id="svg_132" fill="#eb5569">
      <circle stroke="null" id="svg_133" fill="#F5F5F5" class="active-path" r="27.771002" cy="5373.857937" cx="8607.028813"/>
      <circle stroke="null" id="svg_134" fill="#F5F5F5" class="active-path" r="18.343" cy="5739.922937" cx="8599.437813"/>
      <circle stroke="null" id="svg_135" fill="#F5F5F5" class="active-path" r="27.018" cy="5770.054937" cx="8936.226813"/>
      <circle stroke="null" id="svg_136" fill="#F5F5F5" class="active-path" r="25.189001" cy="5552.025937" cx="8741.177813"/>
      <circle stroke="null" id="svg_137" fill="#F5F5F5" class="active-path" r="17.145" cy="5630.264937" cx="8761.397813"/>
      <circle stroke="null" id="svg_138" fill="#F5F5F5" class="active-path" r="14.397" cy="5578.919937" cx="8815.233813"/>
     </g>
    </g>
   </g>
  </g>
  <g transform="rotate(2.9372711181640625 593.9997558593756,332.999755859375) " opacity="0.75" stroke="null" id="svg_162">
   <g opacity="0.2" stroke="null" transform="rotate(2.9372711181640625 593.9996948242197,332.99978637695204) matrix(0.27442415812086923,0,0,0.2460840058103569,-1882.8384273604306,-845.7574971574918) " id="svg_148">
    <g stroke="null" id="svg_149">
     <g stroke="null" id="svg_146">
      <g stroke="null" id="svg_150">
       <path stroke="null" id="svg_151" class="active-path" fill="#F5F5F5" d="m9267.730287,4769.813692c1.77,22.9 -14.34,43.23 -35.97,45.4c-16.56,1.66 -31.54,-7.81 -38.46,-22.6l-19.63,1.73l-14.82,7.15c-3.39,1.63 -5.67,4.87 -6.19,8.59c-1.4,10.03 -3.94,19.69 -7.47,28.87c-1.2,3.11 -0.99,6.58 0.64,9.48l5.28,9.44l14.68,9.85c7.74,-2.96 16.75,-2.25 24.16,2.72c12.56,8.43 15.57,25.78 6.23,37.99c-8.04,10.52 -22.99,13.41 -34.37,6.65c-7.25,-4.3 -11.63,-11.44 -12.7,-19.07l-16.27,-10.91l-10.24,-1.25c-3.52,-0.43 -7.02,0.78 -9.58,3.23c-8.64,8.23 -18.4,15.3 -29.01,20.96c-3.57,1.9 -5.86,5.55 -6.11,9.58l-1.3,20.74l6.44,25.55c10.96,3.06 20.02,11.75 23,23.57c4.5,17.87 -6.6,36 -24.7,40.03c-16.33,3.64 -33.08,-5.88 -38.27,-21.79c-4.04,-12.42 -0.33,-25.26 8.21,-33.65l-6.47,-25.7l-9.99,-16.06c-2.68,-4.31 -7.42,-6.86 -12.5,-6.85c-0.03,0 -0.05,0 -0.08,0c-8.75,0 -17.31,-0.87 -25.59,-2.5c-4.93,-0.98 -10.02,0.58 -13.48,4.23l-13.2,13.93l-14.78,30.66c3.46,7.03 3.77,15.52 0.11,23.13c-6.58,13.64 -23.36,19.06 -36.77,11.52c-11.48,-6.47 -16.45,-20.75 -11.45,-32.95c3.41,-8.32 10.48,-13.88 18.48,-15.74l14.87,-30.86l2.92,-20.71c0.53,-3.82 -0.93,-7.67 -3.93,-10.09c-11.83,-9.6 -21.97,-21.19 -29.9,-34.27c-1.97,-3.25 -5.51,-5.22 -9.31,-5.25l-20.68,-0.2l-22.64,7.12c-1.59,14.08 -11.23,26.59 -25.61,31.11c-19.32,6.08 -39.9,-4.54 -46.17,-23.74c-6.27,-19.19 4.32,-40.18 23.49,-46.52c13.42,-4.44 27.52,-0.75 37.06,8.32l24.03,-7.56l17.55,-12.51c2.61,-1.85 4,-4.95 3.74,-8.13c-0.29,-3.53 -0.44,-7.09 -0.44,-10.69c0,-19.56 4.3,-38.13 11.98,-54.83c1.12,-2.45 1.09,-5.27 -0.09,-7.69l-5.2,-10.63l-14.11,-10.65c-7.9,2.53 -16.85,1.32 -23.97,-4.05c-12.08,-9.12 -14.12,-26.61 -4.12,-38.28c8.61,-10.05 23.7,-12.11 34.69,-4.73c7,4.7 10.98,12.06 11.62,19.74l15.64,11.8l15.76,2.81c11.47,-10.65 24.84,-19.28 39.53,-25.33l3.7,-22.48l-4.67,-23.22c-13.82,-3.56 -25.04,-14.15 -28.06,-28.27c-4.26,-19.95 9.45,-39.38 30.63,-43.39c21.17,-4.01 41.79,8.9 46.05,28.85c3.19,14.93 -3.68,29.56 -16.22,37.66l4.41,21.9l10.83,17.28c0.71,1.13 1.95,1.81 3.28,1.81l0.02,0c24.8,0 48.02,6.9 67.85,18.88c1.09,0.65 2.43,0.74 3.58,0.2l16.96,-7.86l19.8,-21.42c-1.19,-7.68 1,-15.82 6.69,-21.97c10.28,-11.11 27.88,-11.39 38.5,-0.28c9.31,9.75 9.67,25.3 0.83,35.48c-5.72,6.59 -13.93,9.63 -21.95,9.03l-19.8,21.42l-6.43,17.3c-0.45,1.2 -0.25,2.54 0.5,3.58c7.81,10.72 14.04,22.66 18.34,35.48c1.19,3.52 3.99,6.26 7.57,7.27l16.1,4.51l20.92,-1.85c5.13,-14.79 17.94,-25.98 33.67,-27.56c21.63,-2.17 40.6,14.64 42.36,37.54z"/>
      </g>
     </g>
     <g stroke="null" id="svg_145">
      <g stroke="null" id="svg_152">
       <circle stroke="null" id="svg_153" r="97.52002" fill="#D7D5D5" cy="4791.763692" cx="9022.240287"/>
      </g>
     </g>
     <path stroke="null" id="svg_154" fill="#E5E5E5" d="m8954.444287,4791.763692c0,-48.807 35.852,-89.238 82.658,-96.395c-4.846,-0.741 -9.809,-1.125 -14.862,-1.125c-53.86,0 -97.52,43.66 -97.52,97.52s43.66,97.52 97.52,97.52c5.053,0 10.016,-0.384 14.862,-1.125c-46.805,-7.158 -82.658,-47.589 -82.658,-96.395z"/>
     <g stroke="null" id="svg_155" fill="#eb5569">
      <circle stroke="null" id="svg_156" fill="#F5F5F5" class="active-path" r="27.770996" cy="4586.701692" cx="8858.157287"/>
      <circle stroke="null" id="svg_157" fill="#F5F5F5" class="active-path" r="18.342773" cy="4952.766692" cx="8850.566287"/>
      <circle stroke="null" id="svg_158" fill="#F5F5F5" class="active-path" r="27.018066" cy="4982.898692" cx="9187.355287"/>
      <circle stroke="null" id="svg_159" fill="#F5F5F5" class="active-path" r="25.188965" cy="4764.869692" cx="8992.306287"/>
      <circle stroke="null" id="svg_160" fill="#F5F5F5" class="active-path" r="17.14502" cy="4843.108692" cx="9012.526287"/>
      <circle stroke="null" id="svg_161" fill="#F5F5F5" class="active-path" r="14.396973" cy="4791.763692" cx="9066.362287"/>
     </g>
    </g>
   </g>
  </g>
  <g opacity="0.2" stroke="null" id="svg_185">
   <g stroke="null" transform="matrix(0.2243040862309379,0,0,0.19325040298773072,-1435.8537437502528,-592.9334001761817) " id="svg_171">
    <g stroke="null" id="svg_172">
     <g stroke="null" id="svg_169">
      <g stroke="null" id="svg_173">
       <path stroke="null" id="svg_174" class="active-path" fill="#F5F5F5" d="m9746.448095,3089.360148c1.77,22.9 -14.34,43.23 -35.97,45.4c-16.56,1.66 -31.54,-7.81 -38.46,-22.6l-19.63,1.73l-14.82,7.15c-3.39,1.63 -5.67,4.87 -6.19,8.59c-1.4,10.03 -3.94,19.69 -7.47,28.87c-1.2,3.11 -0.99,6.58 0.64,9.48l5.28,9.44l14.68,9.85c7.74,-2.96 16.75,-2.25 24.16,2.72c12.56,8.43 15.57,25.78 6.23,37.99c-8.04,10.52 -22.99,13.41 -34.37,6.65c-7.25,-4.3 -11.63,-11.44 -12.7,-19.07l-16.27,-10.91l-10.24,-1.25c-3.52,-0.43 -7.02,0.78 -9.58,3.23c-8.64,8.23 -18.4,15.3 -29.01,20.96c-3.57,1.9 -5.86,5.55 -6.11,9.58l-1.3,20.74l6.44,25.55c10.96,3.06 20.02,11.75 23,23.57c4.5,17.87 -6.6,36 -24.7,40.03c-16.33,3.64 -33.08,-5.88 -38.27,-21.79c-4.04,-12.42 -0.33,-25.26 8.21,-33.65l-6.47,-25.7l-9.99,-16.06c-2.68,-4.31 -7.42,-6.86 -12.5,-6.85c-0.03,0 -0.05,0 -0.08,0c-8.75,0 -17.31,-0.87 -25.59,-2.5c-4.93,-0.98 -10.02,0.58 -13.48,4.23l-13.2,13.93l-14.78,30.66c3.46,7.03 3.77,15.52 0.11,23.13c-6.58,13.64 -23.36,19.06 -36.77,11.52c-11.48,-6.47 -16.45,-20.75 -11.45,-32.95c3.41,-8.32 10.48,-13.88 18.48,-15.74l14.87,-30.86l2.92,-20.71c0.53,-3.82 -0.93,-7.67 -3.93,-10.09c-11.83,-9.6 -21.97,-21.19 -29.9,-34.27c-1.97,-3.25 -5.51,-5.22 -9.31,-5.25l-20.68,-0.2l-22.64,7.12c-1.59,14.08 -11.23,26.59 -25.61,31.11c-19.32,6.08 -39.9,-4.54 -46.17,-23.74c-6.27,-19.19 4.32,-40.18 23.49,-46.52c13.42,-4.44 27.52,-0.75 37.06,8.32l24.03,-7.56l17.55,-12.51c2.61,-1.85 4,-4.95 3.74,-8.13c-0.29,-3.53 -0.44,-7.09 -0.44,-10.69c0,-19.56 4.3,-38.13 11.98,-54.83c1.12,-2.45 1.09,-5.27 -0.09,-7.69l-5.2,-10.63l-14.11,-10.65c-7.9,2.53 -16.85,1.32 -23.97,-4.05c-12.08,-9.12 -14.12,-26.61 -4.12,-38.28c8.61,-10.05 23.7,-12.11 34.69,-4.73c7,4.7 10.98,12.06 11.62,19.74l15.64,11.8l15.76,2.81c11.47,-10.65 24.84,-19.28 39.53,-25.33l3.7,-22.48l-4.67,-23.22c-13.82,-3.56 -25.04,-14.15 -28.06,-28.27c-4.26,-19.95 9.45,-39.38 30.63,-43.39c21.17,-4.01 41.79,8.9 46.05,28.85c3.19,14.93 -3.68,29.56 -16.22,37.66l4.41,21.9l10.83,17.28c0.71,1.13 1.95,1.81 3.28,1.81l0.02,0c24.8,0 48.02,6.9 67.85,18.88c1.09,0.65 2.43,0.74 3.58,0.2l16.96,-7.86l19.8,-21.42c-1.19,-7.68 1,-15.82 6.69,-21.97c10.28,-11.11 27.88,-11.39 38.5,-0.28c9.31,9.75 9.67,25.3 0.83,35.48c-5.72,6.59 -13.93,9.63 -21.95,9.03l-19.8,21.42l-6.43,17.3c-0.45,1.2 -0.25,2.54 0.5,3.58c7.81,10.72 14.04,22.66 18.34,35.48c1.19,3.52 3.99,6.26 7.57,7.27l16.1,4.51l20.92,-1.85c5.13,-14.79 17.94,-25.98 33.67,-27.56c21.63,-2.17 40.6,14.64 42.36,37.54z"/>
      </g>
     </g>
     <g stroke="null" id="svg_168">
      <g stroke="null" id="svg_175">
       <circle stroke="null" id="svg_176" r="97.519997" fill="#D7D5D5" cy="3111.310148" cx="9500.958095"/>
      </g>
     </g>
     <path stroke="null" id="svg_177" fill="#E5E5E5" d="m9433.162095,3111.310148c0,-48.807 35.852,-89.238 82.658,-96.395c-4.846,-0.741 -9.809,-1.125 -14.862,-1.125c-53.86,0 -97.52,43.66 -97.52,97.52s43.66,97.52 97.52,97.52c5.053,0 10.016,-0.384 14.862,-1.125c-46.805,-7.158 -82.658,-47.589 -82.658,-96.395z"/>
     <g stroke="null" id="svg_178" fill="#eb5569">
      <circle stroke="null" id="svg_179" fill="#F5F5F5" class="active-path" r="27.771002" cy="2906.248148" cx="9336.875095"/>
      <circle stroke="null" id="svg_180" fill="#F5F5F5" class="active-path" r="18.343" cy="3272.313148" cx="9329.284095"/>
      <circle stroke="null" id="svg_181" fill="#F5F5F5" class="active-path" r="27.018" cy="3302.445148" cx="9666.073095"/>
      <circle stroke="null" id="svg_182" fill="#F5F5F5" class="active-path" r="25.189001" cy="3084.416148" cx="9471.024095"/>
      <circle stroke="null" id="svg_183" fill="#F5F5F5" class="active-path" r="17.145" cy="3162.655148" cx="9491.244095"/>
      <circle stroke="null" id="svg_184" fill="#F5F5F5" class="active-path" r="14.397" cy="3111.310148" cx="9545.080095"/>
     </g>
    </g>
   </g>
  </g>
  <g opacity="0.2" stroke="null" id="svg_208">
   <g stroke="null" transform="matrix(0.12111737880774408,0,0,0.13028512780361312,-289.791441441095,-223.762294802817) " id="svg_194">
    <g stroke="null" id="svg_195">
     <g stroke="null" id="svg_192">
      <g stroke="null" id="svg_196">
       <path stroke="null" id="svg_197" class="active-path" fill="#F5F5F5" d="m13756.245824,7016.340495c1.77,22.9 -14.34,43.23 -35.97,45.4c-16.56,1.66 -31.54,-7.81 -38.46,-22.6l-19.63,1.73l-14.82,7.15c-3.39,1.63 -5.67,4.87 -6.19,8.59c-1.4,10.03 -3.94,19.69 -7.47,28.87c-1.2,3.11 -0.99,6.58 0.64,9.48l5.28,9.44l14.68,9.85c7.74,-2.96 16.75,-2.25 24.16,2.72c12.56,8.43 15.57,25.78 6.23,37.99c-8.04,10.52 -22.99,13.41 -34.37,6.65c-7.25,-4.3 -11.63,-11.44 -12.7,-19.07l-16.27,-10.91l-10.24,-1.25c-3.52,-0.43 -7.02,0.78 -9.58,3.23c-8.64,8.23 -18.4,15.3 -29.01,20.96c-3.57,1.9 -5.86,5.55 -6.11,9.58l-1.3,20.74l6.44,25.55c10.96,3.06 20.02,11.75 23,23.57c4.5,17.87 -6.6,36 -24.7,40.03c-16.33,3.64 -33.08,-5.88 -38.27,-21.79c-4.04,-12.42 -0.33,-25.26 8.21,-33.65l-6.47,-25.7l-9.99,-16.06c-2.68,-4.31 -7.42,-6.86 -12.5,-6.85c-0.03,0 -0.05,0 -0.08,0c-8.75,0 -17.31,-0.87 -25.59,-2.5c-4.93,-0.98 -10.02,0.58 -13.48,4.23l-13.2,13.93l-14.78,30.66c3.46,7.03 3.77,15.52 0.11,23.13c-6.58,13.64 -23.36,19.06 -36.77,11.52c-11.48,-6.47 -16.45,-20.75 -11.45,-32.95c3.41,-8.32 10.48,-13.88 18.48,-15.74l14.87,-30.86l2.92,-20.71c0.53,-3.82 -0.93,-7.67 -3.93,-10.09c-11.83,-9.6 -21.97,-21.19 -29.9,-34.27c-1.97,-3.25 -5.51,-5.22 -9.31,-5.25l-20.68,-0.2l-22.64,7.12c-1.59,14.08 -11.23,26.59 -25.61,31.11c-19.32,6.08 -39.9,-4.54 -46.17,-23.74c-6.27,-19.19 4.32,-40.18 23.49,-46.52c13.42,-4.44 27.52,-0.75 37.06,8.32l24.03,-7.56l17.55,-12.51c2.61,-1.85 4,-4.95 3.74,-8.13c-0.29,-3.53 -0.44,-7.09 -0.44,-10.69c0,-19.56 4.3,-38.13 11.98,-54.83c1.12,-2.45 1.09,-5.27 -0.09,-7.69l-5.2,-10.63l-14.11,-10.65c-7.9,2.53 -16.85,1.32 -23.97,-4.05c-12.08,-9.12 -14.12,-26.61 -4.12,-38.28c8.61,-10.05 23.7,-12.11 34.69,-4.73c7,4.7 10.98,12.06 11.62,19.74l15.64,11.8l15.76,2.81c11.47,-10.65 24.84,-19.28 39.53,-25.33l3.7,-22.48l-4.67,-23.22c-13.82,-3.56 -25.04,-14.15 -28.06,-28.27c-4.26,-19.95 9.45,-39.38 30.63,-43.39c21.17,-4.01 41.79,8.9 46.05,28.85c3.19,14.93 -3.68,29.56 -16.22,37.66l4.41,21.9l10.83,17.28c0.71,1.13 1.95,1.81 3.28,1.81l0.02,0c24.8,0 48.02,6.9 67.85,18.88c1.09,0.65 2.43,0.74 3.58,0.2l16.96,-7.86l19.8,-21.42c-1.19,-7.68 1,-15.82 6.69,-21.97c10.28,-11.11 27.88,-11.39 38.5,-0.28c9.31,9.75 9.67,25.3 0.83,35.48c-5.72,6.59 -13.93,9.63 -21.95,9.03l-19.8,21.42l-6.43,17.3c-0.45,1.2 -0.25,2.54 0.5,3.58c7.81,10.72 14.04,22.66 18.34,35.48c1.19,3.52 3.99,6.26 7.57,7.27l16.1,4.51l20.92,-1.85c5.13,-14.79 17.94,-25.98 33.67,-27.56c21.63,-2.17 40.6,14.64 42.36,37.54z"/>
      </g>
     </g>
     <g stroke="null" id="svg_191">
      <g stroke="null" id="svg_198">
       <circle stroke="null" id="svg_199" r="97.519997" fill="#D7D5D5" cy="7038.290495" cx="13510.755824"/>
      </g>
     </g>
     <path stroke="null" id="svg_200" fill="#E5E5E5" d="m13442.959824,7038.290495c0,-48.807 35.852,-89.238 82.658,-96.395c-4.846,-0.741 -9.809,-1.125 -14.862,-1.125c-53.86,0 -97.52,43.66 -97.52,97.52s43.66,97.52 97.52,97.52c5.053,0 10.016,-0.384 14.862,-1.125c-46.805,-7.158 -82.658,-47.589 -82.658,-96.395z"/>
     <g stroke="null" id="svg_201" fill="#eb5569">
      <circle stroke="null" id="svg_202" fill="#F5F5F5" class="active-path" r="27.771002" cy="6833.228495" cx="13346.672824"/>
      <circle stroke="null" id="svg_203" fill="#F5F5F5" class="active-path" r="18.343" cy="7199.293495" cx="13339.081824"/>
      <circle stroke="null" id="svg_204" fill="#F5F5F5" class="active-path" r="27.018" cy="7229.425495" cx="13675.870824"/>
      <circle stroke="null" id="svg_205" fill="#F5F5F5" class="active-path" r="25.189001" cy="7011.396495" cx="13480.821824"/>
      <circle stroke="null" id="svg_206" fill="#F5F5F5" class="active-path" r="17.145" cy="7089.635495" cx="13501.041824"/>
      <circle stroke="null" id="svg_207" fill="#F5F5F5" class="active-path" r="14.397" cy="7038.290495" cx="13554.877824"/>
     </g>
    </g>
   </g>
  </g>
 </g>
</svg>