<svg width="1500" height="800" xmlns="http://www.w3.org/2000/svg">
 <!-- Created with Method Draw - http://github.com/duopixel/Method-Draw/ -->

 <g>
  <title>background</title>
  <rect fill="#006bc6" id="canvas_background" height="802" width="1502" y="-1" x="-1"/>
 </g>
 <g>
  <title>Layer 1</title>
  <g opacity="0.15" stroke="null" id="svg_23">
   <g stroke="null" transform="matrix(0.9342314670141995,0,0,0.9152531599601348,-8353.808850299472,-4200.703338399982) " id="svg_9">
    <g stroke="null" id="svg_10">
     <g stroke="null" id="svg_7">
      <g stroke="null" id="svg_11">
        <animateTransform
      attributeName="transform"
      dur="15s"
      type="rotate"
      from="-2 500 480"
      to="2 500 520"
      repeatCount="indefinite" />
       <path stroke="null" id="svg_12" fill="#000000" d="m10569.147973,4781.377853c1.77,22.9 -14.34,43.23 -35.97,45.4c-16.56,1.66 -31.54,-7.81 -38.46,-22.6l-19.63,1.73l-14.82,7.15c-3.39,1.63 -5.67,4.87 -6.19,8.59c-1.4,10.03 -3.94,19.69 -7.47,28.87c-1.2,3.11 -0.99,6.58 0.64,9.48l5.28,9.44l14.68,9.85c7.74,-2.96 16.75,-2.25 24.16,2.72c12.56,8.43 15.57,25.78 6.23,37.99c-8.04,10.52 -22.99,13.41 -34.37,6.65c-7.25,-4.3 -11.63,-11.44 -12.7,-19.07l-16.27,-10.91l-10.24,-1.25c-3.52,-0.43 -7.02,0.78 -9.58,3.23c-8.64,8.23 -18.4,15.3 -29.01,20.96c-3.57,1.9 -5.86,5.55 -6.11,9.58l-1.3,20.74l6.44,25.55c10.96,3.06 20.02,11.75 23,23.57c4.5,17.87 -6.6,36 -24.7,40.03c-16.33,3.64 -33.08,-5.88 -38.27,-21.79c-4.04,-12.42 -0.33,-25.26 8.21,-33.65l-6.47,-25.7l-9.99,-16.06c-2.68,-4.31 -7.42,-6.86 -12.5,-6.85c-0.03,0 -0.05,0 -0.08,0c-8.75,0 -17.31,-0.87 -25.59,-2.5c-4.93,-0.98 -10.02,0.58 -13.48,4.23l-13.2,13.93l-14.78,30.66c3.46,7.03 3.77,15.52 0.11,23.13c-6.58,13.64 -23.36,19.06 -36.77,11.52c-11.48,-6.47 -16.45,-20.75 -11.45,-32.95c3.41,-8.32 10.48,-13.88 18.48,-15.74l14.87,-30.86l2.92,-20.71c0.53,-3.82 -0.93,-7.67 -3.93,-10.09c-11.83,-9.6 -21.97,-21.19 -29.9,-34.27c-1.97,-3.25 -5.51,-5.22 -9.31,-5.25l-20.68,-0.2l-22.64,7.12c-1.59,14.08 -11.23,26.59 -25.61,31.11c-19.32,6.08 -39.9,-4.54 -46.17,-23.74c-6.27,-19.19 4.32,-40.18 23.49,-46.52c13.42,-4.44 27.52,-0.75 37.06,8.32l24.03,-7.56l17.55,-12.51c2.61,-1.85 4,-4.95 3.74,-8.13c-0.29,-3.53 -0.44,-7.09 -0.44,-10.69c0,-19.56 4.3,-38.13 11.98,-54.83c1.12,-2.45 1.09,-5.27 -0.09,-7.69l-5.2,-10.63l-14.11,-10.65c-7.9,2.53 -16.85,1.32 -23.97,-4.05c-12.08,-9.12 -14.12,-26.61 -4.12,-38.28c8.61,-10.05 23.7,-12.11 34.69,-4.73c7,4.7 10.98,12.06 11.62,19.74l15.64,11.8l15.76,2.81c11.47,-10.65 24.84,-19.28 39.53,-25.33l3.7,-22.48l-4.67,-23.22c-13.82,-3.56 -25.04,-14.15 -28.06,-28.27c-4.26,-19.95 9.45,-39.38 30.63,-43.39c21.17,-4.01 41.79,8.9 46.05,28.85c3.19,14.93 -3.68,29.56 -16.22,37.66l4.41,21.9l10.83,17.28c0.71,1.13 1.95,1.81 3.28,1.81l0.02,0c24.8,0 48.02,6.9 67.85,18.88c1.09,0.65 2.43,0.74 3.58,0.2l16.96,-7.86l19.8,-21.42c-1.19,-7.68 1,-15.82 6.69,-21.97c10.28,-11.11 27.88,-11.39 38.5,-0.28c9.31,9.75 9.67,25.3 0.83,35.48c-5.72,6.59 -13.93,9.63 -21.95,9.03l-19.8,21.42l-6.43,17.3c-0.45,1.2 -0.25,2.54 0.5,3.58c7.81,10.72 14.04,22.66 18.34,35.48c1.19,3.52 3.99,6.26 7.57,7.27l16.1,4.51l20.92,-1.85c5.13,-14.79 17.94,-25.98 33.67,-27.56c21.63,-2.17 40.6,14.64 42.36,37.54z"/>
      </g>
     </g>
     <g stroke="null" id="svg_6">
      <g stroke="null" id="svg_13">
        <animateTransform
      attributeName="transform"
      dur="15s"
      type="rotate"
      from="-2 500 480"
      to="2 500 520"
      repeatCount="indefinite" />
       <circle stroke="null" id="svg_14" r="97.519997" fill="#494949" cy="4803.327853" cx="10323.657973"/>
      </g>
     </g>
     <path stroke="null" id="svg_15" class="active-path" fill="#737373" d="m10255.861973,4803.327853c0,-48.807 35.852,-89.238 82.658,-96.395c-4.846,-0.741 -9.809,-1.125 -14.862,-1.125c-53.86,0 -97.52,43.66 -97.52,97.52s43.66,97.52 97.52,97.52c5.053,0 10.016,-0.384 14.862,-1.125c-46.805,-7.158 -82.658,-47.589 -82.658,-96.395z">
<animateTransform
      attributeName="transform"
      dur="15s"
      type="rotate"
      from="-2 500 480"
      to="2 500 520"
      repeatCount="indefinite" />
     </path>
     <g stroke="null" id="svg_16" fill="#eb5569">
      <animate
      attributeName="opacity"
      dur="1s"
      values="0;1;0"
      repeatCount="indefinite"
      begin="0.1"/>  
      <animateTransform
      attributeName="transform"
      dur="15s"
      type="rotate"
      from="-2 50 48"
      to="2 50 52"
      repeatCount="indefinite" />
      <circle stroke="null" id="svg_17" fill="#000000" r="27.771002" cy="4598.265853" cx="10159.574973"/>
      <circle stroke="null" id="svg_18" fill="#000000" r="18.343" cy="4964.330853" cx="10151.983973"/>
      <circle stroke="null" id="svg_19" fill="#000000" r="27.018" cy="4994.462853" cx="10488.772973"/>
      <circle stroke="null" id="svg_20" fill="#000000" r="25.189001" cy="4776.433853" cx="10293.723973"/>
      <circle stroke="null" id="svg_21" fill="#000000" r="17.145" cy="4854.672853" cx="10313.943973"/>
      <circle stroke="null" id="svg_22" fill="#000000" r="14.397" cy="4803.327853" cx="10367.779973"/>
     </g>
    </g>
   </g>
  </g>
  <g id="svg_46">
   <g id="svg_32">
    <g id="svg_33">
     <g id="svg_30">
      <g id="svg_34">
        <animate
      attributeName="opacity"
      dur="1s"
      values="0;1;0"
      repeatCount="indefinite"
      begin="0.1"/>  
       <path id="svg_35" fill="#000000" d="m26129953.441625,14148119.681437c1.77,22.9 -14.34,43.23 -35.97,45.4c-16.56,1.66 -31.54,-7.81 -38.46,-22.6l-19.63,1.73l-14.82,7.15c-3.39,1.63 -5.67,4.87 -6.19,8.59c-1.4,10.03 -3.94,19.69 -7.47,28.87c-1.2,3.11 -0.99,6.58 0.64,9.48l5.28,9.44l14.68,9.85c7.74,-2.96 16.75,-2.25 24.16,2.72c12.56,8.43 15.57,25.78 6.23,37.99c-8.04,10.52 -22.99,13.41 -34.37,6.65c-7.25,-4.3 -11.63,-11.44 -12.7,-19.07l-16.27,-10.91l-10.24,-1.25c-3.52,-0.43 -7.02,0.78 -9.58,3.23c-8.64,8.23 -18.4,15.3 -29.01,20.96c-3.57,1.9 -5.86,5.55 -6.11,9.58l-1.3,20.74l6.44,25.55c10.96,3.06 20.02,11.75 23,23.57c4.5,17.87 -6.6,36 -24.7,40.03c-16.33,3.64 -33.08,-5.88 -38.27,-21.79c-4.04,-12.42 -0.33,-25.26 8.21,-33.65l-6.47,-25.7l-9.99,-16.06c-2.68,-4.31 -7.42,-6.86 -12.5,-6.85c-0.03,0 -0.05,0 -0.08,0c-8.75,0 -17.31,-0.87 -25.59,-2.5c-4.93,-0.98 -10.02,0.58 -13.48,4.23l-13.2,13.93l-14.78,30.66c3.46,7.03 3.77,15.52 0.11,23.13c-6.58,13.64 -23.36,19.06 -36.77,11.52c-11.48,-6.47 -16.45,-20.75 -11.45,-32.95c3.41,-8.32 10.48,-13.88 18.48,-15.74l14.87,-30.86l2.92,-20.71c0.53,-3.82 -0.93,-7.67 -3.93,-10.09c-11.83,-9.6 -21.97,-21.19 -29.9,-34.27c-1.97,-3.25 -5.51,-5.22 -9.31,-5.25l-20.68,-0.2l-22.64,7.12c-1.59,14.08 -11.23,26.59 -25.61,31.11c-19.32,6.08 -39.9,-4.54 -46.17,-23.74c-6.27,-19.19 4.32,-40.18 23.49,-46.52c13.42,-4.44 27.52,-0.75 37.06,8.32l24.03,-7.56l17.55,-12.51c2.61,-1.85 4,-4.95 3.74,-8.13c-0.29,-3.53 -0.44,-7.09 -0.44,-10.69c0,-19.56 4.3,-38.13 11.98,-54.83c1.12,-2.45 1.09,-5.27 -0.09,-7.69l-5.2,-10.63l-14.11,-10.65c-7.9,2.53 -16.85,1.32 -23.97,-4.05c-12.08,-9.12 -14.12,-26.61 -4.12,-38.28c8.61,-10.05 23.7,-12.11 34.69,-4.73c7,4.7 10.98,12.06 11.62,19.74l15.64,11.8l15.76,2.81c11.47,-10.65 24.84,-19.28 39.53,-25.33l3.7,-22.48l-4.67,-23.22c-13.82,-3.56 -25.04,-14.15 -28.06,-28.27c-4.26,-19.95 9.45,-39.38 30.63,-43.39c21.17,-4.01 41.79,8.9 46.05,28.85c3.19,14.93 -3.68,29.56 -16.22,37.66l4.41,21.9l10.83,17.28c0.71,1.13 1.95,1.81 3.28,1.81l0.02,0c24.8,0 48.02,6.9 67.85,18.88c1.09,0.65 2.43,0.74 3.58,0.2l16.96,-7.86l19.8,-21.42c-1.19,-7.68 1,-15.82 6.69,-21.97c10.28,-11.11 27.88,-11.39 38.5,-0.28c9.31,9.75 9.67,25.3 0.83,35.48c-5.72,6.59 -13.93,9.63 -21.95,9.03l-19.8,21.42l-6.43,17.3c-0.45,1.2 -0.25,2.54 0.5,3.58c7.81,10.72 14.04,22.66 18.34,35.48c1.19,3.52 3.99,6.26 7.57,7.27l16.1,4.51l20.92,-1.85c5.13,-14.79 17.94,-25.98 33.67,-27.56c21.63,-2.17 40.6,14.64 42.36,37.54z"/>
      </g>
     </g>
     <g id="svg_29">
      <g id="svg_36">
       <circle id="svg_37" r="97.519997" fill="#494949" cy="14148141.631437" cx="26129707.951625"/>
      </g>
     </g>
     <path id="svg_38" class="active-path" fill="#737373" d="m26129640.155625,14148141.631437c0,-48.807 35.852,-89.238 82.658,-96.395c-4.846,-0.741 -9.809,-1.125 -14.862,-1.125c-53.86,0 -97.52,43.66 -97.52,97.52s43.66,97.52 97.52,97.52c5.053,0 10.016,-0.384 14.862,-1.125c-46.805,-7.158 -82.658,-47.589 -82.658,-96.395z"/>
     <g id="svg_39" fill="#eb5569">
      <animate
      attributeName="opacity"
      dur="1s"
      values="0;1;0"
      repeatCount="indefinite"
      begin="0.1"/>  
      <circle id="svg_40" fill="#000000" r="27.771002" cy="14147936.569438" cx="26129543.868625"/>
      <circle id="svg_41" fill="#000000" r="18.343" cy="14148302.634437" cx="26129536.277625"/>
      <circle id="svg_42" fill="#000000" r="27.018" cy="14148332.766438" cx="26129873.066625"/>
      <circle id="svg_43" fill="#000000" r="25.189001" cy="14148114.737437" cx="26129678.017625"/>
      <circle id="svg_44" fill="#000000" r="17.145" cy="14148192.976437" cx="26129698.237625"/>
      <circle id="svg_45" fill="#000000" r="14.397" cy="14148141.631437" cx="26129752.073625"/>
     </g>
    </g>
   </g>
  </g>
  <g opacity="0.15" stroke="null" id="svg_63">
   <g stroke="null" id="svg_62">
    <g stroke="null" id="svg_61">
     <g stroke="null" id="svg_49">
      <g stroke="null" id="svg_48">

       <path stroke="null" id="svg_47" fill="#000000" d="m10189.146874,5101.378799c1.77,22.9 -14.34,43.23 -35.97,45.4c-16.56,1.66 -31.54,-7.81 -38.46,-22.6l-19.63,1.73l-14.82,7.15c-3.39,1.63 -5.67,4.87 -6.19,8.59c-1.4,10.03 -3.94,19.69 -7.47,28.87c-1.2,3.11 -0.99,6.58 0.64,9.48l5.28,9.44l14.68,9.85c7.74,-2.96 16.75,-2.25 24.16,2.72c12.56,8.43 15.57,25.78 6.23,37.99c-8.04,10.52 -22.99,13.41 -34.37,6.65c-7.25,-4.3 -11.63,-11.44 -12.7,-19.07l-16.27,-10.91l-10.24,-1.25c-3.52,-0.43 -7.02,0.78 -9.58,3.23c-8.64,8.23 -18.4,15.3 -29.01,20.96c-3.57,1.9 -5.86,5.55 -6.11,9.58l-1.3,20.74l6.44,25.55c10.96,3.06 20.02,11.75 23,23.57c4.5,17.87 -6.6,36 -24.7,40.03c-16.33,3.64 -33.08,-5.88 -38.27,-21.79c-4.04,-12.42 -0.33,-25.26 8.21,-33.65l-6.47,-25.7l-9.99,-16.06c-2.68,-4.31 -7.42,-6.86 -12.5,-6.85c-0.03,0 -0.05,0 -0.08,0c-8.75,0 -17.31,-0.87 -25.59,-2.5c-4.93,-0.98 -10.02,0.58 -13.48,4.23l-13.2,13.93l-14.78,30.66c3.46,7.03 3.77,15.52 0.11,23.13c-6.58,13.64 -23.36,19.06 -36.77,11.52c-11.48,-6.47 -16.45,-20.75 -11.45,-32.95c3.41,-8.32 10.48,-13.88 18.48,-15.74l14.87,-30.86l2.92,-20.71c0.53,-3.82 -0.93,-7.67 -3.93,-10.09c-11.83,-9.6 -21.97,-21.19 -29.9,-34.27c-1.97,-3.25 -5.51,-5.22 -9.31,-5.25l-20.68,-0.2l-22.64,7.12c-1.59,14.08 -11.23,26.59 -25.61,31.11c-19.32,6.08 -39.9,-4.54 -46.17,-23.74c-6.27,-19.19 4.32,-40.18 23.49,-46.52c13.42,-4.44 27.52,-0.75 37.06,8.32l24.03,-7.56l17.55,-12.51c2.61,-1.85 4,-4.95 3.74,-8.13c-0.29,-3.53 -0.44,-7.09 -0.44,-10.69c0,-19.56 4.3,-38.13 11.98,-54.83c1.12,-2.45 1.09,-5.27 -0.09,-7.69l-5.2,-10.63l-14.11,-10.65c-7.9,2.53 -16.85,1.32 -23.97,-4.05c-12.08,-9.12 -14.12,-26.61 -4.12,-38.28c8.61,-10.05 23.7,-12.11 34.69,-4.73c7,4.7 10.98,12.06 11.62,19.74l15.64,11.8l15.76,2.81c11.47,-10.65 24.84,-19.28 39.53,-25.33l3.7,-22.48l-4.67,-23.22c-13.82,-3.56 -25.04,-14.15 -28.06,-28.27c-4.26,-19.95 9.45,-39.38 30.63,-43.39c21.17,-4.01 41.79,8.9 46.05,28.85c3.19,14.93 -3.68,29.56 -16.22,37.66l4.41,21.9l10.83,17.28c0.71,1.13 1.95,1.81 3.28,1.81l0.02,0c24.8,0 48.02,6.9 67.85,18.88c1.09,0.65 2.43,0.74 3.58,0.2l16.96,-7.86l19.8,-21.42c-1.19,-7.68 1,-15.82 6.69,-21.97c10.28,-11.11 27.88,-11.39 38.5,-0.28c9.31,9.75 9.67,25.3 0.83,35.48c-5.72,6.59 -13.93,9.63 -21.95,9.03l-19.8,21.42l-6.43,17.3c-0.45,1.2 -0.25,2.54 0.5,3.58c7.81,10.72 14.04,22.66 18.34,35.48c1.19,3.52 3.99,6.26 7.57,7.27l16.1,4.51l20.92,-1.85c5.13,-14.79 17.94,-25.98 33.67,-27.56c21.63,-2.17 40.6,14.64 42.36,37.54z"/>
      </g>
     </g>
     <g stroke="null" id="svg_52">
      <g stroke="null" id="svg_51">
       <circle stroke="null" id="svg_50" r="97.519997" fill="#494949" cy="5123.328799" cx="9943.656875"/>
      </g>
     </g>
     <path stroke="null" id="svg_53" class="active-path" fill="#737373" d="m9875.860874,5123.328799c0,-48.807 35.852,-89.238 82.658,-96.395c-4.846,-0.741 -9.809,-1.125 -14.862,-1.125c-53.86,0 -97.52,43.66 -97.52,97.52s43.66,97.52 97.52,97.52c5.053,0 10.016,-0.384 14.862,-1.125c-46.805,-7.158 -82.658,-47.589 -82.658,-96.395z"/>
     <g stroke="null" id="svg_60" fill="#eb5569">
      <animate
      attributeName="opacity"
      dur="1s"
      values="0;1;0"
      repeatCount="indefinite"
      begin="0.1"/>  
      <circle stroke="null" id="svg_54" fill="#000000" r="27.771002" cy="4918.266799" cx="9779.573875"/>
      <circle stroke="null" id="svg_55" fill="#000000" r="18.343" cy="5230.916421" cx="9840.141008"/>
      <circle stroke="null" id="svg_56" fill="#000000" r="27.018" cy="5314.463799" cx="10108.771875"/>
      <circle stroke="null" id="svg_57" fill="#000000" r="25.189001" cy="5096.434799" cx="9913.722875"/>
      <circle stroke="null" id="svg_58" fill="#000000" r="17.145" cy="5174.673799" cx="9933.942875"/>
      <circle stroke="null" id="svg_59" fill="#000000" r="14.397" cy="5123.328799" cx="9987.778875"/>
     </g>
    </g>
   </g>
  </g>
  <g opacity="0.15" stroke="null" transform="rotate(-100.56624603271484 141.37071228027347,561.7716064453125) " id="svg_72">
   <g stroke="null" id="svg_73">
    <g stroke="null" id="svg_70">
     <g stroke="null" id="svg_74">
      <path stroke="null" id="svg_75" fill="#000000" d="m308.558182,547.199317c1.222077,16.4817 -9.900899,31.113708 -24.8351,32.675511c-11.433674,1.194743 -21.776454,-5.621051 -26.554293,-16.265783l-13.553322,1.245124l-10.23231,5.146033c-2.340589,1.173152 -3.914791,3.50506 -4.273819,6.182437c-0.966615,7.218841 -2.720331,14.171383 -5.157581,20.778458c-0.828527,2.238344 -0.683535,4.73579 0.441881,6.822992l3.645519,6.794203l10.135648,7.08929c5.344,-2.130386 11.564857,-1.619381 16.681012,1.957652c8.671917,6.067281 10.750139,18.554508 4.301436,27.342349c-5.551132,7.571506 -15.873198,9.651511 -23.730397,4.786171c-5.005685,-3.094817 -8.029808,-8.233653 -8.768578,-13.725154l-11.233447,-7.852199l-7.070098,-0.899656c-2.430346,-0.309482 -4.846884,0.561385 -6.614408,2.324711c-5.965395,5.923336 -12.704082,11.011791 -20.029642,15.085434c-2.464868,1.367477 -4.045974,3.994473 -4.218584,6.894965l-0.897571,14.927094l4.446429,18.388971c7.567214,2.202358 13.822594,8.456768 15.880103,16.963916c3.106977,12.861484 -4.556899,25.910096 -17.053849,28.810588c-11.274873,2.619799 -22.83973,-4.231982 -26.42311,-15.682806c-2.789375,-8.938983 -0.227845,-18.180251 5.668506,-24.218743l-4.467142,-18.49693l-6.897488,-11.558782c-1.850377,-3.102014 -5.123059,-4.937313 -8.630491,-4.930116c-0.020713,0 -0.034522,0 -0.055235,0c-6.041343,0 -11.951503,-0.626161 -17.66834,-1.799312c-3.403865,-0.70533 -6.918201,0.41744 -9.307121,3.044436l-9.113798,10.025768l-10.204692,22.066766c2.38892,5.059666 2.602956,11.17013 0.075948,16.647237c-4.54309,9.817048 -16.128661,13.717957 -25.387451,8.291231c-7.926243,-4.65662 -11.357726,-14.934292 -7.905529,-23.714936c2.354398,-5.988111 7.235803,-9.989782 12.759317,-11.32847l10.266832,-22.21071l2.016083,-14.905503c0.365933,-2.749349 -0.642108,-5.52029 -2.713426,-7.262024c-8.167896,-6.909359 -15.16895,-15.250971 -20.644133,-24.664972c-1.360165,-2.339106 -3.80432,-3.756964 -6.427989,-3.778556l-14.278284,-0.143945l-15.631545,5.124441c-1.097798,10.133727 -7.753633,19.137485 -17.682149,22.390642c-13.339286,4.375927 -27.548526,-3.267551 -31.87758,-17.086269c-4.329054,-13.811521 2.982698,-28.918547 16.218418,-33.481602c9.265695,-3.195579 19.000888,-0.539794 25.587678,5.988111l16.591255,-5.44112l12.117209,-9.003759c1.802046,-1.331491 2.761757,-3.562638 2.582243,-5.851363c-0.200227,-2.540629 -0.303793,-5.10285 -0.303793,-7.693859c0,-14.077819 2.968889,-27.443111 8.271462,-39.462516c0.773292,-1.763326 0.752579,-3.79295 -0.06214,-5.534684l-3.590284,-7.650676l-9.742098,-7.66507c-5.45447,1.820904 -11.633901,0.950037 -16.549829,-2.914886c-8.340506,-6.563891 -9.749002,-19.15188 -2.84461,-27.551069c5.944682,-7.233235 16.36341,-8.715869 23.951337,-3.404299c4.833075,3.382707 7.581023,8.679882 8.022904,14.20737l10.79847,8.492754l10.881323,2.022427c7.919338,-7.66507 17.150511,-13.876296 27.293063,-18.230632l2.554625,-16.179416l-3.224351,-16.712012c-9.54187,-2.562221 -17.288599,-10.184107 -19.373725,-20.346623c-2.941271,-14.358512 6.524651,-28.342767 21.148154,-31.228864c14.616599,-2.886097 28.853456,6.405552 31.794727,20.764063c2.202501,10.745493 -2.540816,21.275068 -11.198925,27.10484l3.044837,15.761975l7.477457,12.436846c0.490212,0.813289 1.346357,1.302702 2.264641,1.302702l0.013809,0c17.122893,0 33.154893,4.966102 46.846303,13.588406c0.752579,0.467821 1.677767,0.532596 2.471772,0.143945l11.70985,-5.657038l13.670697,-15.416507c-0.821623,-5.527487 0.690439,-11.386048 4.619039,-15.812356c7.097715,-7.996144 19.249446,-8.197667 26.581911,-0.201523c6.427989,7.017318 6.676547,18.20904 0.573065,25.53584c-3.949312,4.742987 -9.617819,6.930951 -15.155141,6.499116l-13.670697,15.416507l-4.439524,12.451241c-0.310698,0.86367 -0.17261,1.828101 0.34522,2.576615c5.392331,7.715451 9.693767,16.308966 12.662656,25.53584c0.821623,2.533432 2.754853,4.505478 5.226625,5.2324l11.116072,3.245959l14.443989,-1.331491c3.541953,-10.644731 12.38648,-18.698453 23.247089,-19.835618c14.934201,-1.561803 28.031833,10.536773 29.247006,27.018473z"/>
     </g>
    </g>
    <g stroke="null" id="svg_69">
     <g stroke="null" id="svg_76">
      <circle stroke="null" id="svg_77" r="63.153946" fill="#494949" cy="562.997279" cx="139.062252"/>
     </g>
    </g>
    <path stroke="null" id="svg_78" class="active-path" fill="#737373" d="m92.253233,562.997279c0,-35.127613 24.753628,-64.226811 57.070327,-69.377882c-3.345869,-0.533316 -6.772519,-0.809691 -10.261308,-0.809691c-37.187058,0 -67.331635,31.423189 -67.331635,70.187572s30.144577,70.187572 67.331635,70.187572c3.48879,0 6.915439,-0.276374 10.261308,-0.809691c-32.316009,-5.151791 -57.070327,-34.250988 -57.070327,-69.377882z"/>
    <g stroke="null" id="svg_79" fill="#eb5569">
     <circle stroke="null" id="svg_80" fill="#000000" r="17.984497" cy="415.409051" cx="25.772909"/>
     <circle stroke="null" id="svg_81" fill="#000000" r="11.878906" cy="678.875147" cx="20.531785"/>
     <circle stroke="null" id="svg_82" fill="#000000" r="17.496857" cy="700.561898" cx="253.064128"/>
     <circle stroke="null" id="svg_83" fill="#000000" r="16.312378" cy="543.640997" cx="118.394643"/>
     <circle stroke="null" id="svg_84" fill="#000000" r="11.103088" cy="599.951554" cx="132.355325"/>
     <circle stroke="null" id="svg_85" fill="#000000" r="9.323502" cy="562.997279" cx="169.525812"/>
    </g>
   </g>
  </g>
  <g opacity="0.1" stroke="null" id="svg_140">
   <g stroke="null" id="svg_141">
    <g stroke="null" id="svg_142">
     <g stroke="null" id="svg_139">
      <g stroke="null" id="svg_143">
       <path stroke="null" id="svg_144" fill="#000000" d="m996.507604,739.698053c0.703377,8.577069 -5.69855,16.191559 -14.294061,17.00432c-6.580752,0.621744 -12.53363,-2.925193 -15.283558,-8.464706l-7.800734,0.647962l-5.889296,2.677993c-1.347147,0.610508 -2.253192,1.824032 -2.459834,3.217337c-0.556344,3.756681 -1.56571,7.374781 -2.968491,10.8131c-0.476866,1.164833 -0.393415,2.464503 0.254329,3.550682l2.098211,3.5357l5.833662,3.689263c3.075786,-1.108652 6.656256,-0.842725 9.600904,1.018761c4.991198,3.15741 6.187337,9.655757 2.47573,14.228946c-3.195003,3.940208 -9.135959,5.022642 -13.658239,2.490721c-2.881066,-1.610541 -4.621627,-4.284789 -5.046833,-7.142564l-6.465509,-4.086281l-4.069257,-0.468181c-1.398807,-0.161054 -2.789667,0.292145 -3.806981,1.209779c-3.433436,3.082501 -7.311947,5.730531 -11.528237,7.850453c-1.418677,0.711635 -2.328696,2.078722 -2.428043,3.588136l-0.516605,7.768053l2.559181,9.569612c4.355377,1.146106 7.955716,4.400898 9.139933,8.828014c1.788248,6.69311 -2.622763,13.483602 -9.815493,14.993016c-6.489353,1.363342 -13.145608,-2.202322 -15.208054,-8.161325c-1.605449,-4.651843 -0.131138,-9.460994 3.262559,-12.603422l-2.571103,-9.625794l-3.96991,-6.015185c-1.065001,-1.614287 -2.948622,-2.569375 -4.967355,-2.56563c-0.011922,0 -0.019869,0 -0.031791,0c-3.477148,0 -6.878793,-0.325854 -10.169169,-0.936361c-1.959125,-0.367054 -3.981832,0.217236 -5.356796,1.584323l-5.245527,5.217405l-5.873401,11.483534c1.374964,2.633048 1.498154,5.812931 0.043713,8.663214c-2.614816,5.108787 -9.282993,7.138818 -14.611971,4.314753c-4.562019,-2.423303 -6.537039,-7.771798 -4.550097,-12.341241c1.355094,-3.11621 4.16463,-5.198678 7.343738,-5.89533l5.909165,-11.558443l1.160374,-7.756817c0.210616,-1.43076 -0.369571,-2.872756 -1.561736,-3.779154c-4.701105,-3.595627 -8.730623,-7.936598 -11.881913,-12.83564c-0.782855,-1.21727 -2.18961,-1.955122 -3.699686,-1.966359l-8.217992,-0.074909l-8.996873,2.666757c-0.631848,5.273587 -4.462672,9.959138 -10.177117,11.652079c-7.677544,2.277231 -15.855797,-1.700432 -18.347422,-8.891686c-2.491625,-7.187509 1.716718,-15.049198 9.334653,-17.42381c5.332952,-1.662978 10.936129,-0.280908 14.727214,3.11621l9.549243,-2.831556l6.974166,-4.685552c1.037184,-0.692907 1.589554,-1.853995 1.486233,-3.045047c-0.115243,-1.322142 -0.174851,-2.655521 -0.174851,-4.003881c0,-7.32609 1.70877,-14.281382 4.760713,-20.536275c0.445075,-0.917634 0.433153,-1.97385 -0.035765,-2.880247l-2.06642,-3.981408l-5.60715,-3.988899c-3.139368,0.947598 -6.695995,0.494399 -9.5254,-1.516905c-4.800452,-3.415846 -5.611124,-9.966629 -1.63724,-14.337564c3.421514,-3.764172 9.418105,-4.535734 13.785404,-1.771595c2.781719,1.760359 4.363325,4.517007 4.617653,7.393508l6.215155,4.419625l6.262841,1.05247c4.558045,-3.988899 9.871128,-7.221218 15.708763,-9.487212l1.470337,-8.41976l-1.855804,-8.696923c-5.491908,-1.333378 -9.950606,-5.299805 -11.150718,-10.588373c-1.692875,-7.472163 3.75532,-14.749562 12.172007,-16.251486c8.412712,-1.501923 16.606861,3.333446 18.299736,10.805609c1.267669,5.591949 -1.462389,11.071535 -6.44564,14.105346l1.752483,8.202525l4.303716,6.472129c0.282146,0.423235 0.774907,0.677926 1.303434,0.677926l0.007948,0c9.855232,0 19.082591,2.584357 26.962803,7.0714c0.433153,0.243454 0.965654,0.277163 1.42265,0.074909l6.739707,-2.94392l7.86829,-8.022743c-0.472892,-2.876502 0.397388,-5.925294 2.658528,-8.228743c4.085153,-4.161189 11.079189,-4.266062 15.299453,-0.104872c3.699686,3.651809 3.842746,9.475976 0.329832,13.288839c-2.273062,2.468248 -5.53562,3.606864 -8.722675,3.382137l-7.86829,8.022743l-2.555207,6.47962c-0.178825,0.449453 -0.099347,0.951343 0.198694,1.340869c3.103603,4.015117 5.579333,8.487178 7.288103,13.288839c0.472892,1.318397 1.58558,2.344649 3.00823,2.722939l6.397953,1.689196l8.313365,-0.692907c2.038602,-5.539513 7.129148,-9.730666 13.380067,-10.322446c8.595511,-0.812762 16.133969,5.483331 16.833373,14.060401z"/>
      </g>
     </g>
     <g stroke="null" id="svg_138">
      <g stroke="null" id="svg_145">
       <circle stroke="null" id="svg_146" r="36.525581" fill="#494949" cy="747.919305" cx="898.952726"/>
      </g>
     </g>
     <path stroke="null" id="svg_147" class="active-path" fill="#737373" d="m872.011382,747.919305c0,-18.280393 14.247169,-33.423602 32.84733,-36.104217c-1.925744,-0.277537 -3.897983,-0.421363 -5.905986,-0.421363c-21.403339,0 -38.753317,16.352613 -38.753317,36.52558s17.349977,36.52558 38.753317,36.52558c2.008004,0 3.980242,-0.143825 5.905986,-0.421363c-18.599764,-2.68099 -32.84733,-17.824198 -32.84733,-36.104217z"/>
     <g stroke="null" id="svg_148" fill="#eb5569">
      <animate
      attributeName="opacity"
      dur="1s"
      values="0;1;0"
      repeatCount="indefinite"
      begin="0.1"/>  
      <circle stroke="null" id="svg_149" fill="#000000" r="10.401477" cy="671.11446" cx="833.748045"/>
      <circle stroke="null" id="svg_150" fill="#000000" r="6.870265" cy="808.222093" cx="830.73147"/>
      <circle stroke="null" id="svg_151" fill="#000000" r="10.119445" cy="819.507868" cx="964.567511"/>
      <circle stroke="null" id="svg_152" fill="#000000" r="9.4344" cy="737.846305" cx="887.057302"/>
      <circle stroke="null" id="svg_153" fill="#000000" r="6.421567" cy="767.150292" cx="895.092495"/>
      <circle stroke="null" id="svg_154" fill="#000000" r="5.392318" cy="747.919305" cx="916.486297"/>
     </g>
    </g>
   </g>
  </g>
  <g opacity="0" stroke="null" id="svg_172">
   <g stroke="null" transform="matrix(0.9342314670141995,0,0,0.9152531599601348,-8353.808850299472,-4200.703338399982) " id="svg_171">
    <g stroke="null" id="svg_170">
     <g stroke="null" id="svg_158">
      <g stroke="null" id="svg_157">
       <path stroke="null" id="svg_156" fill="#000000" d="m10569.147973,4781.377853c1.77,22.9 -14.34,43.23 -35.97,45.4c-16.56,1.66 -31.54,-7.81 -38.46,-22.6l-19.63,1.73l-14.82,7.15c-3.39,1.63 -5.67,4.87 -6.19,8.59c-1.4,10.03 -3.94,19.69 -7.47,28.87c-1.2,3.11 -0.99,6.58 0.64,9.48l5.28,9.44l14.68,9.85c7.74,-2.96 16.75,-2.25 24.16,2.72c12.56,8.43 15.57,25.78 6.23,37.99c-8.04,10.52 -22.99,13.41 -34.37,6.65c-7.25,-4.3 -11.63,-11.44 -12.7,-19.07l-16.27,-10.91l-10.24,-1.25c-3.52,-0.43 -7.02,0.78 -9.58,3.23c-8.64,8.23 -18.4,15.3 -29.01,20.96c-3.57,1.9 -5.86,5.55 -6.11,9.58l-1.3,20.74l6.44,25.55c10.96,3.06 20.02,11.75 23,23.57c4.5,17.87 -6.6,36 -24.7,40.03c-16.33,3.64 -33.08,-5.88 -38.27,-21.79c-4.04,-12.42 -0.33,-25.26 8.21,-33.65l-6.47,-25.7l-9.99,-16.06c-2.68,-4.31 -7.42,-6.86 -12.5,-6.85c-0.03,0 -0.05,0 -0.08,0c-8.75,0 -17.31,-0.87 -25.59,-2.5c-4.93,-0.98 -10.02,0.58 -13.48,4.23l-13.2,13.93l-14.78,30.66c3.46,7.03 3.77,15.52 0.11,23.13c-6.58,13.64 -23.36,19.06 -36.77,11.52c-11.48,-6.47 -16.45,-20.75 -11.45,-32.95c3.41,-8.32 10.48,-13.88 18.48,-15.74l14.87,-30.86l2.92,-20.71c0.53,-3.82 -0.93,-7.67 -3.93,-10.09c-11.83,-9.6 -21.97,-21.19 -29.9,-34.27c-1.97,-3.25 -5.51,-5.22 -9.31,-5.25l-20.68,-0.2l-22.64,7.12c-1.59,14.08 -11.23,26.59 -25.61,31.11c-19.32,6.08 -39.9,-4.54 -46.17,-23.74c-6.27,-19.19 4.32,-40.18 23.49,-46.52c13.42,-4.44 27.52,-0.75 37.06,8.32l24.03,-7.56l17.55,-12.51c2.61,-1.85 4,-4.95 3.74,-8.13c-0.29,-3.53 -0.44,-7.09 -0.44,-10.69c0,-19.56 4.3,-38.13 11.98,-54.83c1.12,-2.45 1.09,-5.27 -0.09,-7.69l-5.2,-10.63l-14.11,-10.65c-7.9,2.53 -16.85,1.32 -23.97,-4.05c-12.08,-9.12 -14.12,-26.61 -4.12,-38.28c8.61,-10.05 23.7,-12.11 34.69,-4.73c7,4.7 10.98,12.06 11.62,19.74l15.64,11.8l15.76,2.81c11.47,-10.65 24.84,-19.28 39.53,-25.33l3.7,-22.48l-4.67,-23.22c-13.82,-3.56 -25.04,-14.15 -28.06,-28.27c-4.26,-19.95 9.45,-39.38 30.63,-43.39c21.17,-4.01 41.79,8.9 46.05,28.85c3.19,14.93 -3.68,29.56 -16.22,37.66l4.41,21.9l10.83,17.28c0.71,1.13 1.95,1.81 3.28,1.81l0.02,0c24.8,0 48.02,6.9 67.85,18.88c1.09,0.65 2.43,0.74 3.58,0.2l16.96,-7.86l19.8,-21.42c-1.19,-7.68 1,-15.82 6.69,-21.97c10.28,-11.11 27.88,-11.39 38.5,-0.28c9.31,9.75 9.67,25.3 0.83,35.48c-5.72,6.59 -13.93,9.63 -21.95,9.03l-19.8,21.42l-6.43,17.3c-0.45,1.2 -0.25,2.54 0.5,3.58c7.81,10.72 14.04,22.66 18.34,35.48c1.19,3.52 3.99,6.26 7.57,7.27l16.1,4.51l20.92,-1.85c5.13,-14.79 17.94,-25.98 33.67,-27.56c21.63,-2.17 40.6,14.64 42.36,37.54z"/>
      </g>
     </g>
     <g stroke="null" id="svg_161">
      <g stroke="null" id="svg_160">
       <circle stroke="null" id="svg_159" r="97.519997" fill="#494949" cy="4803.327853" cx="10323.657973"/>
      </g>
     </g>
     <path stroke="null" id="svg_162" class="active-path" fill="#737373" d="m10255.861973,4803.327853c0,-48.807 35.852,-89.238 82.658,-96.395c-4.846,-0.741 -9.809,-1.125 -14.862,-1.125c-53.86,0 -97.52,43.66 -97.52,97.52s43.66,97.52 97.52,97.52c5.053,0 10.016,-0.384 14.862,-1.125c-46.805,-7.158 -82.658,-47.589 -82.658,-96.395z"/>
     <g stroke="null" id="svg_169" fill="#eb5569">
      <animate
      attributeName="opacity"
      dur="1s"
      values="0;1;0"
      repeatCount="indefinite"
      begin="0.1"/>  
      <circle stroke="null" id="svg_163" fill="#000000" r="27.771002" cy="4598.265853" cx="10159.574973"/>
      <circle stroke="null" id="svg_164" fill="#000000" r="18.343" cy="4964.330853" cx="10151.983973"/>
      <circle stroke="null" id="svg_165" fill="#000000" r="27.018" cy="4994.462853" cx="10488.772973"/>
      <circle stroke="null" id="svg_166" fill="#000000" r="25.189001" cy="4776.433853" cx="10293.723973"/>
      <circle stroke="null" id="svg_167" fill="#000000" r="17.145" cy="4854.672853" cx="10313.943973"/>
      <circle stroke="null" id="svg_168" fill="#000000" r="14.397" cy="4803.327853" cx="10367.779973"/>
     </g>
    </g>
   </g>
  </g>
  <g opacity="0.15" stroke="null" transform="rotate(-36.436058044433594 452.60235595703125,82.77978515624994) " id="svg_195">
   <g stroke="null" id="svg_181">
    <g stroke="null" id="svg_182">
     <g stroke="null" id="svg_179">
      <g stroke="null" id="svg_183">
        <animateTransform
      attributeName="transform"
      dur="5s"
      type="rotate"
      from="-2 50 48"
      to="2 50 52"
      repeatCount="indefinite" />
       <path stroke="null" id="svg_184" fill="#000000" d="m583.809496,72.256258c0.959075,11.902467 -7.77013,22.469156 -19.490348,23.597032c-8.973037,0.862799 -17.089952,-4.059313 -20.839554,-11.74654l-10.636517,0.899182l-8.030218,3.716273c-1.836872,0.847206 -3.07229,2.531223 -3.354052,4.464725c-0.75859,5.213177 -2.134889,10.234043 -4.04762,15.005425c-0.65022,1.616449 -0.536432,3.42001 0.346784,4.92731l2.860968,4.906519l7.954359,5.11962c4.19392,-1.538485 9.075989,-1.169456 13.091098,1.413743c6.805637,4.381563 8.436606,13.399372 3.375726,19.745622c-4.356475,5.467858 -12.457134,6.96996 -18.623388,3.456393c-3.928413,-2.234961 -6.301717,-5.946036 -6.881496,-9.911793l-8.815901,-5.670564l-5.548545,-0.649698c-1.907312,-0.223496 -3.803788,0.405412 -5.190924,1.67882c-4.681585,4.277612 -9.970042,7.952304 -15.719071,10.894136c-1.934405,0.987541 -3.175242,2.884659 -3.310704,4.979286l-0.704405,10.779789l3.489515,13.279827c5.938677,1.590461 10.847839,6.107161 12.462552,12.250706c2.438325,9.288083 -3.576211,18.711303 -13.383697,20.805929c-8.848412,1.891921 -17.924401,-3.056179 -20.736603,-11.325536c-2.189074,-6.455399 -0.178811,-13.129097 4.448589,-17.48987l-3.50577,-13.357791l-5.413082,-8.34732c-1.452158,-2.240159 -4.020528,-3.565543 -6.773126,-3.560345c-0.016256,0 -0.027093,0 -0.043348,0c-4.741188,0 -9.379425,-0.45219 -13.865944,-1.299396c-2.671321,-0.509363 -5.429338,0.30146 -7.304139,2.198578l-7.152421,7.240235l-8.008544,15.935793c1.874801,3.653902 2.042775,8.06665 0.059604,12.022012c-3.565374,7.089505 -12.657618,9.906595 -19.923828,5.987617c-6.220439,-3.362837 -8.913434,-10.784987 -6.204184,-17.126039c1.847709,-4.32439 5.678589,-7.214247 10.01339,-8.180997l8.057311,-16.039744l1.582202,-10.764197c0.287181,-1.985477 -0.503921,-3.986547 -2.129471,-5.244362c-6.410087,-4.989681 -11.904446,-11.013681 -16.201318,-17.812121c-1.067445,-1.689215 -2.985594,-2.713139 -5.044624,-2.728732l-11.20546,-0.103952l-12.267486,3.70068c-0.861542,7.318198 -6.084977,13.820376 -13.876781,16.169684c-10.468544,3.160131 -21.619819,-2.359703 -25.017219,-12.339065c-3.3974,-9.974164 2.340792,-20.883893 12.728059,-24.179161c7.271628,-2.307727 14.911714,-0.389819 20.080964,4.32439l13.020658,-3.929374l9.509469,-6.502178c1.414229,-0.961553 2.1674,-2.572804 2.026519,-4.225636c-0.157137,-1.834747 -0.238414,-3.685087 -0.238414,-5.556217c0,-10.166474 2.329955,-19.818388 6.491364,-28.498353c0.606872,-1.273408 0.590617,-2.739127 -0.048767,-3.996942l-2.81762,-5.525032l-7.645505,-5.535427c-4.280616,1.314989 -9.130174,0.686081 -12.988147,-2.105022c-6.545549,-4.740197 -7.650923,-13.830771 -2.232422,-19.896352c4.665329,-5.223572 12.841847,-6.294274 18.79678,-2.458457c3.792951,2.442865 5.949514,6.268286 6.296298,10.260031l8.474535,6.133149l8.539557,1.460521c6.215021,-5.535427 13.459556,-10.020942 21.419334,-13.16548l2.004845,-11.684169l-2.53044,-12.06879c-7.488368,-1.85034 -13.567926,-7.354581 -15.204314,-14.69357c-2.308281,-10.36918 5.120483,-20.468086 16.596868,-22.552317c11.470966,-2.084231 22.643915,4.62585 24.952197,14.99503c1.728502,7.759993 -1.994008,15.364058 -8.788808,19.574102l2.389559,11.382709l5.868236,8.981425c0.384714,0.587327 1.056608,0.940763 1.777268,0.940763l0.010837,0c13.437882,0 26.019641,3.586333 36.764529,9.813039c0.590617,0.337843 1.316696,0.384621 1.939823,0.103952l9.189778,-4.085301l10.728632,-11.133225c-0.644802,-3.991745 0.54185,-8.222578 3.624977,-11.419092c5.570219,-5.774516 15.106781,-5.920048 20.861228,-0.145532c5.044624,5.067644 5.23969,13.149888 0.449736,18.441028c-3.099383,3.425208 -7.547972,5.005273 -11.893609,4.693418l-10.728632,11.133225l-3.484096,8.99182c-0.243833,0.62371 -0.135463,1.320186 0.270925,1.860735c4.231849,5.57181 7.607575,11.777725 9.937531,18.441028c0.644802,1.82955 2.161982,3.253688 4.101805,3.778644l8.723786,2.34411l11.335504,-0.961553c2.779691,-7.687227 9.720791,-13.503323 18.244093,-14.324542c11.720217,-1.127876 21.999114,7.609263 22.95277,19.511731z"/>
      </g>
     </g>
     <g stroke="null" id="svg_178">
      <g stroke="null" id="svg_185">
        <animateTransform
      attributeName="transform"
      dur="5s"
      type="rotate"
      from="-2 50 48"
      to="2 50 52"
      repeatCount="indefinite" />
       <circle stroke="null" id="svg_186" r="45.325485" fill="#494949" cy="83.664955" cx="450.790717"/>
      </g>
     </g>
     <path stroke="null" id="svg_187" class="active-path" fill="#737373" d="m414.055448,83.664955c0,-25.367849 19.426409,-46.382201 44.788245,-50.102112c-2.625806,-0.385141 -5.315008,-0.584728 -8.052976,-0.584728c-29.184046,0 -52.841221,22.692652 -52.841221,50.68684s23.657175,50.68684 52.841221,50.68684c2.737969,0 5.427171,-0.199587 8.052976,-0.584728c-25.361293,-3.720431 -44.788245,-24.734783 -44.788245,-50.102112z"> 
      <animateTransform
      attributeName="transform"
      dur="5s"
      type="rotate"
      from="-2 50 48"
      to="2 50 52"
      repeatCount="indefinite" />
     </path>
     <g stroke="null" id="svg_188" fill="#eb5569">
      <animate
      attributeName="opacity"
      dur="1s"
      values="0;1;0"
      repeatCount="indefinite"
      begin="0.1"/>  
      <circle stroke="null" id="svg_189" fill="#000000" r="12.90744" cy="-22.917743" cx="361.882329"/>
      <circle stroke="null" id="svg_190" fill="#000000" r="8.525482" cy="167.347618" cx="357.769145"/>
      <circle stroke="null" id="svg_191" fill="#000000" r="12.557465" cy="183.008978" cx="540.258295"/>
      <circle stroke="null" id="svg_192" fill="#000000" r="11.707382" cy="69.686573" cx="434.570976"/>
      <circle stroke="null" id="svg_193" fill="#000000" r="7.968681" cy="110.35195" cx="445.527185"/>
      <circle stroke="null" id="svg_194" fill="#000000" r="6.691452" cy="83.664955" cx="474.698227"/>
     </g>
    </g>
   </g>
  </g>
  <g opacity="0.15" stroke="null" id="svg_218">
   <g stroke="null" id="svg_204">
    <g stroke="null" id="svg_205">
     <g stroke="null" id="svg_202">
      <g stroke="null" id="svg_206">
       <path stroke="null" id="svg_207" fill="#000000" d="m1322.255576,652.241956c0.33079,4.251353 -2.67996,8.02559 -6.722326,8.428447c-3.094849,0.308177 -5.894417,-1.449916 -7.187675,-4.195659l-3.668592,0.321172l-2.769666,1.327388c-0.633547,0.302607 -1.059649,0.904109 -1.156831,1.594722c-0.261642,1.862056 -0.736335,3.655421 -1.396046,5.359676c-0.224264,0.577367 -0.185018,1.221568 0.119608,1.759949l0.986763,1.752523l2.743501,1.828639c1.446506,-0.54952 3.130358,-0.417709 4.51519,0.504964c2.347301,1.565018 2.909831,4.786021 1.164306,7.052791c-1.502572,1.953023 -4.296533,2.489548 -6.423307,1.234563c-1.354931,-0.798289 -2.173496,-2.12382 -2.373465,-3.540319l-3.040652,-2.025426l-1.913723,-0.232061c-0.657842,-0.079829 -1.311947,0.144806 -1.790378,0.599645c-1.614704,1.527888 -3.438721,2.840424 -5.421592,3.891195c-0.667187,0.352732 -1.095158,1.03035 -1.14188,1.778514l-0.242953,3.850352l1.203552,4.743322c2.048282,0.568085 3.741478,2.181371 4.298401,4.375738c0.840992,3.317541 -1.233454,6.68335 -4.616109,7.431514c-3.051865,0.675761 -6.182223,-1.091614 -7.152166,-4.045283c-0.755024,-2.305756 -0.061673,-4.689484 1.534342,-6.247076l-1.209159,-4.77117l-1.867001,-2.981517c-0.500857,-0.800146 -1.386702,-1.27355 -2.336088,-1.271693c-0.005607,0 -0.009344,0 -0.014951,0c-1.635261,0 -3.235014,-0.161514 -4.782439,-0.464122c-0.921353,-0.181936 -1.872608,0.107676 -2.519237,0.785294l-2.466909,2.586085l-2.76219,5.691987c0.646629,1.30511 0.704564,2.881267 0.020558,4.294053c-1.229717,2.532247 -4.365681,3.538463 -6.871836,2.138672c-2.145463,-1.201147 -3.074291,-3.852209 -2.139856,-6.117122c0.637285,-1.544597 1.958576,-2.576803 3.453672,-2.922109l2.77901,-5.729116l0.54571,-3.844783c0.09905,-0.709178 -0.173805,-1.423925 -0.734466,-1.873195c-2.210873,-1.782227 -4.105908,-3.933894 -5.587922,-6.362178c-0.368167,-0.603358 -1.029747,-0.969086 -1.739918,-0.974655l-3.864824,-0.03713l-4.231122,1.321818c-0.29715,2.613933 -2.098741,4.936397 -4.786177,5.775529c-3.610657,1.128744 -7.456792,-0.842845 -8.628574,-4.407298c-1.171782,-3.562597 0.807352,-7.459362 4.389976,-8.636374c2.508024,-0.82428 5.143131,-0.139236 6.926033,1.544597l4.490895,-1.403504l3.279867,-2.322464c0.487775,-0.34345 0.747548,-0.918961 0.698957,-1.509323c-0.054197,-0.65534 -0.08223,-1.316249 -0.08223,-1.984584c0,-3.631287 0.803614,-7.078782 2.238906,-10.179114c0.209313,-0.454839 0.203707,-0.978368 -0.01682,-1.427638l-0.971813,-1.973445l-2.636976,-1.977158c-1.476407,0.469691 -3.149046,0.245056 -4.479682,-0.751877c-2.257595,-1.693115 -2.638845,-4.94011 -0.769975,-7.106629c1.609097,-1.865769 4.429222,-2.248205 6.483111,-0.878118c1.308209,0.872549 2.052019,2.238922 2.171627,3.664704l2.922913,2.190654l2.945339,0.521673c2.143594,-1.977158 4.642274,-3.579305 7.387644,-4.70248l0.691482,-4.173381l-0.872762,-4.310761c-2.582779,-0.660909 -4.679651,-2.626928 -5.24405,-5.248286c-0.796139,-3.70369 1.766082,-7.310843 5.724349,-8.055294c3.956398,-0.744451 7.810009,1.652273 8.606147,5.355963c0.59617,2.771734 -0.687744,5.487773 -3.031307,6.991527l0.824172,4.065705l2.023986,3.208008c0.13269,0.209783 0.36443,0.336024 0.612989,0.336024l0.003738,0c4.634798,0 8.974315,1.280975 12.680284,3.505046c0.203707,0.120672 0.454135,0.13738 0.669056,0.03713l3.169604,-1.459198l3.700363,-3.976593c-0.222396,-1.425781 0.186887,-2.936961 1.250274,-4.0787c1.921199,-2.062556 5.21041,-2.114538 7.19515,-0.051982c1.739918,1.810074 1.807197,4.69691 0.155116,6.586813c-1.068994,1.223424 -2.603336,1.787796 -4.10217,1.676407l-3.700363,3.976593l-1.201684,3.211721c-0.084099,0.222778 -0.046722,0.471547 0.093444,0.664622c1.459588,1.990153 2.623894,4.206798 3.427508,6.586813c0.222396,0.653483 0.745679,1.16216 1.414735,1.349665l3.008881,0.837275l3.909676,-0.34345c0.95873,-2.745743 3.352753,-4.823151 6.292486,-5.116476c4.042366,-0.402858 7.587613,2.717896 7.916534,6.969249z"/>
      </g>
     </g>
     <g stroke="null" id="svg_201">
      <g stroke="null" id="svg_208">
       <circle stroke="null" id="svg_209" r="17.183506" fill="#494949" cy="656.316943" cx="1276.376682"/>
      </g>
     </g>
     <path stroke="null" id="svg_210" class="active-path" fill="#737373" d="m1263.706489,656.316943c0,-9.060952 6.700273,-16.566911 15.447707,-17.895599c-0.905654,-0.137566 -1.833175,-0.208855 -2.777515,-0.208855c-10.065735,0 -18.225222,8.105419 -18.225222,18.104453s8.159487,18.104453 18.225222,18.104453c0.94434,0 1.87186,-0.071289 2.777515,-0.208855c-8.747247,-1.328873 -15.447707,-8.834832 -15.447707,-17.895599z"/>
     <g stroke="null" id="svg_211" fill="#eb5569">
      <animate
      attributeName="opacity"
      dur="1s"
      values="0;1;0"
      repeatCount="indefinite"
      begin="0.1"/>  
      <circle stroke="null" id="svg_212" fill="#000000" r="4.893383" cy="618.247466" cx="1245.711699"/>
      <circle stroke="null" id="svg_213" fill="#000000" r="3.232124" cy="686.206928" cx="1244.29304"/>
      <circle stroke="null" id="svg_214" fill="#000000" r="4.760705" cy="691.800892" cx="1307.234532"/>
      <circle stroke="null" id="svg_215" fill="#000000" r="4.438426" cy="651.324109" cx="1270.782406"/>
      <circle stroke="null" id="svg_216" fill="#000000" r="3.021022" cy="665.849071" cx="1274.561261"/>
      <circle stroke="null" id="svg_217" fill="#000000" r="2.536825" cy="656.316943" cx="1284.622511"/>
     </g>
    </g>
   </g>
  </g>
  <g opacity="0.1" stroke="null" id="svg_241">
   <g stroke="null" transform="matrix(0.22017689718796382,0,0,0.2100410714532853,-1395.978429857656,-677.6411571304052) " id="svg_227">
    <g stroke="null" id="svg_228">
     <g stroke="null" id="svg_225">
      <g stroke="null" id="svg_229">
       <path stroke="null" id="svg_230" fill="#000000" d="m9421.029394,5491.252788c1.77,22.9 -14.34,43.23 -35.97,45.4c-16.56,1.66 -31.54,-7.81 -38.46,-22.6l-19.63,1.73l-14.82,7.15c-3.39,1.63 -5.67,4.87 -6.19,8.59c-1.4,10.03 -3.94,19.69 -7.47,28.87c-1.2,3.11 -0.99,6.58 0.64,9.48l5.28,9.44l14.68,9.85c7.74,-2.96 16.75,-2.25 24.16,2.72c12.56,8.43 15.57,25.78 6.23,37.99c-8.04,10.52 -22.99,13.41 -34.37,6.65c-7.25,-4.3 -11.63,-11.44 -12.7,-19.07l-16.27,-10.91l-10.24,-1.25c-3.52,-0.43 -7.02,0.78 -9.58,3.23c-8.64,8.23 -18.4,15.3 -29.01,20.96c-3.57,1.9 -5.86,5.55 -6.11,9.58l-1.3,20.74l6.44,25.55c10.96,3.06 20.02,11.75 23,23.57c4.5,17.87 -6.6,36 -24.7,40.03c-16.33,3.64 -33.08,-5.88 -38.27,-21.79c-4.04,-12.42 -0.33,-25.26 8.21,-33.65l-6.47,-25.7l-9.99,-16.06c-2.68,-4.31 -7.42,-6.86 -12.5,-6.85c-0.03,0 -0.05,0 -0.08,0c-8.75,0 -17.31,-0.87 -25.59,-2.5c-4.93,-0.98 -10.02,0.58 -13.48,4.23l-13.2,13.93l-14.78,30.66c3.46,7.03 3.77,15.52 0.11,23.13c-6.58,13.64 -23.36,19.06 -36.77,11.52c-11.48,-6.47 -16.45,-20.75 -11.45,-32.95c3.41,-8.32 10.48,-13.88 18.48,-15.74l14.87,-30.86l2.92,-20.71c0.53,-3.82 -0.93,-7.67 -3.93,-10.09c-11.83,-9.6 -21.97,-21.19 -29.9,-34.27c-1.97,-3.25 -5.51,-5.22 -9.31,-5.25l-20.68,-0.2l-22.64,7.12c-1.59,14.08 -11.23,26.59 -25.61,31.11c-19.32,6.08 -39.9,-4.54 -46.17,-23.74c-6.27,-19.19 4.32,-40.18 23.49,-46.52c13.42,-4.44 27.52,-0.75 37.06,8.32l24.03,-7.56l17.55,-12.51c2.61,-1.85 4,-4.95 3.74,-8.13c-0.29,-3.53 -0.44,-7.09 -0.44,-10.69c0,-19.56 4.3,-38.13 11.98,-54.83c1.12,-2.45 1.09,-5.27 -0.09,-7.69l-5.2,-10.63l-14.11,-10.65c-7.9,2.53 -16.85,1.32 -23.97,-4.05c-12.08,-9.12 -14.12,-26.61 -4.12,-38.28c8.61,-10.05 23.7,-12.11 34.69,-4.73c7,4.7 10.98,12.06 11.62,19.74l15.64,11.8l15.76,2.81c11.47,-10.65 24.84,-19.28 39.53,-25.33l3.7,-22.48l-4.67,-23.22c-13.82,-3.56 -25.04,-14.15 -28.06,-28.27c-4.26,-19.95 9.45,-39.38 30.63,-43.39c21.17,-4.01 41.79,8.9 46.05,28.85c3.19,14.93 -3.68,29.56 -16.22,37.66l4.41,21.9l10.83,17.28c0.71,1.13 1.95,1.81 3.28,1.81l0.02,0c24.8,0 48.02,6.9 67.85,18.88c1.09,0.65 2.43,0.74 3.58,0.2l16.96,-7.86l19.8,-21.42c-1.19,-7.68 1,-15.82 6.69,-21.97c10.28,-11.11 27.88,-11.39 38.5,-0.28c9.31,9.75 9.67,25.3 0.83,35.48c-5.72,6.59 -13.93,9.63 -21.95,9.03l-19.8,21.42l-6.43,17.3c-0.45,1.2 -0.25,2.54 0.5,3.58c7.81,10.72 14.04,22.66 18.34,35.48c1.19,3.52 3.99,6.26 7.57,7.27l16.1,4.51l20.92,-1.85c5.13,-14.79 17.94,-25.98 33.67,-27.56c21.63,-2.17 40.6,14.64 42.36,37.54z"/>
      </g>
     </g>
     <g stroke="null" id="svg_224">
      <g stroke="null" id="svg_231">
       <circle stroke="null" id="svg_232" r="97.519997" fill="#494949" cy="5513.202788" cx="9175.539394"/>
      </g>
     </g>
     <path stroke="null" id="svg_233" class="active-path" fill="#737373" d="m9107.743394,5513.202788c0,-48.807 35.852,-89.238 82.658,-96.395c-4.846,-0.741 -9.809,-1.125 -14.862,-1.125c-53.86,0 -97.52,43.66 -97.52,97.52s43.66,97.52 97.52,97.52c5.053,0 10.016,-0.384 14.862,-1.125c-46.805,-7.158 -82.658,-47.589 -82.658,-96.395z"/>
     <g stroke="null" id="svg_234" fill="#eb5569">
      <animate
      attributeName="opacity"
      dur="1s"
      values="0;1;0"
      repeatCount="indefinite"
      begin="0.1"/>  
      <circle stroke="null" id="svg_235" fill="#000000" r="27.771002" cy="5308.140788" cx="9011.456394"/>
      <circle stroke="null" id="svg_236" fill="#000000" r="18.343" cy="5674.205788" cx="9003.865394"/>
      <circle stroke="null" id="svg_237" fill="#000000" r="27.018" cy="5704.337788" cx="9340.654394"/>
      <circle stroke="null" id="svg_238" fill="#000000" r="25.189001" cy="5486.308788" cx="9145.605394"/>
      <circle stroke="null" id="svg_239" fill="#000000" r="17.145" cy="5564.547788" cx="9165.825394"/>
      <circle stroke="null" id="svg_240" fill="#000000" r="14.397" cy="5513.202788" cx="9219.661394"/>
     </g>
    </g>
   </g>
  </g>
 </g>
</svg>