<svg width="1500" height="800" xmlns="http://www.w3.org/2000/svg">
 <!-- Created with Method Draw - http://github.com/duopixel/Method-Draw/ -->

 <g>
  <title>background</title>
  <rect fill="#006bc6" id="canvas_background" height="802" width="1502" y="-1" x="-1"/>
  <g display="none" overflow="visible" y="0" x="0" height="100%" width="100%" id="canvasGrid">
   <rect fill="url(#gridpattern)" stroke-width="0" y="0" x="0" height="100%" width="100%"/>
  </g>
 </g>
 <g>
  <title>Layer 1</title>
  <g opacity="0.25" stroke="null" transform="rotate(-26.811368942260742 1355.83056640625,144.60137939453116) " id="svg_30"> 
    <animateTransform
      attributeName="transform"
      dur="20s"
      type="rotate"
      from="360 1250 150"
      to="0 1250 150"
      repeatCount="indefinite" />
   <g stroke="null" transform="matrix(0.8505376540666951,0,0,0.8345158133601129,-7883.644026212627,-4021.2647470950683) " id="svg_7">
    <g stroke="null" id="svg_8">
     <g stroke="null" id="svg_9">
      <g stroke="null" id="svg_5">
       <g stroke="null" id="svg_10"> 
             <path stroke="null" id="svg_11" fill="#3d3d3d" d="m11098.523067,4994.945293c8.43,1.66 13.92,9.83 12.27,18.25l-6.15,31.32c-1.7,8.67 -10.3,14.23 -18.98,12.1c-8.13,-1.99 -13.06,-10.3 -11.45,-18.51l0.17,-0.84l-40.54,1.85c-1.22,0.05 -2.28,0.86 -2.66,2.03c-3.96,11.96 -9.17,23.36 -15.48,34.02c-0.64,1.08 -0.54,2.45 0.27,3.41l17.93,21.3c3.56,-3.39 8.21,-5.15 12.91,-5.15c3.96,0 7.96,1.25 11.35,3.85c8.21,6.28 9.77,18.03 3.49,26.25l-5.2,6.79c-6.1,7.98 -17.47,10.12 -25.75,4.41c-7.13,-4.91 -9.71,-13.74 -7.13,-21.41l-25.83,-11.35c-1.17,-0.51 -2.52,-0.21 -3.37,0.73c-11.96,13.13 -25.88,24.43 -41.3,33.45c-1.06,0.62 -1.63,1.82 -1.43,3.03l6.61,40.32l5.72,-2.29c8.21,-3.28 17.55,0.92 20.48,9.37c2.74,7.91 -1.56,16.56 -9.33,19.66l-29.23,11.7c-8.2,3.28 -17.54,-0.92 -20.47,-9.37c-2.74,-7.91 1.56,-16.56 9.33,-19.67l0.79,-0.31l-23.58,-33.04c-0.71,-1 -1.96,-1.44 -3.15,-1.13c-14.09,3.65 -28.87,5.61 -44.11,5.61c-12.06,0 -23.82,-1.23 -35.19,-3.55c-1.2,-0.24 -2.43,0.27 -3.09,1.3l-23.59,37.01l0.83,0.3c7.68,2.8 12.44,10.05 12.44,17.77c0,2.16 -0.37,4.35 -1.15,6.49c0,11.07 -8.51,17.03 -18.91,13.23l-28.99,-10.57c-9.7,-3.53 -14.76,-14.18 -11.41,-23.91c3.44,-10.03 14.87,-15.09 24.83,-11.46l0.67,0.24l4.8,-43.37c0.14,-1.22 -0.5,-2.38 -1.59,-2.95c-18.36,-9.48 -34.83,-22.11 -48.7,-37.18c-0.84,-0.91 -2.15,-1.21 -3.29,-0.74l-35.38,14.51c4,7.48 1.75,16.96 -5.55,21.76c-7.62,5.01 -17.91,2.68 -23.11,-4.8l-9.06,-13.05c-5.07,-7.29 -3.89,-17.45 3.09,-22.95c7.44,-5.86 18.05,-4.34 23.62,3.03l24.92,-28.16c0.83,-0.94 0.97,-2.3 0.36,-3.39c-10.23,-18.44 -17.23,-38.92 -20.24,-60.67c-0.17,-1.22 -1.06,-2.21 -2.25,-2.48l-39.82,-9.2l-0.04,4.67c-0.04,4.67 -1.96,8.9 -5.05,11.95c-3.08,3.06 -7.32,4.94 -12,4.94c-9.3,0 -16.83,-7.59 -16.74,-16.89l0.26,-28.93c0.08,-9.46 7.9,-17.43 17.35,-17.18c9.17,0.24 16.49,7.78 16.44,16.98l39.53,-9.27c1.2,-0.28 2.09,-1.27 2.25,-2.49c3.1,-23 10.67,-44.59 21.8,-63.87c0.62,-1.08 0.51,-2.43 -0.3,-3.39l-18.85,-22.14l-1.64,2.16c-5.08,6.72 -14.78,7.89 -21.33,2.44c-6.14,-5.12 -6.89,-14.3 -2.07,-20.67l12.56,-16.6c2.92,-3.85 7.35,-5.88 11.84,-5.88c3.11,0 6.25,0.98 8.93,3c6.21,4.69 7.67,13.31 3.57,19.77l26.36,11.4c1.16,0.5 2.5,0.2 3.36,-0.73c12.44,-13.64 27.01,-25.3 43.19,-34.47c1.06,-0.61 1.65,-1.8 1.47,-3.01l-6.07,-40.41l-5.76,2.22c-8.24,3.17 -17.53,-1.16 -20.34,-9.64c-2.64,-7.95 1.78,-16.54 9.59,-19.54l29.38,-11.3c8.25,-3.17 17.53,1.15 20.34,9.64c2.64,7.94 -1.77,16.53 -9.59,19.54l-0.79,0.3l23.12,33.34c0.7,1.01 1.94,1.47 3.13,1.18c13.42,-3.29 27.43,-5.03 41.86,-5.03l0.02,0c1.26,0 2.39,-0.77 2.81,-1.96l7.66,-21.42c-8.87,-2.78 -14.78,-11.53 -13.65,-21.07c1.29,-10.81 11.64,-18.49 22.45,-17.13l10.52,1.32c10.72,1.35 18.76,10.95 17.59,21.7c-0.92,8.37 -6.94,14.89 -14.58,16.89l2.66,23.22c0.14,1.25 1.07,2.27 2.31,2.54c17.78,3.91 34.55,10.52 49.85,19.37c1.07,0.61 2.39,0.52 3.34,-0.26l31.73,-25.75l-4.82,-3.83c-6.93,-5.5 -7.91,-15.69 -2.03,-22.42c5.5,-6.31 15.15,-6.87 21.7,-1.66l24.65,19.57c6.93,5.49 7.91,15.69 2.03,22.42c-5.5,6.3 -15.15,6.86 -21.7,1.66l-0.67,-0.53l-16.99,36.89c-0.52,1.11 -0.28,2.42 0.58,3.3c11.96,12.25 22.14,26.25 30.12,41.57c0.58,1.11 1.79,1.74 3.03,1.57l24.09,-3.37c-3.54,-9.88 1.71,-20.83 11.81,-24.14c9.63,-3.16 20.01,2.19 23.55,11.69l5.55,14.88c3.5,9.41 -0.7,20.18 -9.9,24.18c-8.82,3.83 -18.77,0.37 -23.51,-7.45l-19.99,13.56c-1.05,0.71 -1.52,2.01 -1.18,3.23c4.11,14.9 6.31,30.58 6.31,46.78c0,2.71 -0.06,5.4 -0.19,8.07c-0.05,1.23 0.64,2.36 1.76,2.85l37.48,16.37l1.18,-6.05c1.66,-8.43 9.83,-13.92 18.25,-12.27z"/>
       </g>
      </g>
      <g>
           <animate
          attributeName="opacity"
          dur="1s"
          values="0;1;0"
          repeatCount="indefinite"
          begin="0.1"/>  

        <ellipse stroke="null" id="svg_12" ry="20.699" rx="24.756" fill="#000000" cy="4899.645293" cx="10940.843067"/>
        <circle stroke="null" id="svg_13" r="27.059082" fill="#000000" cy="5028.546293" cx="10851.506067"/>
        <circle stroke="null" id="svg_14" class="active-path" r="19.374023" fill="#747474" cy="5014.449293" cx="10956.963067"/>
        <circle stroke="null" id="svg_15" class="active-path" r="18.835938" fill="#747474" cy="5108.997293" cx="10885.411067"/> 
      </g>
      <g stroke="null" id="svg_16">
       <path stroke="null" id="svg_17" fill="#272727" d="m10758.067067,4977.577293c0,-67.408 32.157,-127.319 81.946,-165.228c-5.813,0.82 -11.552,1.928 -17.17,3.306c-1.19,0.29 -2.43,-0.17 -3.13,-1.18l-23.12,-33.34l0.79,-0.3c7.82,-3.01 12.23,-11.6 9.59,-19.54c-2.81,-8.49 -12.09,-12.81 -20.34,-9.64l-29.38,11.3c-7.81,3 -12.23,11.59 -9.59,19.54c2.81,8.48 12.1,12.81 20.34,9.64l5.76,-2.22l6.07,40.41c0.18,1.21 -0.41,2.4 -1.47,3.01c-16.18,9.17 -30.75,20.83 -43.19,34.47c-0.86,0.93 -2.2,1.23 -3.36,0.73l-26.36,-11.4c4.1,-6.46 2.64,-15.08 -3.57,-19.77c-2.68,-2.02 -5.82,-3 -8.93,-3c-4.49,0 -8.92,2.03 -11.84,5.88l-12.56,16.6c-4.82,6.37 -4.07,15.55 2.07,20.67c6.55,5.45 16.25,4.28 21.33,-2.44l1.64,-2.16l18.85,22.14c0.81,0.96 0.92,2.31 0.3,3.39c-11.13,19.28 -18.7,40.87 -21.8,63.87c-0.16,1.22 -1.05,2.21 -2.25,2.49l-39.53,9.27c0.05,-9.2 -7.27,-16.74 -16.44,-16.98c-9.45,-0.25 -17.27,7.72 -17.35,17.18l-0.26,28.93c-0.09,9.3 7.44,16.89 16.74,16.89c4.68,0 8.92,-1.88 12,-4.94c3.09,-3.05 5.01,-7.28 5.05,-11.95l0.04,-4.67l39.82,9.2c1.19,0.27 2.08,1.26 2.25,2.48c3.01,21.75 10.01,42.23 20.24,60.67c0.61,1.09 0.47,2.45 -0.36,3.39l-24.92,28.16c-5.57,-7.37 -16.18,-8.89 -23.62,-3.03c-6.98,5.5 -8.16,15.66 -3.09,22.95l9.06,13.05c5.2,7.48 15.49,9.81 23.11,4.8c7.3,-4.8 9.55,-14.28 5.55,-21.76l35.38,-14.51c1.14,-0.47 2.45,-0.17 3.29,0.74c13.87,15.07 30.34,27.7 48.7,37.18c1.09,0.57 1.73,1.73 1.59,2.95l-4.8,43.37l-0.67,-0.24c-9.96,-3.63 -21.39,1.43 -24.83,11.46c-3.35,9.73 1.71,20.38 11.41,23.91l28.99,10.57c10.4,3.8 18.91,-2.16 18.91,-13.23c0.78,-2.14 1.15,-4.33 1.15,-6.49c0,-7.72 -4.76,-14.97 -12.44,-17.77l-0.83,-0.3l23.59,-37.01c0.66,-1.03 1.89,-1.54 3.09,-1.3c11.37,2.32 23.13,3.55 35.19,3.55c1.419,0 2.861,-0.018 4.272,-0.051c-65.927,-34.765 -110.908,-103.985 -110.908,-183.697z"/>
      </g>
      <circle stroke="null" id="svg_18" r="19.62207" fill="#000000" cy="5063.940293" cx="10767.550067"/>
      <g stroke="null" id="svg_19">
       <path stroke="null" id="svg_20" class="active-path" fill="#747474" d="m10912.772067,4977.577293l-6.63,0c-4.143,0 -7.5,-3.358 -7.5,-7.5s3.357,-7.5 7.5,-7.5l6.63,0c4.143,0 7.5,3.358 7.5,7.5s-3.357,7.5 -7.5,7.5z"/>
      </g>
      <g stroke="null" id="svg_21">
       <path stroke="null" id="svg_22" class="active-path" fill="#747474" d="m10824.446067,5108.677293l-6.812,0c-4.143,0 -7.5,-3.358 -7.5,-7.5s3.357,-7.5 7.5,-7.5l6.812,0c4.143,0 7.5,3.358 7.5,7.5s-3.357,7.5 -7.5,7.5z"/>
      </g>
      <g stroke="null" id="svg_23">
       <path stroke="null" id="svg_24" fill="#000000" d="m10754.489067,4999.455293l-6.562,0c-4.143,0 -7.5,-3.358 -7.5,-7.5s3.357,-7.5 7.5,-7.5l6.562,0c4.143,0 7.5,3.358 7.5,7.5s-3.357,7.5 -7.5,7.5z"/>
      </g>
      <g stroke="null" id="svg_25">
       <path stroke="null" id="svg_26" class="active-path" fill="#747474" d="m10887.696067,4868.238293l-9.132,0c-4.143,0 -7.5,-3.358 -7.5,-7.5s3.357,-7.5 7.5,-7.5l9.132,0c4.143,0 7.5,3.358 7.5,7.5s-3.357,7.5 -7.5,7.5z"/>
      </g>
      <g stroke="null" id="svg_27">
       <path stroke="null" id="svg_28" fill="#000000" d="m10947.673067,5084.262293l-10.084,0c-4.143,0 -7.5,-3.358 -7.5,-7.5s3.357,-7.5 7.5,-7.5l10.084,0c4.143,0 7.5,3.358 7.5,7.5s-3.358,7.5 -7.5,7.5z"/>
      </g>
     </g>
     <ellipse stroke="null" id="svg_29" transform="matrix(0.785,-0.619,0.619,0.785,-68.073,156.437) " ry="43.139" rx="51.654" fill="#000000" cy="10477.471351" cx="5591.202991"/>
    </g>
   </g>
  </g>

  <g opacity="0.25" stroke="null" id="svg_60"> 
    <animateTransform
      attributeName="transform"
      dur="8s"
      type="rotate"
      from="2 50 48"
      to="-2 50 52"
      repeatCount="indefinite" />
   <g stroke="null" transform="matrix(0.5481021258369289,0,0,0.5289354744242875,-4820.051920083293,-2416.5443483829295) " id="svg_37">
    <g stroke="null" id="svg_38">
     <g stroke="null" id="svg_39">
      <g stroke="null" id="svg_35">
       <g stroke="null" id="svg_40">
        <path stroke="null" id="svg_41" fill="#3d3d3d" d="m11087.510792,6002.860209c8.43,1.66 13.92,9.83 12.27,18.25l-6.15,31.32c-1.7,8.67 -10.3,14.23 -18.98,12.1c-8.13,-1.99 -13.06,-10.3 -11.45,-18.51l0.17,-0.84l-40.54,1.85c-1.22,0.05 -2.28,0.86 -2.66,2.03c-3.96,11.96 -9.17,23.36 -15.48,34.02c-0.64,1.08 -0.54,2.45 0.27,3.41l17.93,21.3c3.56,-3.39 8.21,-5.15 12.91,-5.15c3.96,0 7.96,1.25 11.35,3.85c8.21,6.28 9.77,18.03 3.49,26.25l-5.2,6.79c-6.1,7.98 -17.47,10.12 -25.75,4.41c-7.13,-4.91 -9.71,-13.74 -7.13,-21.41l-25.83,-11.35c-1.17,-0.51 -2.52,-0.21 -3.37,0.73c-11.96,13.13 -25.88,24.43 -41.3,33.45c-1.06,0.62 -1.63,1.82 -1.43,3.03l6.61,40.32l5.72,-2.29c8.21,-3.28 17.55,0.92 20.48,9.37c2.74,7.91 -1.56,16.56 -9.33,19.66l-29.23,11.7c-8.2,3.28 -17.54,-0.92 -20.47,-9.37c-2.74,-7.91 1.56,-16.56 9.33,-19.67l0.79,-0.31l-23.58,-33.04c-0.71,-1 -1.96,-1.44 -3.15,-1.13c-14.09,3.65 -28.87,5.61 -44.11,5.61c-12.06,0 -23.82,-1.23 -35.19,-3.55c-1.2,-0.24 -2.43,0.27 -3.09,1.3l-23.59,37.01l0.83,0.3c7.68,2.8 12.44,10.05 12.44,17.77c0,2.16 -0.37,4.35 -1.15,6.49c0,11.07 -8.51,17.03 -18.91,13.23l-28.99,-10.57c-9.7,-3.53 -14.76,-14.18 -11.41,-23.91c3.44,-10.03 14.87,-15.09 24.83,-11.46l0.67,0.24l4.8,-43.37c0.14,-1.22 -0.5,-2.38 -1.59,-2.95c-18.36,-9.48 -34.83,-22.11 -48.7,-37.18c-0.84,-0.91 -2.15,-1.21 -3.29,-0.74l-35.38,14.51c4,7.48 1.75,16.96 -5.55,21.76c-7.62,5.01 -17.91,2.68 -23.11,-4.8l-9.06,-13.05c-5.07,-7.29 -3.89,-17.45 3.09,-22.95c7.44,-5.86 18.05,-4.34 23.62,3.03l24.92,-28.16c0.83,-0.94 0.97,-2.3 0.36,-3.39c-10.23,-18.44 -17.23,-38.92 -20.24,-60.67c-0.17,-1.22 -1.06,-2.21 -2.25,-2.48l-39.82,-9.2l-0.04,4.67c-0.04,4.67 -1.96,8.9 -5.05,11.95c-3.08,3.06 -7.32,4.94 -12,4.94c-9.3,0 -16.83,-7.59 -16.74,-16.89l0.26,-28.93c0.08,-9.46 7.9,-17.43 17.35,-17.18c9.17,0.24 16.49,7.78 16.44,16.98l39.53,-9.27c1.2,-0.28 2.09,-1.27 2.25,-2.49c3.1,-23 10.67,-44.59 21.8,-63.87c0.62,-1.08 0.51,-2.43 -0.3,-3.39l-18.85,-22.14l-1.64,2.16c-5.08,6.72 -14.78,7.89 -21.33,2.44c-6.14,-5.12 -6.89,-14.3 -2.07,-20.67l12.56,-16.6c2.92,-3.85 7.35,-5.88 11.84,-5.88c3.11,0 6.25,0.98 8.93,3c6.21,4.69 7.67,13.31 3.57,19.77l26.36,11.4c1.16,0.5 2.5,0.2 3.36,-0.73c12.44,-13.64 27.01,-25.3 43.19,-34.47c1.06,-0.61 1.65,-1.8 1.47,-3.01l-6.07,-40.41l-5.76,2.22c-8.24,3.17 -17.53,-1.16 -20.34,-9.64c-2.64,-7.95 1.78,-16.54 9.59,-19.54l29.38,-11.3c8.25,-3.17 17.53,1.15 20.34,9.64c2.64,7.94 -1.77,16.53 -9.59,19.54l-0.79,0.3l23.12,33.34c0.7,1.01 1.94,1.47 3.13,1.18c13.42,-3.29 27.43,-5.03 41.86,-5.03l0.02,0c1.26,0 2.39,-0.77 2.81,-1.96l7.66,-21.42c-8.87,-2.78 -14.78,-11.53 -13.65,-21.07c1.29,-10.81 11.64,-18.49 22.45,-17.13l10.52,1.32c10.72,1.35 18.76,10.95 17.59,21.7c-0.92,8.37 -6.94,14.89 -14.58,16.89l2.66,23.22c0.14,1.25 1.07,2.27 2.31,2.54c17.78,3.91 34.55,10.52 49.85,19.37c1.07,0.61 2.39,0.52 3.34,-0.26l31.73,-25.75l-4.82,-3.83c-6.93,-5.5 -7.91,-15.69 -2.03,-22.42c5.5,-6.31 15.15,-6.87 21.7,-1.66l24.65,19.57c6.93,5.49 7.91,15.69 2.03,22.42c-5.5,6.3 -15.15,6.86 -21.7,1.66l-0.67,-0.53l-16.99,36.89c-0.52,1.11 -0.28,2.42 0.58,3.3c11.96,12.25 22.14,26.25 30.12,41.57c0.58,1.11 1.79,1.74 3.03,1.57l24.09,-3.37c-3.54,-9.88 1.71,-20.83 11.81,-24.14c9.63,-3.16 20.01,2.19 23.55,11.69l5.55,14.88c3.5,9.41 -0.7,20.18 -9.9,24.18c-8.82,3.83 -18.77,0.37 -23.51,-7.45l-19.99,13.56c-1.05,0.71 -1.52,2.01 -1.18,3.23c4.11,14.9 6.31,30.58 6.31,46.78c0,2.71 -0.06,5.4 -0.19,8.07c-0.05,1.23 0.64,2.36 1.76,2.85l37.48,16.37l1.18,-6.05c1.66,-8.43 9.83,-13.92 18.25,-12.27z"/>
       </g>
      </g>
      <g>
           <animate
          attributeName="opacity"
          dur="1s"
          values="0;1;0"
          repeatCount="indefinite"
          begin="0.1"/>  
        <ellipse stroke="null" id="svg_42" ry="20.699" rx="24.756" fill="#000000" cy="5907.560209" cx="10929.830792"/>
        <circle stroke="null" id="svg_43" r="27.059" fill="#000000" cy="6036.461209" cx="10840.493792"/>
        <circle stroke="null" id="svg_44" class="active-path" r="19.374001" fill="#747474" cy="6022.364209" cx="10945.950792"/>
        <circle stroke="null" id="svg_45" class="active-path" r="18.836" fill="#747474" cy="6116.912209" cx="10874.398792"/>
      </g>
      <g stroke="null" id="svg_46">
       <path stroke="null" id="svg_47" fill="#272727" d="m10747.054792,5985.492209c0,-67.408 32.157,-127.319 81.946,-165.228c-5.813,0.82 -11.552,1.928 -17.17,3.306c-1.19,0.29 -2.43,-0.17 -3.13,-1.18l-23.12,-33.34l0.79,-0.3c7.82,-3.01 12.23,-11.6 9.59,-19.54c-2.81,-8.49 -12.09,-12.81 -20.34,-9.64l-29.38,11.3c-7.81,3 -12.23,11.59 -9.59,19.54c2.81,8.48 12.1,12.81 20.34,9.64l5.76,-2.22l6.07,40.41c0.18,1.21 -0.41,2.4 -1.47,3.01c-16.18,9.17 -30.75,20.83 -43.19,34.47c-0.86,0.93 -2.2,1.23 -3.36,0.73l-26.36,-11.4c4.1,-6.46 2.64,-15.08 -3.57,-19.77c-2.68,-2.02 -5.82,-3 -8.93,-3c-4.49,0 -8.92,2.03 -11.84,5.88l-12.56,16.6c-4.82,6.37 -4.07,15.55 2.07,20.67c6.55,5.45 16.25,4.28 21.33,-2.44l1.64,-2.16l18.85,22.14c0.81,0.96 0.92,2.31 0.3,3.39c-11.13,19.28 -18.7,40.87 -21.8,63.87c-0.16,1.22 -1.05,2.21 -2.25,2.49l-39.53,9.27c0.05,-9.2 -7.27,-16.74 -16.44,-16.98c-9.45,-0.25 -17.27,7.72 -17.35,17.18l-0.26,28.93c-0.09,9.3 7.44,16.89 16.74,16.89c4.68,0 8.92,-1.88 12,-4.94c3.09,-3.05 5.01,-7.28 5.05,-11.95l0.04,-4.67l39.82,9.2c1.19,0.27 2.08,1.26 2.25,2.48c3.01,21.75 10.01,42.23 20.24,60.67c0.61,1.09 0.47,2.45 -0.36,3.39l-24.92,28.16c-5.57,-7.37 -16.18,-8.89 -23.62,-3.03c-6.98,5.5 -8.16,15.66 -3.09,22.95l9.06,13.05c5.2,7.48 15.49,9.81 23.11,4.8c7.3,-4.8 9.55,-14.28 5.55,-21.76l35.38,-14.51c1.14,-0.47 2.45,-0.17 3.29,0.74c13.87,15.07 30.34,27.7 48.7,37.18c1.09,0.57 1.73,1.73 1.59,2.95l-4.8,43.37l-0.67,-0.24c-9.96,-3.63 -21.39,1.43 -24.83,11.46c-3.35,9.73 1.71,20.38 11.41,23.91l28.99,10.57c10.4,3.8 18.91,-2.16 18.91,-13.23c0.78,-2.14 1.15,-4.33 1.15,-6.49c0,-7.72 -4.76,-14.97 -12.44,-17.77l-0.83,-0.3l23.59,-37.01c0.66,-1.03 1.89,-1.54 3.09,-1.3c11.37,2.32 23.13,3.55 35.19,3.55c1.419,0 2.861,-0.018 4.272,-0.051c-65.927,-34.765 -110.908,-103.985 -110.908,-183.697z"/>
      </g>
      <circle stroke="null" id="svg_48" r="19.622" fill="#000000" cy="6071.855209" cx="10756.537792"/>
      <g stroke="null" id="svg_49">
       <path stroke="null" id="svg_50" class="active-path" fill="#747474" d="m10901.759792,5985.492209l-6.63,0c-4.143,0 -7.5,-3.358 -7.5,-7.5s3.357,-7.5 7.5,-7.5l6.63,0c4.143,0 7.5,3.358 7.5,7.5s-3.357,7.5 -7.5,7.5z"/>
      </g>
      <g stroke="null" id="svg_51">
       <path stroke="null" id="svg_52" class="active-path" fill="#747474" d="m10813.433792,6116.592209l-6.812,0c-4.143,0 -7.5,-3.358 -7.5,-7.5s3.357,-7.5 7.5,-7.5l6.812,0c4.143,0 7.5,3.358 7.5,7.5s-3.357,7.5 -7.5,7.5z"/>
      </g>
      <g stroke="null" id="svg_53">
       <path stroke="null" id="svg_54" fill="#000000" d="m10743.476792,6007.370209l-6.562,0c-4.143,0 -7.5,-3.358 -7.5,-7.5s3.357,-7.5 7.5,-7.5l6.562,0c4.143,0 7.5,3.358 7.5,7.5s-3.357,7.5 -7.5,7.5z"/>
      </g>
      <g stroke="null" id="svg_55">
       <path stroke="null" id="svg_56" class="active-path" fill="#747474" d="m10876.683792,5876.153209l-9.132,0c-4.143,0 -7.5,-3.358 -7.5,-7.5s3.357,-7.5 7.5,-7.5l9.132,0c4.143,0 7.5,3.358 7.5,7.5s-3.357,7.5 -7.5,7.5z"/>
      </g>
      <g stroke="null" id="svg_57">
       <path stroke="null" id="svg_58" fill="#000000" d="m10936.660792,6092.177209l-10.084,0c-4.143,0 -7.5,-3.358 -7.5,-7.5s3.357,-7.5 7.5,-7.5l10.084,0c4.143,0 7.5,3.358 7.5,7.5s-3.358,7.5 -7.5,7.5z"/>
      </g>
     </g>
     <ellipse stroke="null" id="svg_59" transform="matrix(0.785,-0.619,0.619,0.785,-68.073,156.437) " ry="43.139" rx="51.654" fill="#000000" cy="11262.349878" cx="4958.270402"/>
    </g>
   </g>
  </g>
  <g opacity="0.25" stroke="null" id="svg_90"> 
    <animateTransform
      attributeName="transform"
      dur="7s"
      type="rotate"
      from="5 55 52"
      to="-5 55 53"
      repeatCount="indefinite" />
   <g stroke="null" transform="matrix(0.15695208670519187,0,0,0.14220970378213899,-598.3427755360917,-323.1656192337249) " id="svg_67">
    <g stroke="null" id="svg_68">
     <g stroke="null" id="svg_69">
      <g stroke="null" id="svg_65">
       <g stroke="null" id="svg_70">
        <path stroke="null" id="svg_71" fill="#3d3d3d" d="m12451.526112,5854.669352c8.43,1.66 13.92,9.83 12.27,18.25l-6.15,31.32c-1.7,8.67 -10.3,14.23 -18.98,12.1c-8.13,-1.99 -13.06,-10.3 -11.45,-18.51l0.17,-0.84l-40.54,1.85c-1.22,0.05 -2.28,0.86 -2.66,2.03c-3.96,11.96 -9.17,23.36 -15.48,34.02c-0.64,1.08 -0.54,2.45 0.27,3.41l17.93,21.3c3.56,-3.39 8.21,-5.15 12.91,-5.15c3.96,0 7.96,1.25 11.35,3.85c8.21,6.28 9.77,18.03 3.49,26.25l-5.2,6.79c-6.1,7.98 -17.47,10.12 -25.75,4.41c-7.13,-4.91 -9.71,-13.74 -7.13,-21.41l-25.83,-11.35c-1.17,-0.51 -2.52,-0.21 -3.37,0.73c-11.96,13.13 -25.88,24.43 -41.3,33.45c-1.06,0.62 -1.63,1.82 -1.43,3.03l6.61,40.32l5.72,-2.29c8.21,-3.28 17.55,0.92 20.48,9.37c2.74,7.91 -1.56,16.56 -9.33,19.66l-29.23,11.7c-8.2,3.28 -17.54,-0.92 -20.47,-9.37c-2.74,-7.91 1.56,-16.56 9.33,-19.67l0.79,-0.31l-23.58,-33.04c-0.71,-1 -1.96,-1.44 -3.15,-1.13c-14.09,3.65 -28.87,5.61 -44.11,5.61c-12.06,0 -23.82,-1.23 -35.19,-3.55c-1.2,-0.24 -2.43,0.27 -3.09,1.3l-23.59,37.01l0.83,0.3c7.68,2.8 12.44,10.05 12.44,17.77c0,2.16 -0.37,4.35 -1.15,6.49c0,11.07 -8.51,17.03 -18.91,13.23l-28.99,-10.57c-9.7,-3.53 -14.76,-14.18 -11.41,-23.91c3.44,-10.03 14.87,-15.09 24.83,-11.46l0.67,0.24l4.8,-43.37c0.14,-1.22 -0.5,-2.38 -1.59,-2.95c-18.36,-9.48 -34.83,-22.11 -48.7,-37.18c-0.84,-0.91 -2.15,-1.21 -3.29,-0.74l-35.38,14.51c4,7.48 1.75,16.96 -5.55,21.76c-7.62,5.01 -17.91,2.68 -23.11,-4.8l-9.06,-13.05c-5.07,-7.29 -3.89,-17.45 3.09,-22.95c7.44,-5.86 18.05,-4.34 23.62,3.03l24.92,-28.16c0.83,-0.94 0.97,-2.3 0.36,-3.39c-10.23,-18.44 -17.23,-38.92 -20.24,-60.67c-0.17,-1.22 -1.06,-2.21 -2.25,-2.48l-39.82,-9.2l-0.04,4.67c-0.04,4.67 -1.96,8.9 -5.05,11.95c-3.08,3.06 -7.32,4.94 -12,4.94c-9.3,0 -16.83,-7.59 -16.74,-16.89l0.26,-28.93c0.08,-9.46 7.9,-17.43 17.35,-17.18c9.17,0.24 16.49,7.78 16.44,16.98l39.53,-9.27c1.2,-0.28 2.09,-1.27 2.25,-2.49c3.1,-23 10.67,-44.59 21.8,-63.87c0.62,-1.08 0.51,-2.43 -0.3,-3.39l-18.85,-22.14l-1.64,2.16c-5.08,6.72 -14.78,7.89 -21.33,2.44c-6.14,-5.12 -6.89,-14.3 -2.07,-20.67l12.56,-16.6c2.92,-3.85 7.35,-5.88 11.84,-5.88c3.11,0 6.25,0.98 8.93,3c6.21,4.69 7.67,13.31 3.57,19.77l26.36,11.4c1.16,0.5 2.5,0.2 3.36,-0.73c12.44,-13.64 27.01,-25.3 43.19,-34.47c1.06,-0.61 1.65,-1.8 1.47,-3.01l-6.07,-40.41l-5.76,2.22c-8.24,3.17 -17.53,-1.16 -20.34,-9.64c-2.64,-7.95 1.78,-16.54 9.59,-19.54l29.38,-11.3c8.25,-3.17 17.53,1.15 20.34,9.64c2.64,7.94 -1.77,16.53 -9.59,19.54l-0.79,0.3l23.12,33.34c0.7,1.01 1.94,1.47 3.13,1.18c13.42,-3.29 27.43,-5.03 41.86,-5.03l0.02,0c1.26,0 2.39,-0.77 2.81,-1.96l7.66,-21.42c-8.87,-2.78 -14.78,-11.53 -13.65,-21.07c1.29,-10.81 11.64,-18.49 22.45,-17.13l10.52,1.32c10.72,1.35 18.76,10.95 17.59,21.7c-0.92,8.37 -6.94,14.89 -14.58,16.89l2.66,23.22c0.14,1.25 1.07,2.27 2.31,2.54c17.78,3.91 34.55,10.52 49.85,19.37c1.07,0.61 2.39,0.52 3.34,-0.26l31.73,-25.75l-4.82,-3.83c-6.93,-5.5 -7.91,-15.69 -2.03,-22.42c5.5,-6.31 15.15,-6.87 21.7,-1.66l24.65,19.57c6.93,5.49 7.91,15.69 2.03,22.42c-5.5,6.3 -15.15,6.86 -21.7,1.66l-0.67,-0.53l-16.99,36.89c-0.52,1.11 -0.28,2.42 0.58,3.3c11.96,12.25 22.14,26.25 30.12,41.57c0.58,1.11 1.79,1.74 3.03,1.57l24.09,-3.37c-3.54,-9.88 1.71,-20.83 11.81,-24.14c9.63,-3.16 20.01,2.19 23.55,11.69l5.55,14.88c3.5,9.41 -0.7,20.18 -9.9,24.18c-8.82,3.83 -18.77,0.37 -23.51,-7.45l-19.99,13.56c-1.05,0.71 -1.52,2.01 -1.18,3.23c4.11,14.9 6.31,30.58 6.31,46.78c0,2.71 -0.06,5.4 -0.19,8.07c-0.05,1.23 0.64,2.36 1.76,2.85l37.48,16.37l1.18,-6.05c1.66,-8.43 9.83,-13.92 18.25,-12.27z"/>
       </g>
      </g>
      <g>
           <animate
          attributeName="opacity"
          dur="1s"
          values="0;1;0"
          repeatCount="indefinite"
          begin="0.1"/>
        <ellipse stroke="null" id="svg_72" ry="20.699" rx="24.756" fill="#000000" cy="5759.369352" cx="12293.846112"/>
        <circle stroke="null" id="svg_73" r="27.059" fill="#000000" cy="5888.270352" cx="12204.509112"/>
        <circle stroke="null" id="svg_74" class="active-path" r="19.374001" fill="#747474" cy="5874.173352" cx="12309.966112"/>
        <circle stroke="null" id="svg_75" class="active-path" r="18.836" fill="#747474" cy="5968.721352" cx="12238.414112"/>
      </g>
      <g stroke="null" id="svg_76">
       <path stroke="null" id="svg_77" fill="#272727" d="m12111.070112,5837.301352c0,-67.408 32.157,-127.319 81.946,-165.228c-5.813,0.82 -11.552,1.928 -17.17,3.306c-1.19,0.29 -2.43,-0.17 -3.13,-1.18l-23.12,-33.34l0.79,-0.3c7.82,-3.01 12.23,-11.6 9.59,-19.54c-2.81,-8.49 -12.09,-12.81 -20.34,-9.64l-29.38,11.3c-7.81,3 -12.23,11.59 -9.59,19.54c2.81,8.48 12.1,12.81 20.34,9.64l5.76,-2.22l6.07,40.41c0.18,1.21 -0.41,2.4 -1.47,3.01c-16.18,9.17 -30.75,20.83 -43.19,34.47c-0.86,0.93 -2.2,1.23 -3.36,0.73l-26.36,-11.4c4.1,-6.46 2.64,-15.08 -3.57,-19.77c-2.68,-2.02 -5.82,-3 -8.93,-3c-4.49,0 -8.92,2.03 -11.84,5.88l-12.56,16.6c-4.82,6.37 -4.07,15.55 2.07,20.67c6.55,5.45 16.25,4.28 21.33,-2.44l1.64,-2.16l18.85,22.14c0.81,0.96 0.92,2.31 0.3,3.39c-11.13,19.28 -18.7,40.87 -21.8,63.87c-0.16,1.22 -1.05,2.21 -2.25,2.49l-39.53,9.27c0.05,-9.2 -7.27,-16.74 -16.44,-16.98c-9.45,-0.25 -17.27,7.72 -17.35,17.18l-0.26,28.93c-0.09,9.3 7.44,16.89 16.74,16.89c4.68,0 8.92,-1.88 12,-4.94c3.09,-3.05 5.01,-7.28 5.05,-11.95l0.04,-4.67l39.82,9.2c1.19,0.27 2.08,1.26 2.25,2.48c3.01,21.75 10.01,42.23 20.24,60.67c0.61,1.09 0.47,2.45 -0.36,3.39l-24.92,28.16c-5.57,-7.37 -16.18,-8.89 -23.62,-3.03c-6.98,5.5 -8.16,15.66 -3.09,22.95l9.06,13.05c5.2,7.48 15.49,9.81 23.11,4.8c7.3,-4.8 9.55,-14.28 5.55,-21.76l35.38,-14.51c1.14,-0.47 2.45,-0.17 3.29,0.74c13.87,15.07 30.34,27.7 48.7,37.18c1.09,0.57 1.73,1.73 1.59,2.95l-4.8,43.37l-0.67,-0.24c-9.96,-3.63 -21.39,1.43 -24.83,11.46c-3.35,9.73 1.71,20.38 11.41,23.91l28.99,10.57c10.4,3.8 18.91,-2.16 18.91,-13.23c0.78,-2.14 1.15,-4.33 1.15,-6.49c0,-7.72 -4.76,-14.97 -12.44,-17.77l-0.83,-0.3l23.59,-37.01c0.66,-1.03 1.89,-1.54 3.09,-1.3c11.37,2.32 23.13,3.55 35.19,3.55c1.419,0 2.861,-0.018 4.272,-0.051c-65.927,-34.765 -110.908,-103.985 -110.908,-183.697z"/>
      </g>
      <circle stroke="null" id="svg_78" r="19.622" fill="#000000" cy="5923.664352" cx="12120.553112"/>
      <g stroke="null" id="svg_79">
       <path stroke="null" id="svg_80" class="active-path" fill="#747474" d="m12265.775112,5837.301352l-6.63,0c-4.143,0 -7.5,-3.358 -7.5,-7.5s3.357,-7.5 7.5,-7.5l6.63,0c4.143,0 7.5,3.358 7.5,7.5s-3.357,7.5 -7.5,7.5z"/>
      </g>
      <g stroke="null" id="svg_81">
       <path stroke="null" id="svg_82" class="active-path" fill="#747474" d="m12177.449112,5968.401352l-6.812,0c-4.143,0 -7.5,-3.358 -7.5,-7.5s3.357,-7.5 7.5,-7.5l6.812,0c4.143,0 7.5,3.358 7.5,7.5s-3.357,7.5 -7.5,7.5z"/>
      </g>
      <g stroke="null" id="svg_83">
       <path stroke="null" id="svg_84" fill="#000000" d="m12107.492112,5859.179352l-6.562,0c-4.143,0 -7.5,-3.358 -7.5,-7.5s3.357,-7.5 7.5,-7.5l6.562,0c4.143,0 7.5,3.358 7.5,7.5s-3.357,7.5 -7.5,7.5z"/>
      </g>
      <g stroke="null" id="svg_85">
       <path stroke="null" id="svg_86" class="active-path" fill="#747474" d="m12240.699112,5727.962352l-9.132,0c-4.143,0 -7.5,-3.358 -7.5,-7.5s3.357,-7.5 7.5,-7.5l9.132,0c4.143,0 7.5,3.358 7.5,7.5s-3.357,7.5 -7.5,7.5z"/>
      </g>
      <g stroke="null" id="svg_87">
       <path stroke="null" id="svg_88" fill="#000000" d="m12300.676112,5943.986352l-10.084,0c-4.143,0 -7.5,-3.358 -7.5,-7.5s3.357,-7.5 7.5,-7.5l10.084,0c4.143,0 7.5,3.358 7.5,7.5s-3.358,7.5 -7.5,7.5z"/>
      </g>
     </g>
     <ellipse stroke="null" id="svg_89" transform="matrix(0.785,-0.619,0.619,0.785,-68.073,156.437) " ry="43.139" rx="51.654" fill="#000000" cy="11990.792802" cx="6121.466772"/>
    </g>
   </g>
  </g>
  <g opacity="0.25" stroke="null" id="svg_120"> 
    <animateTransform
      attributeName="transform"
      dur="12s"
      type="rotate"
      from="0 800 250"
      to="360 800 250"
      repeatCount="indefinite" />
   <g stroke="null" transform="matrix(0.2658288583942202,0,0,0.26151868118875304,-2028.17229940997,-1150.2632440027317) " id="svg_97">
    <g stroke="null" id="svg_98">
     <g stroke="null" id="svg_99">
      <g stroke="null" id="svg_95">
       <g stroke="null" id="svg_100">
        <path stroke="null" id="svg_101" fill="#3d3d3d" d="m10897.064824,5120.264117c8.43,1.66 13.92,9.83 12.27,18.25l-6.15,31.32c-1.7,8.67 -10.3,14.23 -18.98,12.1c-8.13,-1.99 -13.06,-10.3 -11.45,-18.51l0.17,-0.84l-40.54,1.85c-1.22,0.05 -2.28,0.86 -2.66,2.03c-3.96,11.96 -9.17,23.36 -15.48,34.02c-0.64,1.08 -0.54,2.45 0.27,3.41l17.93,21.3c3.56,-3.39 8.21,-5.15 12.91,-5.15c3.96,0 7.96,1.25 11.35,3.85c8.21,6.28 9.77,18.03 3.49,26.25l-5.2,6.79c-6.1,7.98 -17.47,10.12 -25.75,4.41c-7.13,-4.91 -9.71,-13.74 -7.13,-21.41l-25.83,-11.35c-1.17,-0.51 -2.52,-0.21 -3.37,0.73c-11.96,13.13 -25.88,24.43 -41.3,33.45c-1.06,0.62 -1.63,1.82 -1.43,3.03l6.61,40.32l5.72,-2.29c8.21,-3.28 17.55,0.92 20.48,9.37c2.74,7.91 -1.56,16.56 -9.33,19.66l-29.23,11.7c-8.2,3.28 -17.54,-0.92 -20.47,-9.37c-2.74,-7.91 1.56,-16.56 9.33,-19.67l0.79,-0.31l-23.58,-33.04c-0.71,-1 -1.96,-1.44 -3.15,-1.13c-14.09,3.65 -28.87,5.61 -44.11,5.61c-12.06,0 -23.82,-1.23 -35.19,-3.55c-1.2,-0.24 -2.43,0.27 -3.09,1.3l-23.59,37.01l0.83,0.3c7.68,2.8 12.44,10.05 12.44,17.77c0,2.16 -0.37,4.35 -1.15,6.49c0,11.07 -8.51,17.03 -18.91,13.23l-28.99,-10.57c-9.7,-3.53 -14.76,-14.18 -11.41,-23.91c3.44,-10.03 14.87,-15.09 24.83,-11.46l0.67,0.24l4.8,-43.37c0.14,-1.22 -0.5,-2.38 -1.59,-2.95c-18.36,-9.48 -34.83,-22.11 -48.7,-37.18c-0.84,-0.91 -2.15,-1.21 -3.29,-0.74l-35.38,14.51c4,7.48 1.75,16.96 -5.55,21.76c-7.62,5.01 -17.91,2.68 -23.11,-4.8l-9.06,-13.05c-5.07,-7.29 -3.89,-17.45 3.09,-22.95c7.44,-5.86 18.05,-4.34 23.62,3.03l24.92,-28.16c0.83,-0.94 0.97,-2.3 0.36,-3.39c-10.23,-18.44 -17.23,-38.92 -20.24,-60.67c-0.17,-1.22 -1.06,-2.21 -2.25,-2.48l-39.82,-9.2l-0.04,4.67c-0.04,4.67 -1.96,8.9 -5.05,11.95c-3.08,3.06 -7.32,4.94 -12,4.94c-9.3,0 -16.83,-7.59 -16.74,-16.89l0.26,-28.93c0.08,-9.46 7.9,-17.43 17.35,-17.18c9.17,0.24 16.49,7.78 16.44,16.98l39.53,-9.27c1.2,-0.28 2.09,-1.27 2.25,-2.49c3.1,-23 10.67,-44.59 21.8,-63.87c0.62,-1.08 0.51,-2.43 -0.3,-3.39l-18.85,-22.14l-1.64,2.16c-5.08,6.72 -14.78,7.89 -21.33,2.44c-6.14,-5.12 -6.89,-14.3 -2.07,-20.67l12.56,-16.6c2.92,-3.85 7.35,-5.88 11.84,-5.88c3.11,0 6.25,0.98 8.93,3c6.21,4.69 7.67,13.31 3.57,19.77l26.36,11.4c1.16,0.5 2.5,0.2 3.36,-0.73c12.44,-13.64 27.01,-25.3 43.19,-34.47c1.06,-0.61 1.65,-1.8 1.47,-3.01l-6.07,-40.41l-5.76,2.22c-8.24,3.17 -17.53,-1.16 -20.34,-9.64c-2.64,-7.95 1.78,-16.54 9.59,-19.54l29.38,-11.3c8.25,-3.17 17.53,1.15 20.34,9.64c2.64,7.94 -1.77,16.53 -9.59,19.54l-0.79,0.3l23.12,33.34c0.7,1.01 1.94,1.47 3.13,1.18c13.42,-3.29 27.43,-5.03 41.86,-5.03l0.02,0c1.26,0 2.39,-0.77 2.81,-1.96l7.66,-21.42c-8.87,-2.78 -14.78,-11.53 -13.65,-21.07c1.29,-10.81 11.64,-18.49 22.45,-17.13l10.52,1.32c10.72,1.35 18.76,10.95 17.59,21.7c-0.92,8.37 -6.94,14.89 -14.58,16.89l2.66,23.22c0.14,1.25 1.07,2.27 2.31,2.54c17.78,3.91 34.55,10.52 49.85,19.37c1.07,0.61 2.39,0.52 3.34,-0.26l31.73,-25.75l-4.82,-3.83c-6.93,-5.5 -7.91,-15.69 -2.03,-22.42c5.5,-6.31 15.15,-6.87 21.7,-1.66l24.65,19.57c6.93,5.49 7.91,15.69 2.03,22.42c-5.5,6.3 -15.15,6.86 -21.7,1.66l-0.67,-0.53l-16.99,36.89c-0.52,1.11 -0.28,2.42 0.58,3.3c11.96,12.25 22.14,26.25 30.12,41.57c0.58,1.11 1.79,1.74 3.03,1.57l24.09,-3.37c-3.54,-9.88 1.71,-20.83 11.81,-24.14c9.63,-3.16 20.01,2.19 23.55,11.69l5.55,14.88c3.5,9.41 -0.7,20.18 -9.9,24.18c-8.82,3.83 -18.77,0.37 -23.51,-7.45l-19.99,13.56c-1.05,0.71 -1.52,2.01 -1.18,3.23c4.11,14.9 6.31,30.58 6.31,46.78c0,2.71 -0.06,5.4 -0.19,8.07c-0.05,1.23 0.64,2.36 1.76,2.85l37.48,16.37l1.18,-6.05c1.66,-8.43 9.83,-13.92 18.25,-12.27z"/>
       </g>
      </g>
      <g>
           <animate
          attributeName="opacity"
          dur="1s"
          values="0;1;0"
          repeatCount="indefinite"
          begin="0.1"/>
        <ellipse stroke="null" id="svg_102" ry="20.699" rx="24.756" fill="#000000" cy="5024.964117" cx="10739.384824"/>
        <circle stroke="null" id="svg_103" r="27.059" fill="#000000" cy="5153.865117" cx="10650.047824"/>
        <circle stroke="null" id="svg_104" class="active-path" r="19.374001" fill="#747474" cy="5139.768117" cx="10755.504824"/>
        <circle stroke="null" id="svg_105" class="active-path" r="18.836" fill="#747474" cy="5234.316117" cx="10683.952824"/>
      </g>
      <g stroke="null" id="svg_106">
       <path stroke="null" id="svg_107" fill="#272727" d="m10556.608824,5102.896117c0,-67.408 32.157,-127.319 81.946,-165.228c-5.813,0.82 -11.552,1.928 -17.17,3.306c-1.19,0.29 -2.43,-0.17 -3.13,-1.18l-23.12,-33.34l0.79,-0.3c7.82,-3.01 12.23,-11.6 9.59,-19.54c-2.81,-8.49 -12.09,-12.81 -20.34,-9.64l-29.38,11.3c-7.81,3 -12.23,11.59 -9.59,19.54c2.81,8.48 12.1,12.81 20.34,9.64l5.76,-2.22l6.07,40.41c0.18,1.21 -0.41,2.4 -1.47,3.01c-16.18,9.17 -30.75,20.83 -43.19,34.47c-0.86,0.93 -2.2,1.23 -3.36,0.73l-26.36,-11.4c4.1,-6.46 2.64,-15.08 -3.57,-19.77c-2.68,-2.02 -5.82,-3 -8.93,-3c-4.49,0 -8.92,2.03 -11.84,5.88l-12.56,16.6c-4.82,6.37 -4.07,15.55 2.07,20.67c6.55,5.45 16.25,4.28 21.33,-2.44l1.64,-2.16l18.85,22.14c0.81,0.96 0.92,2.31 0.3,3.39c-11.13,19.28 -18.7,40.87 -21.8,63.87c-0.16,1.22 -1.05,2.21 -2.25,2.49l-39.53,9.27c0.05,-9.2 -7.27,-16.74 -16.44,-16.98c-9.45,-0.25 -17.27,7.72 -17.35,17.18l-0.26,28.93c-0.09,9.3 7.44,16.89 16.74,16.89c4.68,0 8.92,-1.88 12,-4.94c3.09,-3.05 5.01,-7.28 5.05,-11.95l0.04,-4.67l39.82,9.2c1.19,0.27 2.08,1.26 2.25,2.48c3.01,21.75 10.01,42.23 20.24,60.67c0.61,1.09 0.47,2.45 -0.36,3.39l-24.92,28.16c-5.57,-7.37 -16.18,-8.89 -23.62,-3.03c-6.98,5.5 -8.16,15.66 -3.09,22.95l9.06,13.05c5.2,7.48 15.49,9.81 23.11,4.8c7.3,-4.8 9.55,-14.28 5.55,-21.76l35.38,-14.51c1.14,-0.47 2.45,-0.17 3.29,0.74c13.87,15.07 30.34,27.7 48.7,37.18c1.09,0.57 1.73,1.73 1.59,2.95l-4.8,43.37l-0.67,-0.24c-9.96,-3.63 -21.39,1.43 -24.83,11.46c-3.35,9.73 1.71,20.38 11.41,23.91l28.99,10.57c10.4,3.8 18.91,-2.16 18.91,-13.23c0.78,-2.14 1.15,-4.33 1.15,-6.49c0,-7.72 -4.76,-14.97 -12.44,-17.77l-0.83,-0.3l23.59,-37.01c0.66,-1.03 1.89,-1.54 3.09,-1.3c11.37,2.32 23.13,3.55 35.19,3.55c1.419,0 2.861,-0.018 4.272,-0.051c-65.927,-34.765 -110.908,-103.985 -110.908,-183.697z"/>
      </g>
      <circle stroke="null" id="svg_108" r="19.622" fill="#000000" cy="5189.259117" cx="10566.091824"/>
      <g stroke="null" id="svg_109">
       <path stroke="null" id="svg_110" class="active-path" fill="#747474" d="m10711.313824,5102.896117l-6.63,0c-4.143,0 -7.5,-3.358 -7.5,-7.5s3.357,-7.5 7.5,-7.5l6.63,0c4.143,0 7.5,3.358 7.5,7.5s-3.357,7.5 -7.5,7.5z"/>
      </g>
      <g stroke="null" id="svg_111">
       <path stroke="null" id="svg_112" class="active-path" fill="#747474" d="m10622.987824,5233.996117l-6.812,0c-4.143,0 -7.5,-3.358 -7.5,-7.5s3.357,-7.5 7.5,-7.5l6.812,0c4.143,0 7.5,3.358 7.5,7.5s-3.357,7.5 -7.5,7.5z"/>
      </g>
      <g stroke="null" id="svg_113">
       <path stroke="null" id="svg_114" fill="#000000" d="m10553.030824,5124.774117l-6.562,0c-4.143,0 -7.5,-3.358 -7.5,-7.5s3.357,-7.5 7.5,-7.5l6.562,0c4.143,0 7.5,3.358 7.5,7.5s-3.357,7.5 -7.5,7.5z"/>
      </g>
      <g stroke="null" id="svg_115">
       <path stroke="null" id="svg_116" class="active-path" fill="#747474" d="m10686.237824,4993.557117l-9.132,0c-4.143,0 -7.5,-3.358 -7.5,-7.5s3.357,-7.5 7.5,-7.5l9.132,0c4.143,0 7.5,3.358 7.5,7.5s-3.357,7.5 -7.5,7.5z"/>
      </g>
      <g stroke="null" id="svg_117">
       <path stroke="null" id="svg_118" fill="#000000" d="m10746.214824,5209.581117l-10.084,0c-4.143,0 -7.5,-3.358 -7.5,-7.5s3.357,-7.5 7.5,-7.5l10.084,0c4.143,0 7.5,3.358 7.5,7.5s-3.358,7.5 -7.5,7.5z"/>
      </g>
     </g>
     <ellipse stroke="null" id="svg_119" transform="matrix(0.785,-0.619,0.619,0.785,-68.073,156.437) " ry="43.139" rx="51.654" fill="#000000" cy="10451.127801" cx="5355.3411"/>
    </g>
   </g>
  </g>
  <g opacity="0.25" stroke="null" transform="rotate(41.02869415283203 155.41462707519528,138.99871826171878) " id="svg_150">
    <animateTransform
      attributeName="transform"
      dur="20s"
      type="rotate"
      from="0 60 100"
      to="360 60 100"
      repeatCount="indefinite" />
   <g stroke="null" transform="matrix(0.7477919939569796,0,0,0.7642036398329637,-6612.586237054576,-3538.050143773137) " id="svg_127">
    <g stroke="null" id="svg_128">
     <g stroke="null" id="svg_129">
      <g stroke="null" id="svg_125">
       <g stroke="null" id="svg_130">
        <path stroke="null" id="svg_131" fill="#3d3d3d" d="m9286.069824,4814.598866c8.43,1.66 13.92,9.83 12.27,18.25l-6.15,31.32c-1.7,8.67 -10.3,14.23 -18.98,12.1c-8.13,-1.99 -13.06,-10.3 -11.45,-18.51l0.17,-0.84l-40.54,1.85c-1.22,0.05 -2.28,0.86 -2.66,2.03c-3.96,11.96 -9.17,23.36 -15.48,34.02c-0.64,1.08 -0.54,2.45 0.27,3.41l17.93,21.3c3.56,-3.39 8.21,-5.15 12.91,-5.15c3.96,0 7.96,1.25 11.35,3.85c8.21,6.28 9.77,18.03 3.49,26.25l-5.2,6.79c-6.1,7.98 -17.47,10.12 -25.75,4.41c-7.13,-4.91 -9.71,-13.74 -7.13,-21.41l-25.83,-11.35c-1.17,-0.51 -2.52,-0.21 -3.37,0.73c-11.96,13.13 -25.88,24.43 -41.3,33.45c-1.06,0.62 -1.63,1.82 -1.43,3.03l6.61,40.32l5.72,-2.29c8.21,-3.28 17.55,0.92 20.48,9.37c2.74,7.91 -1.56,16.56 -9.33,19.66l-29.23,11.7c-8.2,3.28 -17.54,-0.92 -20.47,-9.37c-2.74,-7.91 1.56,-16.56 9.33,-19.67l0.79,-0.31l-23.58,-33.04c-0.71,-1 -1.96,-1.44 -3.15,-1.13c-14.09,3.65 -28.87,5.61 -44.11,5.61c-12.06,0 -23.82,-1.23 -35.19,-3.55c-1.2,-0.24 -2.43,0.27 -3.09,1.3l-23.59,37.01l0.83,0.3c7.68,2.8 12.44,10.05 12.44,17.77c0,2.16 -0.37,4.35 -1.15,6.49c0,11.07 -8.51,17.03 -18.91,13.23l-28.99,-10.57c-9.7,-3.53 -14.76,-14.18 -11.41,-23.91c3.44,-10.03 14.87,-15.09 24.83,-11.46l0.67,0.24l4.8,-43.37c0.14,-1.22 -0.5,-2.38 -1.59,-2.95c-18.36,-9.48 -34.83,-22.11 -48.7,-37.18c-0.84,-0.91 -2.15,-1.21 -3.29,-0.74l-35.38,14.51c4,7.48 1.75,16.96 -5.55,21.76c-7.62,5.01 -17.91,2.68 -23.11,-4.8l-9.06,-13.05c-5.07,-7.29 -3.89,-17.45 3.09,-22.95c7.44,-5.86 18.05,-4.34 23.62,3.03l24.92,-28.16c0.83,-0.94 0.97,-2.3 0.36,-3.39c-10.23,-18.44 -17.23,-38.92 -20.24,-60.67c-0.17,-1.22 -1.06,-2.21 -2.25,-2.48l-39.82,-9.2l-0.04,4.67c-0.04,4.67 -1.96,8.9 -5.05,11.95c-3.08,3.06 -7.32,4.94 -12,4.94c-9.3,0 -16.83,-7.59 -16.74,-16.89l0.26,-28.93c0.08,-9.46 7.9,-17.43 17.35,-17.18c9.17,0.24 16.49,7.78 16.44,16.98l39.53,-9.27c1.2,-0.28 2.09,-1.27 2.25,-2.49c3.1,-23 10.67,-44.59 21.8,-63.87c0.62,-1.08 0.51,-2.43 -0.3,-3.39l-18.85,-22.14l-1.64,2.16c-5.08,6.72 -14.78,7.89 -21.33,2.44c-6.14,-5.12 -6.89,-14.3 -2.07,-20.67l12.56,-16.6c2.92,-3.85 7.35,-5.88 11.84,-5.88c3.11,0 6.25,0.98 8.93,3c6.21,4.69 7.67,13.31 3.57,19.77l26.36,11.4c1.16,0.5 2.5,0.2 3.36,-0.73c12.44,-13.64 27.01,-25.3 43.19,-34.47c1.06,-0.61 1.65,-1.8 1.47,-3.01l-6.07,-40.41l-5.76,2.22c-8.24,3.17 -17.53,-1.16 -20.34,-9.64c-2.64,-7.95 1.78,-16.54 9.59,-19.54l29.38,-11.3c8.25,-3.17 17.53,1.15 20.34,9.64c2.64,7.94 -1.77,16.53 -9.59,19.54l-0.79,0.3l23.12,33.34c0.7,1.01 1.94,1.47 3.13,1.18c13.42,-3.29 27.43,-5.03 41.86,-5.03l0.02,0c1.26,0 2.39,-0.77 2.81,-1.96l7.66,-21.42c-8.87,-2.78 -14.78,-11.53 -13.65,-21.07c1.29,-10.81 11.64,-18.49 22.45,-17.13l10.52,1.32c10.72,1.35 18.76,10.95 17.59,21.7c-0.92,8.37 -6.94,14.89 -14.58,16.89l2.66,23.22c0.14,1.25 1.07,2.27 2.31,2.54c17.78,3.91 34.55,10.52 49.85,19.37c1.07,0.61 2.39,0.52 3.34,-0.26l31.73,-25.75l-4.82,-3.83c-6.93,-5.5 -7.91,-15.69 -2.03,-22.42c5.5,-6.31 15.15,-6.87 21.7,-1.66l24.65,19.57c6.93,5.49 7.91,15.69 2.03,22.42c-5.5,6.3 -15.15,6.86 -21.7,1.66l-0.67,-0.53l-16.99,36.89c-0.52,1.11 -0.28,2.42 0.58,3.3c11.96,12.25 22.14,26.25 30.12,41.57c0.58,1.11 1.79,1.74 3.03,1.57l24.09,-3.37c-3.54,-9.88 1.71,-20.83 11.81,-24.14c9.63,-3.16 20.01,2.19 23.55,11.69l5.55,14.88c3.5,9.41 -0.7,20.18 -9.9,24.18c-8.82,3.83 -18.77,0.37 -23.51,-7.45l-19.99,13.56c-1.05,0.71 -1.52,2.01 -1.18,3.23c4.11,14.9 6.31,30.58 6.31,46.78c0,2.71 -0.06,5.4 -0.19,8.07c-0.05,1.23 0.64,2.36 1.76,2.85l37.48,16.37l1.18,-6.05c1.66,-8.43 9.83,-13.92 18.25,-12.27z"/>
       </g>
      </g>
      <g>
          <animate
          attributeName="opacity"
          dur="1s"
          values="0;1;0"
          repeatCount="indefinite"
          begin="0.1"/>
        <ellipse stroke="null" id="svg_132" ry="20.699" rx="24.756" fill="#000000" cy="4719.298866" cx="9128.389824"/>
        <circle stroke="null" id="svg_133" r="27.059082" fill="#000000" cy="4848.199866" cx="9039.052824"/>
        <circle stroke="null" id="svg_134" class="active-path" r="19.374023" fill="#747474" cy="4834.102866" cx="9144.509824"/>
        <circle stroke="null" id="svg_135" class="active-path" r="18.835938" fill="#747474" cy="4928.650866" cx="9072.957824"/>
      </g>
      <g stroke="null" id="svg_136">
       <path stroke="null" id="svg_137" fill="#272727" d="m8945.613824,4797.230866c0,-67.408 32.157,-127.319 81.946,-165.228c-5.813,0.82 -11.552,1.928 -17.17,3.306c-1.19,0.29 -2.43,-0.17 -3.13,-1.18l-23.12,-33.34l0.79,-0.3c7.82,-3.01 12.23,-11.6 9.59,-19.54c-2.81,-8.49 -12.09,-12.81 -20.34,-9.64l-29.38,11.3c-7.81,3 -12.23,11.59 -9.59,19.54c2.81,8.48 12.1,12.81 20.34,9.64l5.76,-2.22l6.07,40.41c0.18,1.21 -0.41,2.4 -1.47,3.01c-16.18,9.17 -30.75,20.83 -43.19,34.47c-0.86,0.93 -2.2,1.23 -3.36,0.73l-26.36,-11.4c4.1,-6.46 2.64,-15.08 -3.57,-19.77c-2.68,-2.02 -5.82,-3 -8.93,-3c-4.49,0 -8.92,2.03 -11.84,5.88l-12.56,16.6c-4.82,6.37 -4.07,15.55 2.07,20.67c6.55,5.45 16.25,4.28 21.33,-2.44l1.64,-2.16l18.85,22.14c0.81,0.96 0.92,2.31 0.3,3.39c-11.13,19.28 -18.7,40.87 -21.8,63.87c-0.16,1.22 -1.05,2.21 -2.25,2.49l-39.53,9.27c0.05,-9.2 -7.27,-16.74 -16.44,-16.98c-9.45,-0.25 -17.27,7.72 -17.35,17.18l-0.26,28.93c-0.09,9.3 7.44,16.89 16.74,16.89c4.68,0 8.92,-1.88 12,-4.94c3.09,-3.05 5.01,-7.28 5.05,-11.95l0.04,-4.67l39.82,9.2c1.19,0.27 2.08,1.26 2.25,2.48c3.01,21.75 10.01,42.23 20.24,60.67c0.61,1.09 0.47,2.45 -0.36,3.39l-24.92,28.16c-5.57,-7.37 -16.18,-8.89 -23.62,-3.03c-6.98,5.5 -8.16,15.66 -3.09,22.95l9.06,13.05c5.2,7.48 15.49,9.81 23.11,4.8c7.3,-4.8 9.55,-14.28 5.55,-21.76l35.38,-14.51c1.14,-0.47 2.45,-0.17 3.29,0.74c13.87,15.07 30.34,27.7 48.7,37.18c1.09,0.57 1.73,1.73 1.59,2.95l-4.8,43.37l-0.67,-0.24c-9.96,-3.63 -21.39,1.43 -24.83,11.46c-3.35,9.73 1.71,20.38 11.41,23.91l28.99,10.57c10.4,3.8 18.91,-2.16 18.91,-13.23c0.78,-2.14 1.15,-4.33 1.15,-6.49c0,-7.72 -4.76,-14.97 -12.44,-17.77l-0.83,-0.3l23.59,-37.01c0.66,-1.03 1.89,-1.54 3.09,-1.3c11.37,2.32 23.13,3.55 35.19,3.55c1.419,0 2.861,-0.018 4.272,-0.051c-65.927,-34.765 -110.908,-103.985 -110.908,-183.697z"/>
      </g>
      <circle stroke="null" id="svg_138" r="19.62207" fill="#000000" cy="4883.593866" cx="8955.096824"/>
      <g stroke="null" id="svg_139">
       <path stroke="null" id="svg_140" class="active-path" fill="#747474" d="m9100.318824,4797.230866l-6.63,0c-4.143,0 -7.5,-3.358 -7.5,-7.5s3.357,-7.5 7.5,-7.5l6.63,0c4.143,0 7.5,3.358 7.5,7.5s-3.357,7.5 -7.5,7.5z"/>
      </g>
      <g stroke="null" id="svg_141">
       <path stroke="null" id="svg_142" class="active-path" fill="#747474" d="m9011.992824,4928.330866l-6.812,0c-4.143,0 -7.5,-3.358 -7.5,-7.5s3.357,-7.5 7.5,-7.5l6.812,0c4.143,0 7.5,3.358 7.5,7.5s-3.357,7.5 -7.5,7.5z"/>
      </g>
      <g stroke="null" id="svg_143">
       <path stroke="null" id="svg_144" fill="#000000" d="m8942.035824,4819.108866l-6.562,0c-4.143,0 -7.5,-3.358 -7.5,-7.5s3.357,-7.5 7.5,-7.5l6.562,0c4.143,0 7.5,3.358 7.5,7.5s-3.357,7.5 -7.5,7.5z"/>
      </g>
      <g stroke="null" id="svg_145">
       <path stroke="null" id="svg_146" class="active-path" fill="#747474" d="m9075.242824,4687.891866l-9.132,0c-4.143,0 -7.5,-3.358 -7.5,-7.5s3.357,-7.5 7.5,-7.5l9.132,0c4.143,0 7.5,3.358 7.5,7.5s-3.357,7.5 -7.5,7.5z"/>
      </g>
      <g stroke="null" id="svg_147">
       <path stroke="null" id="svg_148" fill="#000000" d="m9135.219824,4903.915866l-10.084,0c-4.143,0 -7.5,-3.358 -7.5,-7.5s3.357,-7.5 7.5,-7.5l10.084,0c4.143,0 7.5,3.358 7.5,7.5s-3.358,7.5 -7.5,7.5z"/>
      </g>
     </g>
     <ellipse stroke="null" id="svg_149" transform="matrix(0.785,-0.619,0.619,0.785,-68.073,156.437) " ry="43.139" rx="51.654" fill="#000000" cy="9213.214595" cx="4279.256099"/>
    </g>
   </g>
  </g>
  <g transform="rotate(-141.8307342529297 553.9985961914062,453.99963378906244) " stroke="null" opacity="0.25" id="svg_180"> 
    <animateTransform
      attributeName="transform"
      dur="15"
      type="rotate"
      from="360 500 400"
      to="0 500 400"
      repeatCount="indefinite" />
   <g stroke="null" transform="matrix(0.3384132789514875,0,0,0.3438005393987369,-3045.7816124949054,-1230.8872601989046) " id="svg_157">
    <g stroke="null" id="svg_158">
     <g stroke="null" id="svg_159">
      <g stroke="null" id="svg_155">
       <g stroke="null" id="svg_160">
        <path stroke="null" id="svg_161" fill="#3d3d3d" d="m10872.654477,4903.758471c8.43,1.66 13.92,9.83 12.27,18.25l-6.15,31.32c-1.7,8.67 -10.3,14.23 -18.98,12.1c-8.13,-1.99 -13.06,-10.3 -11.45,-18.51l0.17,-0.84l-40.54,1.85c-1.22,0.05 -2.28,0.86 -2.66,2.03c-3.96,11.96 -9.17,23.36 -15.48,34.02c-0.64,1.08 -0.54,2.45 0.27,3.41l17.93,21.3c3.56,-3.39 8.21,-5.15 12.91,-5.15c3.96,0 7.96,1.25 11.35,3.85c8.21,6.28 9.77,18.03 3.49,26.25l-5.2,6.79c-6.1,7.98 -17.47,10.12 -25.75,4.41c-7.13,-4.91 -9.71,-13.74 -7.13,-21.41l-25.83,-11.35c-1.17,-0.51 -2.52,-0.21 -3.37,0.73c-11.96,13.13 -25.88,24.43 -41.3,33.45c-1.06,0.62 -1.63,1.82 -1.43,3.03l6.61,40.32l5.72,-2.29c8.21,-3.28 17.55,0.92 20.48,9.37c2.74,7.91 -1.56,16.56 -9.33,19.66l-29.23,11.7c-8.2,3.28 -17.54,-0.92 -20.47,-9.37c-2.74,-7.91 1.56,-16.56 9.33,-19.67l0.79,-0.31l-23.58,-33.04c-0.71,-1 -1.96,-1.44 -3.15,-1.13c-14.09,3.65 -28.87,5.61 -44.11,5.61c-12.06,0 -23.82,-1.23 -35.19,-3.55c-1.2,-0.24 -2.43,0.27 -3.09,1.3l-23.59,37.01l0.83,0.3c7.68,2.8 12.44,10.05 12.44,17.77c0,2.16 -0.37,4.35 -1.15,6.49c0,11.07 -8.51,17.03 -18.91,13.23l-28.99,-10.57c-9.7,-3.53 -14.76,-14.18 -11.41,-23.91c3.44,-10.03 14.87,-15.09 24.83,-11.46l0.67,0.24l4.8,-43.37c0.14,-1.22 -0.5,-2.38 -1.59,-2.95c-18.36,-9.48 -34.83,-22.11 -48.7,-37.18c-0.84,-0.91 -2.15,-1.21 -3.29,-0.74l-35.38,14.51c4,7.48 1.75,16.96 -5.55,21.76c-7.62,5.01 -17.91,2.68 -23.11,-4.8l-9.06,-13.05c-5.07,-7.29 -3.89,-17.45 3.09,-22.95c7.44,-5.86 18.05,-4.34 23.62,3.03l24.92,-28.16c0.83,-0.94 0.97,-2.3 0.36,-3.39c-10.23,-18.44 -17.23,-38.92 -20.24,-60.67c-0.17,-1.22 -1.06,-2.21 -2.25,-2.48l-39.82,-9.2l-0.04,4.67c-0.04,4.67 -1.96,8.9 -5.05,11.95c-3.08,3.06 -7.32,4.94 -12,4.94c-9.3,0 -16.83,-7.59 -16.74,-16.89l0.26,-28.93c0.08,-9.46 7.9,-17.43 17.35,-17.18c9.17,0.24 16.49,7.78 16.44,16.98l39.53,-9.27c1.2,-0.28 2.09,-1.27 2.25,-2.49c3.1,-23 10.67,-44.59 21.8,-63.87c0.62,-1.08 0.51,-2.43 -0.3,-3.39l-18.85,-22.14l-1.64,2.16c-5.08,6.72 -14.78,7.89 -21.33,2.44c-6.14,-5.12 -6.89,-14.3 -2.07,-20.67l12.56,-16.6c2.92,-3.85 7.35,-5.88 11.84,-5.88c3.11,0 6.25,0.98 8.93,3c6.21,4.69 7.67,13.31 3.57,19.77l26.36,11.4c1.16,0.5 2.5,0.2 3.36,-0.73c12.44,-13.64 27.01,-25.3 43.19,-34.47c1.06,-0.61 1.65,-1.8 1.47,-3.01l-6.07,-40.41l-5.76,2.22c-8.24,3.17 -17.53,-1.16 -20.34,-9.64c-2.64,-7.95 1.78,-16.54 9.59,-19.54l29.38,-11.3c8.25,-3.17 17.53,1.15 20.34,9.64c2.64,7.94 -1.77,16.53 -9.59,19.54l-0.79,0.3l23.12,33.34c0.7,1.01 1.94,1.47 3.13,1.18c13.42,-3.29 27.43,-5.03 41.86,-5.03l0.02,0c1.26,0 2.39,-0.77 2.81,-1.96l7.66,-21.42c-8.87,-2.78 -14.78,-11.53 -13.65,-21.07c1.29,-10.81 11.64,-18.49 22.45,-17.13l10.52,1.32c10.72,1.35 18.76,10.95 17.59,21.7c-0.92,8.37 -6.94,14.89 -14.58,16.89l2.66,23.22c0.14,1.25 1.07,2.27 2.31,2.54c17.78,3.91 34.55,10.52 49.85,19.37c1.07,0.61 2.39,0.52 3.34,-0.26l31.73,-25.75l-4.82,-3.83c-6.93,-5.5 -7.91,-15.69 -2.03,-22.42c5.5,-6.31 15.15,-6.87 21.7,-1.66l24.65,19.57c6.93,5.49 7.91,15.69 2.03,22.42c-5.5,6.3 -15.15,6.86 -21.7,1.66l-0.67,-0.53l-16.99,36.89c-0.52,1.11 -0.28,2.42 0.58,3.3c11.96,12.25 22.14,26.25 30.12,41.57c0.58,1.11 1.79,1.74 3.03,1.57l24.09,-3.37c-3.54,-9.88 1.71,-20.83 11.81,-24.14c9.63,-3.16 20.01,2.19 23.55,11.69l5.55,14.88c3.5,9.41 -0.7,20.18 -9.9,24.18c-8.82,3.83 -18.77,0.37 -23.51,-7.45l-19.99,13.56c-1.05,0.71 -1.52,2.01 -1.18,3.23c4.11,14.9 6.31,30.58 6.31,46.78c0,2.71 -0.06,5.4 -0.19,8.07c-0.05,1.23 0.64,2.36 1.76,2.85l37.48,16.37l1.18,-6.05c1.66,-8.43 9.83,-13.92 18.25,-12.27z"/>
       </g>
      </g>
      <g>
          <animate
          attributeName="opacity"
          dur="1s"
          values="0;1;0"
          repeatCount="indefinite"
          begin="0.1"/>
        <ellipse stroke="null" id="svg_162" ry="20.699" rx="24.756" fill="#000000" cy="4808.458471" cx="10714.974477"/>
        <circle stroke="null" id="svg_163" r="27.059" fill="#000000" cy="4937.359471" cx="10625.637477"/>
        <circle stroke="null" id="svg_164" class="active-path" r="19.374001" fill="#747474" cy="4923.262471" cx="10731.094477"/>
        <circle stroke="null" id="svg_165" class="active-path" r="18.836" fill="#747474" cy="5017.810471" cx="10659.542477"/>
      </g>
      <g stroke="null" id="svg_166">
       <path stroke="null" id="svg_167" fill="#272727" d="m10532.198477,4886.390471c0,-67.408 32.157,-127.319 81.946,-165.228c-5.813,0.82 -11.552,1.928 -17.17,3.306c-1.19,0.29 -2.43,-0.17 -3.13,-1.18l-23.12,-33.34l0.79,-0.3c7.82,-3.01 12.23,-11.6 9.59,-19.54c-2.81,-8.49 -12.09,-12.81 -20.34,-9.64l-29.38,11.3c-7.81,3 -12.23,11.59 -9.59,19.54c2.81,8.48 12.1,12.81 20.34,9.64l5.76,-2.22l6.07,40.41c0.18,1.21 -0.41,2.4 -1.47,3.01c-16.18,9.17 -30.75,20.83 -43.19,34.47c-0.86,0.93 -2.2,1.23 -3.36,0.73l-26.36,-11.4c4.1,-6.46 2.64,-15.08 -3.57,-19.77c-2.68,-2.02 -5.82,-3 -8.93,-3c-4.49,0 -8.92,2.03 -11.84,5.88l-12.56,16.6c-4.82,6.37 -4.07,15.55 2.07,20.67c6.55,5.45 16.25,4.28 21.33,-2.44l1.64,-2.16l18.85,22.14c0.81,0.96 0.92,2.31 0.3,3.39c-11.13,19.28 -18.7,40.87 -21.8,63.87c-0.16,1.22 -1.05,2.21 -2.25,2.49l-39.53,9.27c0.05,-9.2 -7.27,-16.74 -16.44,-16.98c-9.45,-0.25 -17.27,7.72 -17.35,17.18l-0.26,28.93c-0.09,9.3 7.44,16.89 16.74,16.89c4.68,0 8.92,-1.88 12,-4.94c3.09,-3.05 5.01,-7.28 5.05,-11.95l0.04,-4.67l39.82,9.2c1.19,0.27 2.08,1.26 2.25,2.48c3.01,21.75 10.01,42.23 20.24,60.67c0.61,1.09 0.47,2.45 -0.36,3.39l-24.92,28.16c-5.57,-7.37 -16.18,-8.89 -23.62,-3.03c-6.98,5.5 -8.16,15.66 -3.09,22.95l9.06,13.05c5.2,7.48 15.49,9.81 23.11,4.8c7.3,-4.8 9.55,-14.28 5.55,-21.76l35.38,-14.51c1.14,-0.47 2.45,-0.17 3.29,0.74c13.87,15.07 30.34,27.7 48.7,37.18c1.09,0.57 1.73,1.73 1.59,2.95l-4.8,43.37l-0.67,-0.24c-9.96,-3.63 -21.39,1.43 -24.83,11.46c-3.35,9.73 1.71,20.38 11.41,23.91l28.99,10.57c10.4,3.8 18.91,-2.16 18.91,-13.23c0.78,-2.14 1.15,-4.33 1.15,-6.49c0,-7.72 -4.76,-14.97 -12.44,-17.77l-0.83,-0.3l23.59,-37.01c0.66,-1.03 1.89,-1.54 3.09,-1.3c11.37,2.32 23.13,3.55 35.19,3.55c1.419,0 2.861,-0.018 4.272,-0.051c-65.927,-34.765 -110.908,-103.985 -110.908,-183.697z"/>
      </g>
      <circle stroke="null" id="svg_168" r="19.622" fill="#000000" cy="4972.753471" cx="10541.681477"/>
      <g stroke="null" id="svg_169">
       <path stroke="null" id="svg_170" class="active-path" fill="#747474" d="m10686.903477,4886.390471l-6.63,0c-4.143,0 -7.5,-3.358 -7.5,-7.5s3.357,-7.5 7.5,-7.5l6.63,0c4.143,0 7.5,3.358 7.5,7.5s-3.357,7.5 -7.5,7.5z"/>
      </g>
      <g stroke="null" id="svg_171">
       <path stroke="null" id="svg_172" class="active-path" fill="#747474" d="m10598.577477,5017.490471l-6.812,0c-4.143,0 -7.5,-3.358 -7.5,-7.5s3.357,-7.5 7.5,-7.5l6.812,0c4.143,0 7.5,3.358 7.5,7.5s-3.357,7.5 -7.5,7.5z"/>
      </g>
      <g stroke="null" id="svg_173">
       <path stroke="null" id="svg_174" fill="#000000" d="m10528.620477,4908.268471l-6.562,0c-4.143,0 -7.5,-3.358 -7.5,-7.5s3.357,-7.5 7.5,-7.5l6.562,0c4.143,0 7.5,3.358 7.5,7.5s-3.357,7.5 -7.5,7.5z"/>
      </g>
      <g stroke="null" id="svg_175">
       <path stroke="null" id="svg_176" class="active-path" fill="#747474" d="m10661.827477,4777.051471l-9.132,0c-4.143,0 -7.5,-3.358 -7.5,-7.5s3.357,-7.5 7.5,-7.5l9.132,0c4.143,0 7.5,3.358 7.5,7.5s-3.357,7.5 -7.5,7.5z"/>
      </g>
      <g stroke="null" id="svg_177">
       <path stroke="null" id="svg_178" fill="#000000" d="m10721.804477,4993.075471l-10.084,0c-4.143,0 -7.5,-3.358 -7.5,-7.5s3.357,-7.5 7.5,-7.5l10.084,0c4.143,0 7.5,3.358 7.5,7.5s-3.358,7.5 -7.5,7.5z"/>
      </g>
     </g>
     <ellipse stroke="null" id="svg_179" transform="matrix(0.785,-0.619,0.619,0.785,-68.073,156.437) " ry="43.139" rx="51.654" fill="#000000" cy="10265.947163" cx="5470.266536"/>
    </g>
   </g>
  </g>
  <g opacity="0.25" transform="rotate(-152.90489196777344 118.99937438964848,681.9999389648439) " stroke="null" id="svg_210"> 
    <animateTransform
      attributeName="transform"
      dur="7s"
      type="rotate"
      from="-5 100 48"
      to="5 100 52"
      repeatCount="indefinite" />
   <g stroke="null" transform="matrix(0.479550078744775,0,0,0.4672239584989267,-4125.63776986819,-2089.9843456616363) " id="svg_187">
    <g stroke="null" id="svg_188">
     <g stroke="null" id="svg_189">
      <g stroke="null" id="svg_185">
       <g stroke="null" id="svg_190">
        <path stroke="null" id="svg_191" fill="#3d3d3d" d="m9086.714833,5935.871091c8.43,1.66 13.92,9.83 12.27,18.25l-6.15,31.32c-1.7,8.67 -10.3,14.23 -18.98,12.1c-8.13,-1.99 -13.06,-10.3 -11.45,-18.51l0.17,-0.84l-40.54,1.85c-1.22,0.05 -2.28,0.86 -2.66,2.03c-3.96,11.96 -9.17,23.36 -15.48,34.02c-0.64,1.08 -0.54,2.45 0.27,3.41l17.93,21.3c3.56,-3.39 8.21,-5.15 12.91,-5.15c3.96,0 7.96,1.25 11.35,3.85c8.21,6.28 9.77,18.03 3.49,26.25l-5.2,6.79c-6.1,7.98 -17.47,10.12 -25.75,4.41c-7.13,-4.91 -9.71,-13.74 -7.13,-21.41l-25.83,-11.35c-1.17,-0.51 -2.52,-0.21 -3.37,0.73c-11.96,13.13 -25.88,24.43 -41.3,33.45c-1.06,0.62 -1.63,1.82 -1.43,3.03l6.61,40.32l5.72,-2.29c8.21,-3.28 17.55,0.92 20.48,9.37c2.74,7.91 -1.56,16.56 -9.33,19.66l-29.23,11.7c-8.2,3.28 -17.54,-0.92 -20.47,-9.37c-2.74,-7.91 1.56,-16.56 9.33,-19.67l0.79,-0.31l-23.58,-33.04c-0.71,-1 -1.96,-1.44 -3.15,-1.13c-14.09,3.65 -28.87,5.61 -44.11,5.61c-12.06,0 -23.82,-1.23 -35.19,-3.55c-1.2,-0.24 -2.43,0.27 -3.09,1.3l-23.59,37.01l0.83,0.3c7.68,2.8 12.44,10.05 12.44,17.77c0,2.16 -0.37,4.35 -1.15,6.49c0,11.07 -8.51,17.03 -18.91,13.23l-28.99,-10.57c-9.7,-3.53 -14.76,-14.18 -11.41,-23.91c3.44,-10.03 14.87,-15.09 24.83,-11.46l0.67,0.24l4.8,-43.37c0.14,-1.22 -0.5,-2.38 -1.59,-2.95c-18.36,-9.48 -34.83,-22.11 -48.7,-37.18c-0.84,-0.91 -2.15,-1.21 -3.29,-0.74l-35.38,14.51c4,7.48 1.75,16.96 -5.55,21.76c-7.62,5.01 -17.91,2.68 -23.11,-4.8l-9.06,-13.05c-5.07,-7.29 -3.89,-17.45 3.09,-22.95c7.44,-5.86 18.05,-4.34 23.62,3.03l24.92,-28.16c0.83,-0.94 0.97,-2.3 0.36,-3.39c-10.23,-18.44 -17.23,-38.92 -20.24,-60.67c-0.17,-1.22 -1.06,-2.21 -2.25,-2.48l-39.82,-9.2l-0.04,4.67c-0.04,4.67 -1.96,8.9 -5.05,11.95c-3.08,3.06 -7.32,4.94 -12,4.94c-9.3,0 -16.83,-7.59 -16.74,-16.89l0.26,-28.93c0.08,-9.46 7.9,-17.43 17.35,-17.18c9.17,0.24 16.49,7.78 16.44,16.98l39.53,-9.27c1.2,-0.28 2.09,-1.27 2.25,-2.49c3.1,-23 10.67,-44.59 21.8,-63.87c0.62,-1.08 0.51,-2.43 -0.3,-3.39l-18.85,-22.14l-1.64,2.16c-5.08,6.72 -14.78,7.89 -21.33,2.44c-6.14,-5.12 -6.89,-14.3 -2.07,-20.67l12.56,-16.6c2.92,-3.85 7.35,-5.88 11.84,-5.88c3.11,0 6.25,0.98 8.93,3c6.21,4.69 7.67,13.31 3.57,19.77l26.36,11.4c1.16,0.5 2.5,0.2 3.36,-0.73c12.44,-13.64 27.01,-25.3 43.19,-34.47c1.06,-0.61 1.65,-1.8 1.47,-3.01l-6.07,-40.41l-5.76,2.22c-8.24,3.17 -17.53,-1.16 -20.34,-9.64c-2.64,-7.95 1.78,-16.54 9.59,-19.54l29.38,-11.3c8.25,-3.17 17.53,1.15 20.34,9.64c2.64,7.94 -1.77,16.53 -9.59,19.54l-0.79,0.3l23.12,33.34c0.7,1.01 1.94,1.47 3.13,1.18c13.42,-3.29 27.43,-5.03 41.86,-5.03l0.02,0c1.26,0 2.39,-0.77 2.81,-1.96l7.66,-21.42c-8.87,-2.78 -14.78,-11.53 -13.65,-21.07c1.29,-10.81 11.64,-18.49 22.45,-17.13l10.52,1.32c10.72,1.35 18.76,10.95 17.59,21.7c-0.92,8.37 -6.94,14.89 -14.58,16.89l2.66,23.22c0.14,1.25 1.07,2.27 2.31,2.54c17.78,3.91 34.55,10.52 49.85,19.37c1.07,0.61 2.39,0.52 3.34,-0.26l31.73,-25.75l-4.82,-3.83c-6.93,-5.5 -7.91,-15.69 -2.03,-22.42c5.5,-6.31 15.15,-6.87 21.7,-1.66l24.65,19.57c6.93,5.49 7.91,15.69 2.03,22.42c-5.5,6.3 -15.15,6.86 -21.7,1.66l-0.67,-0.53l-16.99,36.89c-0.52,1.11 -0.28,2.42 0.58,3.3c11.96,12.25 22.14,26.25 30.12,41.57c0.58,1.11 1.79,1.74 3.03,1.57l24.09,-3.37c-3.54,-9.88 1.71,-20.83 11.81,-24.14c9.63,-3.16 20.01,2.19 23.55,11.69l5.55,14.88c3.5,9.41 -0.7,20.18 -9.9,24.18c-8.82,3.83 -18.77,0.37 -23.51,-7.45l-19.99,13.56c-1.05,0.71 -1.52,2.01 -1.18,3.23c4.11,14.9 6.31,30.58 6.31,46.78c0,2.71 -0.06,5.4 -0.19,8.07c-0.05,1.23 0.64,2.36 1.76,2.85l37.48,16.37l1.18,-6.05c1.66,-8.43 9.83,-13.92 18.25,-12.27z"/>
       </g>
      </g>
      <g>
           <animate
          attributeName="opacity"
          dur="1s"
          values="0;1;0"
          repeatCount="indefinite"
          begin="0.1"/>
        <ellipse stroke="null" id="svg_192" ry="20.699" rx="24.756" fill="#000000" cy="5840.571091" cx="8929.034833"/>
        <circle stroke="null" id="svg_193" r="27.059" fill="#000000" cy="5969.472091" cx="8839.697833"/>
        <circle stroke="null" id="svg_194" class="active-path" r="19.374001" fill="#747474" cy="5955.375091" cx="8945.154833"/>
        <circle stroke="null" id="svg_195" class="active-path" r="18.836" fill="#747474" cy="6049.923091" cx="8873.602833"/>
      </g>
      <g stroke="null" id="svg_196">
       <path stroke="null" id="svg_197" fill="#272727" d="m8746.258833,5918.503091c0,-67.408 32.157,-127.319 81.946,-165.228c-5.813,0.82 -11.552,1.928 -17.17,3.306c-1.19,0.29 -2.43,-0.17 -3.13,-1.18l-23.12,-33.34l0.79,-0.3c7.82,-3.01 12.23,-11.6 9.59,-19.54c-2.81,-8.49 -12.09,-12.81 -20.34,-9.64l-29.38,11.3c-7.81,3 -12.23,11.59 -9.59,19.54c2.81,8.48 12.1,12.81 20.34,9.64l5.76,-2.22l6.07,40.41c0.18,1.21 -0.41,2.4 -1.47,3.01c-16.18,9.17 -30.75,20.83 -43.19,34.47c-0.86,0.93 -2.2,1.23 -3.36,0.73l-26.36,-11.4c4.1,-6.46 2.64,-15.08 -3.57,-19.77c-2.68,-2.02 -5.82,-3 -8.93,-3c-4.49,0 -8.92,2.03 -11.84,5.88l-12.56,16.6c-4.82,6.37 -4.07,15.55 2.07,20.67c6.55,5.45 16.25,4.28 21.33,-2.44l1.64,-2.16l18.85,22.14c0.81,0.96 0.92,2.31 0.3,3.39c-11.13,19.28 -18.7,40.87 -21.8,63.87c-0.16,1.22 -1.05,2.21 -2.25,2.49l-39.53,9.27c0.05,-9.2 -7.27,-16.74 -16.44,-16.98c-9.45,-0.25 -17.27,7.72 -17.35,17.18l-0.26,28.93c-0.09,9.3 7.44,16.89 16.74,16.89c4.68,0 8.92,-1.88 12,-4.94c3.09,-3.05 5.01,-7.28 5.05,-11.95l0.04,-4.67l39.82,9.2c1.19,0.27 2.08,1.26 2.25,2.48c3.01,21.75 10.01,42.23 20.24,60.67c0.61,1.09 0.47,2.45 -0.36,3.39l-24.92,28.16c-5.57,-7.37 -16.18,-8.89 -23.62,-3.03c-6.98,5.5 -8.16,15.66 -3.09,22.95l9.06,13.05c5.2,7.48 15.49,9.81 23.11,4.8c7.3,-4.8 9.55,-14.28 5.55,-21.76l35.38,-14.51c1.14,-0.47 2.45,-0.17 3.29,0.74c13.87,15.07 30.34,27.7 48.7,37.18c1.09,0.57 1.73,1.73 1.59,2.95l-4.8,43.37l-0.67,-0.24c-9.96,-3.63 -21.39,1.43 -24.83,11.46c-3.35,9.73 1.71,20.38 11.41,23.91l28.99,10.57c10.4,3.8 18.91,-2.16 18.91,-13.23c0.78,-2.14 1.15,-4.33 1.15,-6.49c0,-7.72 -4.76,-14.97 -12.44,-17.77l-0.83,-0.3l23.59,-37.01c0.66,-1.03 1.89,-1.54 3.09,-1.3c11.37,2.32 23.13,3.55 35.19,3.55c1.419,0 2.861,-0.018 4.272,-0.051c-65.927,-34.765 -110.908,-103.985 -110.908,-183.697z"/>
      </g>
      <circle stroke="null" id="svg_198" r="19.622" fill="#000000" cy="6004.866091" cx="8755.741833"/>
      <g stroke="null" id="svg_199">
       <path stroke="null" id="svg_200" class="active-path" fill="#747474" d="m8900.963833,5918.503091l-6.63,0c-4.143,0 -7.5,-3.358 -7.5,-7.5s3.357,-7.5 7.5,-7.5l6.63,0c4.143,0 7.5,3.358 7.5,7.5s-3.357,7.5 -7.5,7.5z"/>
      </g>
      <g stroke="null" id="svg_201">
       <path stroke="null" id="svg_202" class="active-path" fill="#747474" d="m8812.637833,6049.603091l-6.812,0c-4.143,0 -7.5,-3.358 -7.5,-7.5s3.357,-7.5 7.5,-7.5l6.812,0c4.143,0 7.5,3.358 7.5,7.5s-3.357,7.5 -7.5,7.5z"/>
      </g>
      <g stroke="null" id="svg_203">
       <path stroke="null" id="svg_204" fill="#000000" d="m8742.680833,5940.381091l-6.562,0c-4.143,0 -7.5,-3.358 -7.5,-7.5s3.357,-7.5 7.5,-7.5l6.562,0c4.143,0 7.5,3.358 7.5,7.5s-3.357,7.5 -7.5,7.5z"/>
      </g>
      <g stroke="null" id="svg_205">
       <path stroke="null" id="svg_206" class="active-path" fill="#747474" d="m8875.887833,5809.164091l-9.132,0c-4.143,0 -7.5,-3.358 -7.5,-7.5s3.357,-7.5 7.5,-7.5l9.132,0c4.143,0 7.5,3.358 7.5,7.5s-3.357,7.5 -7.5,7.5z"/>
      </g>
      <g stroke="null" id="svg_207">
       <path stroke="null" id="svg_208" fill="#000000" d="m8935.864833,6025.188091l-10.084,0c-4.143,0 -7.5,-3.358 -7.5,-7.5s3.357,-7.5 7.5,-7.5l10.084,0c4.143,0 7.5,3.358 7.5,7.5s-3.358,7.5 -7.5,7.5z"/>
      </g>
     </g>
     <ellipse stroke="null" id="svg_209" transform="matrix(0.785,-0.619,0.619,0.785,-68.073,156.437) " ry="43.139" rx="51.654" fill="#000000" cy="9970.477512" cx="3428.172358"/>
    </g>
   </g>
  </g>
  <g opacity="0.25" stroke="null" id="svg_240"> 
    <animateTransform
      attributeName="transform"
      dur="8s"
      type="rotate"
      from="2 50 48"
      to="-2 50 52"
      repeatCount="indefinite" />
   <g stroke="null" transform="matrix(0.18114688281204314,0,0,0.1710086919971255,-1102.8929963074484,-522.4961993097958) " id="svg_217">
    <g stroke="null" id="svg_218">
     <g stroke="null" id="svg_219">
      <g stroke="null" id="svg_215">
       <g stroke="null" id="svg_220">
        <path stroke="null" id="svg_221" fill="#3d3d3d" d="m9928.618581,7537.674266c8.43,1.66 13.92,9.83 12.27,18.25l-6.15,31.32c-1.7,8.67 -10.3,14.23 -18.98,12.1c-8.13,-1.99 -13.06,-10.3 -11.45,-18.51l0.17,-0.84l-40.54,1.85c-1.22,0.05 -2.28,0.86 -2.66,2.03c-3.96,11.96 -9.17,23.36 -15.48,34.02c-0.64,1.08 -0.54,2.45 0.27,3.41l17.93,21.3c3.56,-3.39 8.21,-5.15 12.91,-5.15c3.96,0 7.96,1.25 11.35,3.85c8.21,6.28 9.77,18.03 3.49,26.25l-5.2,6.79c-6.1,7.98 -17.47,10.12 -25.75,4.41c-7.13,-4.91 -9.71,-13.74 -7.13,-21.41l-25.83,-11.35c-1.17,-0.51 -2.52,-0.21 -3.37,0.73c-11.96,13.13 -25.88,24.43 -41.3,33.45c-1.06,0.62 -1.63,1.82 -1.43,3.03l6.61,40.32l5.72,-2.29c8.21,-3.28 17.55,0.92 20.48,9.37c2.74,7.91 -1.56,16.56 -9.33,19.66l-29.23,11.7c-8.2,3.28 -17.54,-0.92 -20.47,-9.37c-2.74,-7.91 1.56,-16.56 9.33,-19.67l0.79,-0.31l-23.58,-33.04c-0.71,-1 -1.96,-1.44 -3.15,-1.13c-14.09,3.65 -28.87,5.61 -44.11,5.61c-12.06,0 -23.82,-1.23 -35.19,-3.55c-1.2,-0.24 -2.43,0.27 -3.09,1.3l-23.59,37.01l0.83,0.3c7.68,2.8 12.44,10.05 12.44,17.77c0,2.16 -0.37,4.35 -1.15,6.49c0,11.07 -8.51,17.03 -18.91,13.23l-28.99,-10.57c-9.7,-3.53 -14.76,-14.18 -11.41,-23.91c3.44,-10.03 14.87,-15.09 24.83,-11.46l0.67,0.24l4.8,-43.37c0.14,-1.22 -0.5,-2.38 -1.59,-2.95c-18.36,-9.48 -34.83,-22.11 -48.7,-37.18c-0.84,-0.91 -2.15,-1.21 -3.29,-0.74l-35.38,14.51c4,7.48 1.75,16.96 -5.55,21.76c-7.62,5.01 -17.91,2.68 -23.11,-4.8l-9.06,-13.05c-5.07,-7.29 -3.89,-17.45 3.09,-22.95c7.44,-5.86 18.05,-4.34 23.62,3.03l24.92,-28.16c0.83,-0.94 0.97,-2.3 0.36,-3.39c-10.23,-18.44 -17.23,-38.92 -20.24,-60.67c-0.17,-1.22 -1.06,-2.21 -2.25,-2.48l-39.82,-9.2l-0.04,4.67c-0.04,4.67 -1.96,8.9 -5.05,11.95c-3.08,3.06 -7.32,4.94 -12,4.94c-9.3,0 -16.83,-7.59 -16.74,-16.89l0.26,-28.93c0.08,-9.46 7.9,-17.43 17.35,-17.18c9.17,0.24 16.49,7.78 16.44,16.98l39.53,-9.27c1.2,-0.28 2.09,-1.27 2.25,-2.49c3.1,-23 10.67,-44.59 21.8,-63.87c0.62,-1.08 0.51,-2.43 -0.3,-3.39l-18.85,-22.14l-1.64,2.16c-5.08,6.72 -14.78,7.89 -21.33,2.44c-6.14,-5.12 -6.89,-14.3 -2.07,-20.67l12.56,-16.6c2.92,-3.85 7.35,-5.88 11.84,-5.88c3.11,0 6.25,0.98 8.93,3c6.21,4.69 7.67,13.31 3.57,19.77l26.36,11.4c1.16,0.5 2.5,0.2 3.36,-0.73c12.44,-13.64 27.01,-25.3 43.19,-34.47c1.06,-0.61 1.65,-1.8 1.47,-3.01l-6.07,-40.41l-5.76,2.22c-8.24,3.17 -17.53,-1.16 -20.34,-9.64c-2.64,-7.95 1.78,-16.54 9.59,-19.54l29.38,-11.3c8.25,-3.17 17.53,1.15 20.34,9.64c2.64,7.94 -1.77,16.53 -9.59,19.54l-0.79,0.3l23.12,33.34c0.7,1.01 1.94,1.47 3.13,1.18c13.42,-3.29 27.43,-5.03 41.86,-5.03l0.02,0c1.26,0 2.39,-0.77 2.81,-1.96l7.66,-21.42c-8.87,-2.78 -14.78,-11.53 -13.65,-21.07c1.29,-10.81 11.64,-18.49 22.45,-17.13l10.52,1.32c10.72,1.35 18.76,10.95 17.59,21.7c-0.92,8.37 -6.94,14.89 -14.58,16.89l2.66,23.22c0.14,1.25 1.07,2.27 2.31,2.54c17.78,3.91 34.55,10.52 49.85,19.37c1.07,0.61 2.39,0.52 3.34,-0.26l31.73,-25.75l-4.82,-3.83c-6.93,-5.5 -7.91,-15.69 -2.03,-22.42c5.5,-6.31 15.15,-6.87 21.7,-1.66l24.65,19.57c6.93,5.49 7.91,15.69 2.03,22.42c-5.5,6.3 -15.15,6.86 -21.7,1.66l-0.67,-0.53l-16.99,36.89c-0.52,1.11 -0.28,2.42 0.58,3.3c11.96,12.25 22.14,26.25 30.12,41.57c0.58,1.11 1.79,1.74 3.03,1.57l24.09,-3.37c-3.54,-9.88 1.71,-20.83 11.81,-24.14c9.63,-3.16 20.01,2.19 23.55,11.69l5.55,14.88c3.5,9.41 -0.7,20.18 -9.9,24.18c-8.82,3.83 -18.77,0.37 -23.51,-7.45l-19.99,13.56c-1.05,0.71 -1.52,2.01 -1.18,3.23c4.11,14.9 6.31,30.58 6.31,46.78c0,2.71 -0.06,5.4 -0.19,8.07c-0.05,1.23 0.64,2.36 1.76,2.85l37.48,16.37l1.18,-6.05c1.66,-8.43 9.83,-13.92 18.25,-12.27z"/>
       </g>
      </g>
      <g>
           <animate
          attributeName="opacity"
          dur="1s"
          values="0;1;0"
          repeatCount="indefinite"
          begin="0.1"/>
        <ellipse stroke="null" id="svg_222" ry="20.699" rx="24.756" fill="#000000" cy="7442.374266" cx="9770.938581"/>
        <circle stroke="null" id="svg_223" r="27.059" fill="#000000" cy="7571.275266" cx="9681.601581"/>
        <circle stroke="null" id="svg_224" class="active-path" r="19.374001" fill="#747474" cy="7557.178266" cx="9787.058581"/>
        <circle stroke="null" id="svg_225" class="active-path" r="18.836" fill="#747474" cy="7651.726266" cx="9715.506581"/>
      </g>
      <g stroke="null" id="svg_226">
       <path stroke="null" id="svg_227" fill="#272727" d="m9588.162581,7520.306266c0,-67.408 32.157,-127.319 81.946,-165.228c-5.813,0.82 -11.552,1.928 -17.17,3.306c-1.19,0.29 -2.43,-0.17 -3.13,-1.18l-23.12,-33.34l0.79,-0.3c7.82,-3.01 12.23,-11.6 9.59,-19.54c-2.81,-8.49 -12.09,-12.81 -20.34,-9.64l-29.38,11.3c-7.81,3 -12.23,11.59 -9.59,19.54c2.81,8.48 12.1,12.81 20.34,9.64l5.76,-2.22l6.07,40.41c0.18,1.21 -0.41,2.4 -1.47,3.01c-16.18,9.17 -30.75,20.83 -43.19,34.47c-0.86,0.93 -2.2,1.23 -3.36,0.73l-26.36,-11.4c4.1,-6.46 2.64,-15.08 -3.57,-19.77c-2.68,-2.02 -5.82,-3 -8.93,-3c-4.49,0 -8.92,2.03 -11.84,5.88l-12.56,16.6c-4.82,6.37 -4.07,15.55 2.07,20.67c6.55,5.45 16.25,4.28 21.33,-2.44l1.64,-2.16l18.85,22.14c0.81,0.96 0.92,2.31 0.3,3.39c-11.13,19.28 -18.7,40.87 -21.8,63.87c-0.16,1.22 -1.05,2.21 -2.25,2.49l-39.53,9.27c0.05,-9.2 -7.27,-16.74 -16.44,-16.98c-9.45,-0.25 -17.27,7.72 -17.35,17.18l-0.26,28.93c-0.09,9.3 7.44,16.89 16.74,16.89c4.68,0 8.92,-1.88 12,-4.94c3.09,-3.05 5.01,-7.28 5.05,-11.95l0.04,-4.67l39.82,9.2c1.19,0.27 2.08,1.26 2.25,2.48c3.01,21.75 10.01,42.23 20.24,60.67c0.61,1.09 0.47,2.45 -0.36,3.39l-24.92,28.16c-5.57,-7.37 -16.18,-8.89 -23.62,-3.03c-6.98,5.5 -8.16,15.66 -3.09,22.95l9.06,13.05c5.2,7.48 15.49,9.81 23.11,4.8c7.3,-4.8 9.55,-14.28 5.55,-21.76l35.38,-14.51c1.14,-0.47 2.45,-0.17 3.29,0.74c13.87,15.07 30.34,27.7 48.7,37.18c1.09,0.57 1.73,1.73 1.59,2.95l-4.8,43.37l-0.67,-0.24c-9.96,-3.63 -21.39,1.43 -24.83,11.46c-3.35,9.73 1.71,20.38 11.41,23.91l28.99,10.57c10.4,3.8 18.91,-2.16 18.91,-13.23c0.78,-2.14 1.15,-4.33 1.15,-6.49c0,-7.72 -4.76,-14.97 -12.44,-17.77l-0.83,-0.3l23.59,-37.01c0.66,-1.03 1.89,-1.54 3.09,-1.3c11.37,2.32 23.13,3.55 35.19,3.55c1.419,0 2.861,-0.018 4.272,-0.051c-65.927,-34.765 -110.908,-103.985 -110.908,-183.697z"/>
      </g>
      <circle stroke="null" id="svg_228" r="19.622" fill="#000000" cy="7606.669266" cx="9597.645581"/>
      <g stroke="null" id="svg_229">
       <path stroke="null" id="svg_230" class="active-path" fill="#747474" d="m9742.867581,7520.306266l-6.63,0c-4.143,0 -7.5,-3.358 -7.5,-7.5s3.357,-7.5 7.5,-7.5l6.63,0c4.143,0 7.5,3.358 7.5,7.5s-3.357,7.5 -7.5,7.5z"/>
      </g>
      <g stroke="null" id="svg_231">
       <path stroke="null" id="svg_232" class="active-path" fill="#747474" d="m9654.541581,7651.406266l-6.812,0c-4.143,0 -7.5,-3.358 -7.5,-7.5s3.357,-7.5 7.5,-7.5l6.812,0c4.143,0 7.5,3.358 7.5,7.5s-3.357,7.5 -7.5,7.5z"/>
      </g>
      <g stroke="null" id="svg_233">
       <path stroke="null" id="svg_234" fill="#000000" d="m9584.584581,7542.184266l-6.562,0c-4.143,0 -7.5,-3.358 -7.5,-7.5s3.357,-7.5 7.5,-7.5l6.562,0c4.143,0 7.5,3.358 7.5,7.5s-3.357,7.5 -7.5,7.5z"/>
      </g>
      <g stroke="null" id="svg_235">
       <path stroke="null" id="svg_236" class="active-path" fill="#747474" d="m9717.791581,7410.967266l-9.132,0c-4.143,0 -7.5,-3.358 -7.5,-7.5s3.357,-7.5 7.5,-7.5l9.132,0c4.143,0 7.5,3.358 7.5,7.5s-3.357,7.5 -7.5,7.5z"/>
      </g>
      <g stroke="null" id="svg_237">
       <path stroke="null" id="svg_238" fill="#000000" d="m9777.768581,7626.991266l-10.084,0c-4.143,0 -7.5,-3.358 -7.5,-7.5s3.357,-7.5 7.5,-7.5l10.084,0c4.143,0 7.5,3.358 7.5,7.5s-3.358,7.5 -7.5,7.5z"/>
      </g>
     </g>
     <ellipse stroke="null" id="svg_239" transform="matrix(0.785,-0.619,0.619,0.785,-68.073,156.437) " ry="43.139" rx="51.654" fill="#000000" cy="11750.124127" cx="3097.347509"/>
    </g>
   </g>
  </g>
  <g opacity="0.25" stroke="null" id="svg_270"> 
    <animateTransform
      attributeName="transform"
      dur="8s"
      type="rotate"
      from="-3 50 48"
      to="3 50 52"
      repeatCount="indefinite" />
   <g stroke="null" transform="matrix(0.1166273940229489,0,0,0.1216394138461921,-449.3267203916557,-256.5595173117607) " id="svg_247">
    <g stroke="null" id="svg_248">
     <g stroke="null" id="svg_249">
      <g stroke="null" id="svg_245">
       <g stroke="null" id="svg_250">
        <path stroke="null" id="svg_251" fill="#3d3d3d" d="m11779.253773,6107.586131c8.43,1.66 13.92,9.83 12.27,18.25l-6.15,31.32c-1.7,8.67 -10.3,14.23 -18.98,12.1c-8.13,-1.99 -13.06,-10.3 -11.45,-18.51l0.17,-0.84l-40.54,1.85c-1.22,0.05 -2.28,0.86 -2.66,2.03c-3.96,11.96 -9.17,23.36 -15.48,34.02c-0.64,1.08 -0.54,2.45 0.27,3.41l17.93,21.3c3.56,-3.39 8.21,-5.15 12.91,-5.15c3.96,0 7.96,1.25 11.35,3.85c8.21,6.28 9.77,18.03 3.49,26.25l-5.2,6.79c-6.1,7.98 -17.47,10.12 -25.75,4.41c-7.13,-4.91 -9.71,-13.74 -7.13,-21.41l-25.83,-11.35c-1.17,-0.51 -2.52,-0.21 -3.37,0.73c-11.96,13.13 -25.88,24.43 -41.3,33.45c-1.06,0.62 -1.63,1.82 -1.43,3.03l6.61,40.32l5.72,-2.29c8.21,-3.28 17.55,0.92 20.48,9.37c2.74,7.91 -1.56,16.56 -9.33,19.66l-29.23,11.7c-8.2,3.28 -17.54,-0.92 -20.47,-9.37c-2.74,-7.91 1.56,-16.56 9.33,-19.67l0.79,-0.31l-23.58,-33.04c-0.71,-1 -1.96,-1.44 -3.15,-1.13c-14.09,3.65 -28.87,5.61 -44.11,5.61c-12.06,0 -23.82,-1.23 -35.19,-3.55c-1.2,-0.24 -2.43,0.27 -3.09,1.3l-23.59,37.01l0.83,0.3c7.68,2.8 12.44,10.05 12.44,17.77c0,2.16 -0.37,4.35 -1.15,6.49c0,11.07 -8.51,17.03 -18.91,13.23l-28.99,-10.57c-9.7,-3.53 -14.76,-14.18 -11.41,-23.91c3.44,-10.03 14.87,-15.09 24.83,-11.46l0.67,0.24l4.8,-43.37c0.14,-1.22 -0.5,-2.38 -1.59,-2.95c-18.36,-9.48 -34.83,-22.11 -48.7,-37.18c-0.84,-0.91 -2.15,-1.21 -3.29,-0.74l-35.38,14.51c4,7.48 1.75,16.96 -5.55,21.76c-7.62,5.01 -17.91,2.68 -23.11,-4.8l-9.06,-13.05c-5.07,-7.29 -3.89,-17.45 3.09,-22.95c7.44,-5.86 18.05,-4.34 23.62,3.03l24.92,-28.16c0.83,-0.94 0.97,-2.3 0.36,-3.39c-10.23,-18.44 -17.23,-38.92 -20.24,-60.67c-0.17,-1.22 -1.06,-2.21 -2.25,-2.48l-39.82,-9.2l-0.04,4.67c-0.04,4.67 -1.96,8.9 -5.05,11.95c-3.08,3.06 -7.32,4.94 -12,4.94c-9.3,0 -16.83,-7.59 -16.74,-16.89l0.26,-28.93c0.08,-9.46 7.9,-17.43 17.35,-17.18c9.17,0.24 16.49,7.78 16.44,16.98l39.53,-9.27c1.2,-0.28 2.09,-1.27 2.25,-2.49c3.1,-23 10.67,-44.59 21.8,-63.87c0.62,-1.08 0.51,-2.43 -0.3,-3.39l-18.85,-22.14l-1.64,2.16c-5.08,6.72 -14.78,7.89 -21.33,2.44c-6.14,-5.12 -6.89,-14.3 -2.07,-20.67l12.56,-16.6c2.92,-3.85 7.35,-5.88 11.84,-5.88c3.11,0 6.25,0.98 8.93,3c6.21,4.69 7.67,13.31 3.57,19.77l26.36,11.4c1.16,0.5 2.5,0.2 3.36,-0.73c12.44,-13.64 27.01,-25.3 43.19,-34.47c1.06,-0.61 1.65,-1.8 1.47,-3.01l-6.07,-40.41l-5.76,2.22c-8.24,3.17 -17.53,-1.16 -20.34,-9.64c-2.64,-7.95 1.78,-16.54 9.59,-19.54l29.38,-11.3c8.25,-3.17 17.53,1.15 20.34,9.64c2.64,7.94 -1.77,16.53 -9.59,19.54l-0.79,0.3l23.12,33.34c0.7,1.01 1.94,1.47 3.13,1.18c13.42,-3.29 27.43,-5.03 41.86,-5.03l0.02,0c1.26,0 2.39,-0.77 2.81,-1.96l7.66,-21.42c-8.87,-2.78 -14.78,-11.53 -13.65,-21.07c1.29,-10.81 11.64,-18.49 22.45,-17.13l10.52,1.32c10.72,1.35 18.76,10.95 17.59,21.7c-0.92,8.37 -6.94,14.89 -14.58,16.89l2.66,23.22c0.14,1.25 1.07,2.27 2.31,2.54c17.78,3.91 34.55,10.52 49.85,19.37c1.07,0.61 2.39,0.52 3.34,-0.26l31.73,-25.75l-4.82,-3.83c-6.93,-5.5 -7.91,-15.69 -2.03,-22.42c5.5,-6.31 15.15,-6.87 21.7,-1.66l24.65,19.57c6.93,5.49 7.91,15.69 2.03,22.42c-5.5,6.3 -15.15,6.86 -21.7,1.66l-0.67,-0.53l-16.99,36.89c-0.52,1.11 -0.28,2.42 0.58,3.3c11.96,12.25 22.14,26.25 30.12,41.57c0.58,1.11 1.79,1.74 3.03,1.57l24.09,-3.37c-3.54,-9.88 1.71,-20.83 11.81,-24.14c9.63,-3.16 20.01,2.19 23.55,11.69l5.55,14.88c3.5,9.41 -0.7,20.18 -9.9,24.18c-8.82,3.83 -18.77,0.37 -23.51,-7.45l-19.99,13.56c-1.05,0.71 -1.52,2.01 -1.18,3.23c4.11,14.9 6.31,30.58 6.31,46.78c0,2.71 -0.06,5.4 -0.19,8.07c-0.05,1.23 0.64,2.36 1.76,2.85l37.48,16.37l1.18,-6.05c1.66,-8.43 9.83,-13.92 18.25,-12.27z"/>
       </g>
      </g>
      <ellipse stroke="null" id="svg_252" ry="20.699" rx="24.756" fill="#000000" cy="6012.286131" cx="11621.573773"/>
      <circle stroke="null" id="svg_253" r="27.059" fill="#000000" cy="6141.187131" cx="11532.236773"/>
      <circle stroke="null" id="svg_254" class="active-path" r="19.374001" fill="#747474" cy="6127.090131" cx="11637.693773"/>
      <circle stroke="null" id="svg_255" class="active-path" r="18.836" fill="#747474" cy="6221.638131" cx="11566.141773"/>
      <g stroke="null" id="svg_256">
       <path stroke="null" id="svg_257" fill="#272727" d="m11438.797773,6090.218131c0,-67.408 32.157,-127.319 81.946,-165.228c-5.813,0.82 -11.552,1.928 -17.17,3.306c-1.19,0.29 -2.43,-0.17 -3.13,-1.18l-23.12,-33.34l0.79,-0.3c7.82,-3.01 12.23,-11.6 9.59,-19.54c-2.81,-8.49 -12.09,-12.81 -20.34,-9.64l-29.38,11.3c-7.81,3 -12.23,11.59 -9.59,19.54c2.81,8.48 12.1,12.81 20.34,9.64l5.76,-2.22l6.07,40.41c0.18,1.21 -0.41,2.4 -1.47,3.01c-16.18,9.17 -30.75,20.83 -43.19,34.47c-0.86,0.93 -2.2,1.23 -3.36,0.73l-26.36,-11.4c4.1,-6.46 2.64,-15.08 -3.57,-19.77c-2.68,-2.02 -5.82,-3 -8.93,-3c-4.49,0 -8.92,2.03 -11.84,5.88l-12.56,16.6c-4.82,6.37 -4.07,15.55 2.07,20.67c6.55,5.45 16.25,4.28 21.33,-2.44l1.64,-2.16l18.85,22.14c0.81,0.96 0.92,2.31 0.3,3.39c-11.13,19.28 -18.7,40.87 -21.8,63.87c-0.16,1.22 -1.05,2.21 -2.25,2.49l-39.53,9.27c0.05,-9.2 -7.27,-16.74 -16.44,-16.98c-9.45,-0.25 -17.27,7.72 -17.35,17.18l-0.26,28.93c-0.09,9.3 7.44,16.89 16.74,16.89c4.68,0 8.92,-1.88 12,-4.94c3.09,-3.05 5.01,-7.28 5.05,-11.95l0.04,-4.67l39.82,9.2c1.19,0.27 2.08,1.26 2.25,2.48c3.01,21.75 10.01,42.23 20.24,60.67c0.61,1.09 0.47,2.45 -0.36,3.39l-24.92,28.16c-5.57,-7.37 -16.18,-8.89 -23.62,-3.03c-6.98,5.5 -8.16,15.66 -3.09,22.95l9.06,13.05c5.2,7.48 15.49,9.81 23.11,4.8c7.3,-4.8 9.55,-14.28 5.55,-21.76l35.38,-14.51c1.14,-0.47 2.45,-0.17 3.29,0.74c13.87,15.07 30.34,27.7 48.7,37.18c1.09,0.57 1.73,1.73 1.59,2.95l-4.8,43.37l-0.67,-0.24c-9.96,-3.63 -21.39,1.43 -24.83,11.46c-3.35,9.73 1.71,20.38 11.41,23.91l28.99,10.57c10.4,3.8 18.91,-2.16 18.91,-13.23c0.78,-2.14 1.15,-4.33 1.15,-6.49c0,-7.72 -4.76,-14.97 -12.44,-17.77l-0.83,-0.3l23.59,-37.01c0.66,-1.03 1.89,-1.54 3.09,-1.3c11.37,2.32 23.13,3.55 35.19,3.55c1.419,0 2.861,-0.018 4.272,-0.051c-65.927,-34.765 -110.908,-103.985 -110.908,-183.697z"/>
      </g>
      <circle stroke="null" id="svg_258" r="19.622" fill="#000000" cy="6176.581131" cx="11448.280773"/>
      <g stroke="null" id="svg_259">
       <path stroke="null" id="svg_260" class="active-path" fill="#747474" d="m11593.502773,6090.218131l-6.63,0c-4.143,0 -7.5,-3.358 -7.5,-7.5s3.357,-7.5 7.5,-7.5l6.63,0c4.143,0 7.5,3.358 7.5,7.5s-3.357,7.5 -7.5,7.5z"/>
      </g>
      <g stroke="null" id="svg_261">
       <path stroke="null" id="svg_262" class="active-path" fill="#747474" d="m11505.176773,6221.318131l-6.812,0c-4.143,0 -7.5,-3.358 -7.5,-7.5s3.357,-7.5 7.5,-7.5l6.812,0c4.143,0 7.5,3.358 7.5,7.5s-3.357,7.5 -7.5,7.5z"/>
      </g>
      <g stroke="null" id="svg_263">
       <path stroke="null" id="svg_264" fill="#000000" d="m11435.219773,6112.096131l-6.562,0c-4.143,0 -7.5,-3.358 -7.5,-7.5s3.357,-7.5 7.5,-7.5l6.562,0c4.143,0 7.5,3.358 7.5,7.5s-3.357,7.5 -7.5,7.5z"/>
      </g>
      <g stroke="null" id="svg_265">
       <path stroke="null" id="svg_266" class="active-path" fill="#747474" d="m11568.426773,5980.879131l-9.132,0c-4.143,0 -7.5,-3.358 -7.5,-7.5s3.357,-7.5 7.5,-7.5l9.132,0c4.143,0 7.5,3.358 7.5,7.5s-3.357,7.5 -7.5,7.5z"/>
      </g>
      <g stroke="null" id="svg_267">
       <path stroke="null" id="svg_268" fill="#000000" d="m11628.403773,6196.903131l-10.084,0c-4.143,0 -7.5,-3.358 -7.5,-7.5s3.357,-7.5 7.5,-7.5l10.084,0c4.143,0 7.5,3.358 7.5,7.5s-3.358,7.5 -7.5,7.5z"/>
      </g>
     </g>
     <ellipse stroke="null" id="svg_269" transform="matrix(0.785,-0.619,0.619,0.785,-68.073,156.437) " ry="43.139" rx="51.654" fill="#000000" cy="11773.062209" cx="5436.757088"/>
    </g>
   </g>
  </g>
 </g>
</svg>